solid gun_rig_3dp7
facet normal -0.8523318832918785 -0.5230013008818618 -0.0
  outer loop
    vertex 0.659596837193078 0.8287223234356168 0.1875
    vertex 0.6766631792756357 0.8009094146271581 0.0
    vertex 0.6766631792756357 0.8009094146271581 0.1875
  endloop
endfacet
facet normal -0.8523318832918785 -0.5230013008818618 -0.0
  outer loop
    vertex 0.6766631792756357 0.8009094146271581 0.0
    vertex 0.659596837193078 0.8287223234356168 0.1875
    vertex 0.659596837193078 0.8287223234356168 0.0
  endloop
endfacet
facet normal 0.8660254037844388 -0.5000000000000001 0.0
  outer loop
    vertex 0.46875 0.9123797632095839 0.1875
    vertex 0.375 0.7500000000000017 0.3125
    vertex 0.375 0.7500000000000017 0.1875
  endloop
endfacet
facet normal 0.8660254037844388 -0.5000000000000001 0.0
  outer loop
    vertex 0.375 0.7500000000000017 0.3125
    vertex 0.46875 0.9123797632095839 0.1875
    vertex 0.46875 0.9123797632095839 0.3125
  endloop
endfacet
facet normal 0.0 1.0 0.0
  outer loop
    vertex 0.0 0.2499999999999999 1.3124999999999991
    vertex 1.125 0.2499999999999999 0.3125
    vertex 0.0 0.2499999999999999 0.3125
  endloop
endfacet
facet normal 0.0 1.0 0.0
  outer loop
    vertex 1.125 0.2499999999999999 0.3125
    vertex 0.0 0.2499999999999999 1.3124999999999991
    vertex 1.125 0.2499999999999999 1.3124999999999991
  endloop
endfacet
facet normal 0.7257801878485894 -0.6879266813596245 0.0
  outer loop
    vertex 0.48377767656438664 0.8470968371930744 0.0
    vertex 0.46132956400327885 0.8234135061159175 0.1875
    vertex 0.46132956400327885 0.8234135061159175 0.0
  endloop
endfacet
facet normal 0.7257801878485894 -0.6879266813596245 0.0
  outer loop
    vertex 0.46132956400327885 0.8234135061159175 0.1875
    vertex 0.48377767656438664 0.8470968371930744 0.0
    vertex 0.48377767656438664 0.8470968371930744 0.1875
  endloop
endfacet
facet normal 0.8660254037844388 0.5000000000000001 0.0
  outer loop
    vertex 0.375 0.7500000000000017 0.1875
    vertex 0.46875 0.5876202367904194 0.3125
    vertex 0.46875 0.5876202367904194 0.1875
  endloop
endfacet
facet normal 0.8660254037844388 0.5000000000000001 0.0
  outer loop
    vertex 0.46875 0.5876202367904194 0.3125
    vertex 0.375 0.7500000000000017 0.1875
    vertex 0.375 0.7500000000000017 0.3125
  endloop
endfacet
facet normal 0.0 0.0 1.0
  outer loop
    vertex 0.375 0.7500000000000017 0.1875
    vertex 0.4390505106458704 0.7303728866563598 0.1875
    vertex 0.4381770792569313 0.7629927432789055 0.1875
  endloop
endfacet
facet normal 0.0 0.0 1.0
  outer loop
    vertex 0.4390505106458704 0.7303728866563598 0.1875
    vertex 0.375 0.7500000000000017 0.1875
    vertex 0.46875 0.5876202367904194 0.1875
  endloop
endfacet
facet normal 0.0 0.0 1.0
  outer loop
    vertex 0.4381770792569313 0.7629927432789055 0.1875
    vertex 0.4390505106458704 0.7303728866563598 0.1875
    vertex 0.4385249737906065 0.7500000000000017 0.1875
  endloop
endfacet
facet normal 0.0 0.0 1.0
  outer loop
    vertex 0.4390505106458704 0.7303728866563598 0.1875
    vertex 0.46875 0.5876202367904194 0.1875
    vertex 0.4483368207243643 0.6990905853728452 0.1875
  endloop
endfacet
facet normal 0.0 0.0 1.0
  outer loop
    vertex 0.4483368207243643 0.6990905853728452 0.1875
    vertex 0.46875 0.5876202367904194 0.1875
    vertex 0.46540316280693617 0.6712776765643865 0.1875
  endloop
endfacet
facet normal 0.0 0.0 1.0
  outer loop
    vertex 0.46540316280693617 0.6712776765643865 0.1875
    vertex 0.46875 0.5876202367904194 0.1875
    vertex 0.48908649388408776 0.6488295640032734 0.1875
  endloop
endfacet
facet normal 0.0 0.0 1.0
  outer loop
    vertex 0.48908649388408776 0.6488295640032734 0.1875
    vertex 0.46875 0.5876202367904194 0.1875
    vertex 0.5177728340814838 0.6332760494632871 0.1875
  endloop
endfacet
facet normal 0.0 0.0 1.0
  outer loop
    vertex 0.5177728340814838 0.6332760494632871 0.1875
    vertex 0.46875 0.5876202367904194 0.1875
    vertex 0.65625 0.5876202367904194 0.1875
  endloop
endfacet
facet normal 0.0 0.0 1.0
  outer loop
    vertex 0.48908649388408776 0.6488295640032734 0.1875
    vertex 0.5177728340814838 0.6332760494632871 0.1875
    vertex 0.5005124868953033 0.6426344778678227 0.1875
  endloop
endfacet
facet normal 0.0 0.0 1.0
  outer loop
    vertex 0.5177728340814838 0.6332760494632871 0.1875
    vertex 0.65625 0.5876202367904194 0.1875
    vertex 0.5495072567210997 0.6256770792569294 0.1875
  endloop
endfacet
facet normal 0.0 0.0 1.0
  outer loop
    vertex 0.5495072567210997 0.6256770792569294 0.1875
    vertex 0.65625 0.5876202367904194 0.1875
    vertex 0.5821271133436454 0.6265505106458721 0.1875
  endloop
endfacet
facet normal 0.0 0.0 1.0
  outer loop
    vertex 0.5821271133436454 0.6265505106458721 0.1875
    vertex 0.65625 0.5876202367904194 0.1875
    vertex 0.6134094146271565 0.6358368207243695 0.1875
  endloop
endfacet
facet normal 0.0 0.0 1.0
  outer loop
    vertex 0.6134094146271565 0.6358368207243695 0.1875
    vertex 0.65625 0.5876202367904194 0.1875
    vertex 0.6244875131046967 0.6426344778678227 0.1875
  endloop
endfacet
facet normal 0.0 0.0 1.0
  outer loop
    vertex 0.6244875131046967 0.6426344778678227 0.1875
    vertex 0.65625 0.5876202367904194 0.1875
    vertex 0.6412223234356134 0.652903162806929 0.1875
  endloop
endfacet
facet normal 0.0 0.0 1.0
  outer loop
    vertex 0.6412223234356134 0.652903162806929 0.1875
    vertex 0.65625 0.5876202367904194 0.1875
    vertex 0.6636704359967354 0.6765864938840859 0.1875
  endloop
endfacet
facet normal 0.0 0.0 1.0
  outer loop
    vertex 0.6636704359967354 0.6765864938840859 0.1875
    vertex 0.65625 0.5876202367904194 0.1875
    vertex 0.75 0.7500000000000017 0.1875
  endloop
endfacet
facet normal 0.0 0.0 1.0
  outer loop
    vertex 0.6636704359967354 0.6765864938840859 0.1875
    vertex 0.75 0.7500000000000017 0.1875
    vertex 0.6792239505367093 0.7052728340814872 0.1875
  endloop
endfacet
facet normal 0.0 0.0 1.0
  outer loop
    vertex 0.6792239505367093 0.7052728340814872 0.1875
    vertex 0.75 0.7500000000000017 0.1875
    vertex 0.6868229207430829 0.7370072567210978 0.1875
  endloop
endfacet
facet normal 0.0 0.0 1.0
  outer loop
    vertex 0.4381770792569313 0.7629927432789055 0.1875
    vertex 0.46875 0.9123797632095839 0.1875
    vertex 0.375 0.7500000000000017 0.1875
  endloop
endfacet
facet normal 0.0 0.0 1.0
  outer loop
    vertex 0.46875 0.9123797632095839 0.1875
    vertex 0.4381770792569313 0.7629927432789055 0.1875
    vertex 0.44577604946329075 0.7947271659185161 0.1875
  endloop
endfacet
facet normal 0.0 0.0 1.0
  outer loop
    vertex 0.46875 0.9123797632095839 0.1875
    vertex 0.44577604946329075 0.7947271659185161 0.1875
    vertex 0.46132956400327885 0.8234135061159175 0.1875
  endloop
endfacet
facet normal 0.0 0.0 1.0
  outer loop
    vertex 0.46875 0.9123797632095839 0.1875
    vertex 0.46132956400327885 0.8234135061159175 0.1875
    vertex 0.48377767656438664 0.8470968371930744 0.1875
  endloop
endfacet
facet normal 0.0 0.0 1.0
  outer loop
    vertex 0.46875 0.9123797632095839 0.1875
    vertex 0.48377767656438664 0.8470968371930744 0.1875
    vertex 0.5115905853728435 0.8641631792756338 0.1875
  endloop
endfacet
facet normal 0.0 0.0 1.0
  outer loop
    vertex 0.46875 0.9123797632095839 0.1875
    vertex 0.5115905853728435 0.8641631792756338 0.1875
    vertex 0.65625 0.9123797632095839 0.1875
  endloop
endfacet
facet normal 0.0 0.0 1.0
  outer loop
    vertex 0.5115905853728435 0.8641631792756338 0.1875
    vertex 0.48377767656438664 0.8470968371930744 0.1875
    vertex 0.5005124868953033 0.8573655221321806 0.1875
  endloop
endfacet
facet normal 0.0 0.0 1.0
  outer loop
    vertex 0.65625 0.9123797632095839 0.1875
    vertex 0.5115905853728435 0.8641631792756338 0.1875
    vertex 0.5428728866563688 0.8734494893541312 0.1875
  endloop
endfacet
facet normal 0.0 0.0 1.0
  outer loop
    vertex 0.65625 0.9123797632095839 0.1875
    vertex 0.5428728866563688 0.8734494893541312 0.1875
    vertex 0.5754927432789145 0.8743229207430739 0.1875
  endloop
endfacet
facet normal 0.0 0.0 1.0
  outer loop
    vertex 0.65625 0.9123797632095839 0.1875
    vertex 0.5754927432789145 0.8743229207430739 0.1875
    vertex 0.6072271659185162 0.8667239505367162 0.1875
  endloop
endfacet
facet normal 0.0 0.0 1.0
  outer loop
    vertex 0.65625 0.9123797632095839 0.1875
    vertex 0.6072271659185162 0.8667239505367162 0.1875
    vertex 0.6244875131046967 0.8573655221321806 0.1875
  endloop
endfacet
facet normal 0.0 0.0 1.0
  outer loop
    vertex 0.65625 0.9123797632095839 0.1875
    vertex 0.6244875131046967 0.8573655221321806 0.1875
    vertex 0.6359135061159122 0.8511704359967299 0.1875
  endloop
endfacet
facet normal 0.0 0.0 1.0
  outer loop
    vertex 0.65625 0.9123797632095839 0.1875
    vertex 0.6359135061159122 0.8511704359967299 0.1875
    vertex 0.659596837193078 0.8287223234356168 0.1875
  endloop
endfacet
facet normal 0.0 0.0 1.0
  outer loop
    vertex 0.65625 0.9123797632095839 0.1875
    vertex 0.659596837193078 0.8287223234356168 0.1875
    vertex 0.75 0.7500000000000017 0.1875
  endloop
endfacet
facet normal 0.0 0.0 1.0
  outer loop
    vertex 0.75 0.7500000000000017 0.1875
    vertex 0.659596837193078 0.8287223234356168 0.1875
    vertex 0.6766631792756357 0.8009094146271581 0.1875
  endloop
endfacet
facet normal 0.0 0.0 1.0
  outer loop
    vertex 0.75 0.7500000000000017 0.1875
    vertex 0.6766631792756357 0.8009094146271581 0.1875
    vertex 0.6859494893541296 0.7696271133436435 0.1875
  endloop
endfacet
facet normal 0.0 0.0 1.0
  outer loop
    vertex 0.75 0.7500000000000017 0.1875
    vertex 0.6859494893541296 0.7696271133436435 0.1875
    vertex 0.6864750262093935 0.7500000000000017 0.1875
  endloop
endfacet
facet normal 0.0 0.0 1.0
  outer loop
    vertex 0.75 0.7500000000000017 0.1875
    vertex 0.6864750262093935 0.7500000000000017 0.1875
    vertex 0.6868229207430829 0.7370072567210978 0.1875
  endloop
endfacet
facet normal 0.2845807395604771 -0.9586520759228616 0.0
  outer loop
    vertex 0.5428728866563688 0.8734494893541312 0.1875
    vertex 0.5115905853728435 0.8641631792756338 0.0
    vertex 0.5428728866563688 0.8734494893541312 0.0
  endloop
endfacet
facet normal 0.2845807395604771 -0.9586520759228616 0.0
  outer loop
    vertex 0.5115905853728435 0.8641631792756338 0.0
    vertex 0.5428728866563688 0.8734494893541312 0.1875
    vertex 0.5115905853728435 0.8641631792756338 0.1875
  endloop
endfacet
facet normal 0.476640412945301 0.879098354421923 0.0
  outer loop
    vertex 0.5005124868953033 0.6426344778678227 0.1875
    vertex 0.5177728340814838 0.6332760494632871 0.0
    vertex 0.5005124868953033 0.6426344778678227 0.0
  endloop
endfacet
facet normal 0.476640412945301 0.879098354421923 0.0
  outer loop
    vertex 0.5177728340814838 0.6332760494632871 0.0
    vertex 0.5005124868953033 0.6426344778678227 0.1875
    vertex 0.5177728340814838 0.6332760494632871 0.1875
  endloop
endfacet
facet normal 0.9996417138271312 0.02676647113005383 0.0
  outer loop
    vertex 0.4385249737906065 0.7500000000000017 0.0
    vertex 0.4390505106458704 0.7303728866563598 0.1875
    vertex 0.4390505106458704 0.7303728866563598 0.0
  endloop
endfacet
facet normal 0.9996417138271312 0.02676647113005383 0.0
  outer loop
    vertex 0.4390505106458704 0.7303728866563598 0.1875
    vertex 0.4385249737906065 0.7500000000000017 0.0
    vertex 0.4385249737906065 0.7500000000000017 0.1875
  endloop
endfacet
facet normal -0.476640412945301 -0.879098354421923 -0.0
  outer loop
    vertex 0.6244875131046967 0.8573655221321806 0.1875
    vertex 0.6072271659185162 0.8667239505367162 0.0
    vertex 0.6244875131046967 0.8573655221321806 0.0
  endloop
endfacet
facet normal -0.476640412945301 -0.879098354421923 -0.0
  outer loop
    vertex 0.6072271659185162 0.8667239505367162 0.0
    vertex 0.6244875131046967 0.8573655221321806 0.1875
    vertex 0.6072271659185162 0.8667239505367162 0.1875
  endloop
endfacet
facet normal -0.972507420920114 0.232871888074341 0.0
  outer loop
    vertex 0.6868229207430829 0.7370072567210978 0.1875
    vertex 0.6792239505367093 0.7052728340814872 0.0
    vertex 0.6792239505367093 0.7052728340814872 0.1875
  endloop
endfacet
facet normal -0.972507420920114 0.232871888074341 0.0
  outer loop
    vertex 0.6792239505367093 0.7052728340814872 0.0
    vertex 0.6868229207430829 0.7370072567210978 0.1875
    vertex 0.6868229207430829 0.7370072567210978 0.0
  endloop
endfacet
facet normal -0.7257801878485886 0.6879266813596254 0.0
  outer loop
    vertex 0.6636704359967354 0.6765864938840859 0.1875
    vertex 0.6412223234356134 0.652903162806929 0.0
    vertex 0.6412223234356134 0.652903162806929 0.1875
  endloop
endfacet
facet normal -0.7257801878485886 0.6879266813596254 0.0
  outer loop
    vertex 0.6412223234356134 0.652903162806929 0.0
    vertex 0.6636704359967354 0.6765864938840859 0.1875
    vertex 0.6636704359967354 0.6765864938840859 0.0
  endloop
endfacet
facet normal -0.8660254037844388 0.5000000000000001 0.0
  outer loop
    vertex 0.75 0.7500000000000017 0.3125
    vertex 0.65625 0.5876202367904194 0.1875
    vertex 0.65625 0.5876202367904194 0.3125
  endloop
endfacet
facet normal -0.8660254037844388 0.5000000000000001 0.0
  outer loop
    vertex 0.65625 0.5876202367904194 0.1875
    vertex 0.75 0.7500000000000017 0.3125
    vertex 0.75 0.7500000000000017 0.1875
  endloop
endfacet
facet normal -0.5230013008818376 0.8523318832918932 0.0
  outer loop
    vertex 0.6244875131046967 0.6426344778678227 0.1875
    vertex 0.6412223234356134 0.652903162806929 0.0
    vertex 0.6244875131046967 0.6426344778678227 0.0
  endloop
endfacet
facet normal -0.5230013008818376 0.8523318832918932 0.0
  outer loop
    vertex 0.6412223234356134 0.652903162806929 0.0
    vertex 0.6244875131046967 0.6426344778678227 0.1875
    vertex 0.6412223234356134 0.652903162806929 0.1875
  endloop
endfacet
facet normal -0.8790983544219346 0.4766404129452797 0.0
  outer loop
    vertex 0.6792239505367093 0.7052728340814872 0.1875
    vertex 0.6636704359967354 0.6765864938840859 0.0
    vertex 0.6636704359967354 0.6765864938840859 0.1875
  endloop
endfacet
facet normal -0.8790983544219346 0.4766404129452797 0.0
  outer loop
    vertex 0.6636704359967354 0.6765864938840859 0.0
    vertex 0.6792239505367093 0.7052728340814872 0.1875
    vertex 0.6792239505367093 0.7052728340814872 0.0
  endloop
endfacet
facet normal 0.0 0.0 1.0
  outer loop
    vertex 0.0 0.2499999999999999 0.3125
    vertex 0.46875 0.5876202367904194 0.3125
    vertex 0.0 1.2500000000000036 0.3125
  endloop
endfacet
facet normal 0.0 0.0 1.0
  outer loop
    vertex 0.46875 0.5876202367904194 0.3125
    vertex 0.0 0.2499999999999999 0.3125
    vertex 1.125 0.2499999999999999 0.3125
  endloop
endfacet
facet normal 0.0 0.0 1.0
  outer loop
    vertex 0.0 1.2500000000000036 0.3125
    vertex 0.46875 0.5876202367904194 0.3125
    vertex 0.375 0.7500000000000017 0.3125
  endloop
endfacet
facet normal 0.0 0.0 1.0
  outer loop
    vertex 0.46875 0.5876202367904194 0.3125
    vertex 1.125 0.2499999999999999 0.3125
    vertex 0.5625 0.5876202367904194 0.3125
  endloop
endfacet
facet normal 0.0 0.0 1.0
  outer loop
    vertex 0.5625 0.5876202367904194 0.3125
    vertex 1.125 0.2499999999999999 0.3125
    vertex 0.65625 0.5876202367904194 0.3125
  endloop
endfacet
facet normal 0.0 0.0 1.0
  outer loop
    vertex 0.65625 0.5876202367904194 0.3125
    vertex 1.125 0.2499999999999999 0.3125
    vertex 0.75 0.7500000000000017 0.3125
  endloop
endfacet
facet normal 0.0 0.0 1.0
  outer loop
    vertex 0.0 1.2500000000000036 0.3125
    vertex 0.46875 0.9123797632095839 0.3125
    vertex 1.125 1.2500000000000036 0.3125
  endloop
endfacet
facet normal 0.0 0.0 1.0
  outer loop
    vertex 0.46875 0.9123797632095839 0.3125
    vertex 0.0 1.2500000000000036 0.3125
    vertex 0.375 0.7500000000000017 0.3125
  endloop
endfacet
facet normal 0.0 0.0 1.0
  outer loop
    vertex 1.125 1.2500000000000036 0.3125
    vertex 0.46875 0.9123797632095839 0.3125
    vertex 0.5625 0.9123797632095839 0.3125
  endloop
endfacet
facet normal 0.0 0.0 1.0
  outer loop
    vertex 1.125 1.2500000000000036 0.3125
    vertex 0.5625 0.9123797632095839 0.3125
    vertex 0.65625 0.9123797632095839 0.3125
  endloop
endfacet
facet normal 0.0 0.0 1.0
  outer loop
    vertex 1.125 1.2500000000000036 0.3125
    vertex 0.65625 0.9123797632095839 0.3125
    vertex 0.75 0.7500000000000017 0.3125
  endloop
endfacet
facet normal 0.0 0.0 1.0
  outer loop
    vertex 1.125 1.2500000000000036 0.3125
    vertex 0.75 0.7500000000000017 0.3125
    vertex 1.125 0.2499999999999999 0.3125
  endloop
endfacet
facet normal 0.0 0.0 -1.0
  outer loop
    vertex 0.0 1.5000000000000036 0.0
    vertex 0.46132956400327885 0.8234135061159175 0.0
    vertex 0.0 0.0 0.0
  endloop
endfacet
facet normal 0.0 0.0 -1.0
  outer loop
    vertex 0.46132956400327885 0.8234135061159175 0.0
    vertex 0.0 1.5000000000000036 0.0
    vertex 0.48377767656438664 0.8470968371930744 0.0
  endloop
endfacet
facet normal 0.0 0.0 -1.0
  outer loop
    vertex 0.48377767656438664 0.8470968371930744 0.0
    vertex 0.0 1.5000000000000036 0.0
    vertex 1.125 1.5000000000000036 0.0
  endloop
endfacet
facet normal 0.0 0.0 -1.0
  outer loop
    vertex 0.0 0.0 0.0
    vertex 0.46132956400327885 0.8234135061159175 0.0
    vertex 0.44577604946329075 0.7947271659185161 0.0
  endloop
endfacet
facet normal 0.0 0.0 -1.0
  outer loop
    vertex 0.0 0.0 0.0
    vertex 0.44577604946329075 0.7947271659185161 0.0
    vertex 0.4381770792569313 0.7629927432789055 0.0
  endloop
endfacet
facet normal 0.0 0.0 -1.0
  outer loop
    vertex 0.48377767656438664 0.8470968371930744 0.0
    vertex 1.125 1.5000000000000036 0.0
    vertex 0.5005124868953033 0.8573655221321806 0.0
  endloop
endfacet
facet normal 0.0 0.0 -1.0
  outer loop
    vertex 0.5005124868953033 0.8573655221321806 0.0
    vertex 1.125 1.5000000000000036 0.0
    vertex 0.5115905853728435 0.8641631792756338 0.0
  endloop
endfacet
facet normal 0.0 0.0 -1.0
  outer loop
    vertex 0.5115905853728435 0.8641631792756338 0.0
    vertex 1.125 1.5000000000000036 0.0
    vertex 0.5428728866563688 0.8734494893541312 0.0
  endloop
endfacet
facet normal 0.0 0.0 -1.0
  outer loop
    vertex 0.5428728866563688 0.8734494893541312 0.0
    vertex 1.125 1.5000000000000036 0.0
    vertex 0.5754927432789145 0.8743229207430739 0.0
  endloop
endfacet
facet normal 0.0 0.0 -1.0
  outer loop
    vertex 0.5754927432789145 0.8743229207430739 0.0
    vertex 1.125 1.5000000000000036 0.0
    vertex 0.6072271659185162 0.8667239505367162 0.0
  endloop
endfacet
facet normal 0.0 0.0 -1.0
  outer loop
    vertex 0.6072271659185162 0.8667239505367162 0.0
    vertex 1.125 1.5000000000000036 0.0
    vertex 0.6244875131046967 0.8573655221321806 0.0
  endloop
endfacet
facet normal 0.0 0.0 -1.0
  outer loop
    vertex 0.6244875131046967 0.8573655221321806 0.0
    vertex 1.125 1.5000000000000036 0.0
    vertex 0.6359135061159122 0.8511704359967299 0.0
  endloop
endfacet
facet normal 0.0 0.0 -1.0
  outer loop
    vertex 0.6359135061159122 0.8511704359967299 0.0
    vertex 1.125 1.5000000000000036 0.0
    vertex 0.659596837193078 0.8287223234356168 0.0
  endloop
endfacet
facet normal 0.0 0.0 -1.0
  outer loop
    vertex 0.659596837193078 0.8287223234356168 0.0
    vertex 1.125 1.5000000000000036 0.0
    vertex 0.6766631792756357 0.8009094146271581 0.0
  endloop
endfacet
facet normal 0.0 0.0 -1.0
  outer loop
    vertex 0.6766631792756357 0.8009094146271581 0.0
    vertex 1.125 1.5000000000000036 0.0
    vertex 0.6859494893541296 0.7696271133436435 0.0
  endloop
endfacet
facet normal 0.0 0.0 -1.0
  outer loop
    vertex 0.6859494893541296 0.7696271133436435 0.0
    vertex 1.125 1.5000000000000036 0.0
    vertex 0.6864750262093935 0.7500000000000017 0.0
  endloop
endfacet
facet normal 0.0 0.0 -1.0
  outer loop
    vertex 0.6864750262093935 0.7500000000000017 0.0
    vertex 1.125 1.5000000000000036 0.0
    vertex 0.6868229207430829 0.7370072567210978 0.0
  endloop
endfacet
facet normal 0.0 0.0 -1.0
  outer loop
    vertex 0.0 0.0 0.0
    vertex 0.46540316280693617 0.6712776765643865 0.0
    vertex 1.125 0.0 0.0
  endloop
endfacet
facet normal 0.0 0.0 -1.0
  outer loop
    vertex 0.46540316280693617 0.6712776765643865 0.0
    vertex 0.0 0.0 0.0
    vertex 0.4483368207243643 0.6990905853728452 0.0
  endloop
endfacet
facet normal 0.0 0.0 -1.0
  outer loop
    vertex 0.4483368207243643 0.6990905853728452 0.0
    vertex 0.0 0.0 0.0
    vertex 0.4390505106458704 0.7303728866563598 0.0
  endloop
endfacet
facet normal 0.0 0.0 -1.0
  outer loop
    vertex 0.4390505106458704 0.7303728866563598 0.0
    vertex 0.0 0.0 0.0
    vertex 0.4381770792569313 0.7629927432789055 0.0
  endloop
endfacet
facet normal 0.0 0.0 -1.0
  outer loop
    vertex 0.4390505106458704 0.7303728866563598 0.0
    vertex 0.4381770792569313 0.7629927432789055 0.0
    vertex 0.4385249737906065 0.7500000000000017 0.0
  endloop
endfacet
facet normal 0.0 0.0 -1.0
  outer loop
    vertex 1.125 0.0 0.0
    vertex 0.46540316280693617 0.6712776765643865 0.0
    vertex 0.48908649388408776 0.6488295640032734 0.0
  endloop
endfacet
facet normal 0.0 0.0 -1.0
  outer loop
    vertex 1.125 0.0 0.0
    vertex 0.48908649388408776 0.6488295640032734 0.0
    vertex 0.5005124868953033 0.6426344778678227 0.0
  endloop
endfacet
facet normal 0.0 0.0 -1.0
  outer loop
    vertex 1.125 0.0 0.0
    vertex 0.5005124868953033 0.6426344778678227 0.0
    vertex 0.5177728340814838 0.6332760494632871 0.0
  endloop
endfacet
facet normal 0.0 0.0 -1.0
  outer loop
    vertex 1.125 0.0 0.0
    vertex 0.5177728340814838 0.6332760494632871 0.0
    vertex 0.5495072567210997 0.6256770792569294 0.0
  endloop
endfacet
facet normal 0.0 0.0 -1.0
  outer loop
    vertex 1.125 0.0 0.0
    vertex 0.5495072567210997 0.6256770792569294 0.0
    vertex 0.5821271133436454 0.6265505106458721 0.0
  endloop
endfacet
facet normal 0.0 0.0 -1.0
  outer loop
    vertex 1.125 0.0 0.0
    vertex 0.5821271133436454 0.6265505106458721 0.0
    vertex 0.6134094146271565 0.6358368207243695 0.0
  endloop
endfacet
facet normal 0.0 0.0 -1.0
  outer loop
    vertex 1.125 0.0 0.0
    vertex 0.6134094146271565 0.6358368207243695 0.0
    vertex 0.6244875131046967 0.6426344778678227 0.0
  endloop
endfacet
facet normal 0.0 0.0 -1.0
  outer loop
    vertex 1.125 0.0 0.0
    vertex 0.6244875131046967 0.6426344778678227 0.0
    vertex 0.6412223234356134 0.652903162806929 0.0
  endloop
endfacet
facet normal 0.0 0.0 -1.0
  outer loop
    vertex 1.125 0.0 0.0
    vertex 0.6412223234356134 0.652903162806929 0.0
    vertex 0.6636704359967354 0.6765864938840859 0.0
  endloop
endfacet
facet normal 0.0 0.0 -1.0
  outer loop
    vertex 1.125 0.0 0.0
    vertex 0.6636704359967354 0.6765864938840859 0.0
    vertex 0.6792239505367093 0.7052728340814872 0.0
  endloop
endfacet
facet normal 0.0 0.0 -1.0
  outer loop
    vertex 1.125 0.0 0.0
    vertex 0.6792239505367093 0.7052728340814872 0.0
    vertex 0.6868229207430829 0.7370072567210978 0.0
  endloop
endfacet
facet normal 0.0 0.0 -1.0
  outer loop
    vertex 1.125 0.0 0.0
    vertex 0.6868229207430829 0.7370072567210978 0.0
    vertex 1.125 1.5000000000000036 0.0
  endloop
endfacet
facet normal -0.8660254037844388 -0.5000000000000001 -0.0
  outer loop
    vertex 0.65625 0.9123797632095839 0.3125
    vertex 0.75 0.7500000000000017 0.1875
    vertex 0.75 0.7500000000000017 0.3125
  endloop
endfacet
facet normal -0.8660254037844388 -0.5000000000000001 -0.0
  outer loop
    vertex 0.75 0.7500000000000017 0.1875
    vertex 0.65625 0.9123797632095839 0.3125
    vertex 0.65625 0.9123797632095839 0.1875
  endloop
endfacet
facet normal -0.9996417138271312 -0.026766471130053905 -0.0
  outer loop
    vertex 0.6859494893541296 0.7696271133436435 0.1875
    vertex 0.6864750262093935 0.7500000000000017 0.0
    vertex 0.6864750262093935 0.7500000000000017 0.1875
  endloop
endfacet
facet normal -0.9996417138271312 -0.026766471130053905 -0.0
  outer loop
    vertex 0.6864750262093935 0.7500000000000017 0.0
    vertex 0.6859494893541296 0.7696271133436435 0.1875
    vertex 0.6859494893541296 0.7696271133436435 0.0
  endloop
endfacet
facet normal 0.026766471130006075 -0.9996417138271326 0.0
  outer loop
    vertex 0.5754927432789145 0.8743229207430739 0.1875
    vertex 0.5428728866563688 0.8734494893541312 0.0
    vertex 0.5754927432789145 0.8743229207430739 0.0
  endloop
endfacet
facet normal 0.026766471130006075 -0.9996417138271326 0.0
  outer loop
    vertex 0.5428728866563688 0.8734494893541312 0.0
    vertex 0.5754927432789145 0.8743229207430739 0.1875
    vertex 0.5428728866563688 0.8734494893541312 0.1875
  endloop
endfacet
facet normal -0.0 -1.0 -0.0
  outer loop
    vertex 1.125 0.0 1.5624999999999991
    vertex 0.0 0.0 0.0
    vertex 1.125 0.0 0.0
  endloop
endfacet
facet normal -0.0 -1.0 -0.0
  outer loop
    vertex 0.0 0.0 0.0
    vertex 1.125 0.0 1.5624999999999991
    vertex 0.0 0.0 1.5624999999999991
  endloop
endfacet
facet normal 0.0 -1.0 0.0
  outer loop
    vertex 1.125 1.2500000000000036 1.3124999999999991
    vertex 0.0 1.2500000000000036 0.3125
    vertex 1.125 1.2500000000000036 0.3125
  endloop
endfacet
facet normal 0.0 -1.0 0.0
  outer loop
    vertex 0.0 1.2500000000000036 0.3125
    vertex 1.125 1.2500000000000036 1.3124999999999991
    vertex 0.0 1.2500000000000036 1.3124999999999991
  endloop
endfacet
facet normal -0.23287188807428655 -0.972507420920127 -0.0
  outer loop
    vertex 0.6072271659185162 0.8667239505367162 0.1875
    vertex 0.5754927432789145 0.8743229207430739 0.0
    vertex 0.6072271659185162 0.8667239505367162 0.0
  endloop
endfacet
facet normal -0.23287188807428655 -0.972507420920127 -0.0
  outer loop
    vertex 0.5754927432789145 0.8743229207430739 0.0
    vertex 0.6072271659185162 0.8667239505367162 0.1875
    vertex 0.5754927432789145 0.8743229207430739 0.1875
  endloop
endfacet
facet normal 0.6879266813596698 0.7257801878485465 0.0
  outer loop
    vertex 0.46540316280693617 0.6712776765643865 0.1875
    vertex 0.48908649388408776 0.6488295640032734 0.0
    vertex 0.46540316280693617 0.6712776765643865 0.0
  endloop
endfacet
facet normal 0.6879266813596698 0.7257801878485465 0.0
  outer loop
    vertex 0.48908649388408776 0.6488295640032734 0.0
    vertex 0.46540316280693617 0.6712776765643865 0.1875
    vertex 0.48908649388408776 0.6488295640032734 0.1875
  endloop
endfacet
facet normal 0.9996417138271328 0.02676647112999471 0.0
  outer loop
    vertex 0.4381770792569313 0.7629927432789055 0.0
    vertex 0.4385249737906065 0.7500000000000017 0.1875
    vertex 0.4385249737906065 0.7500000000000017 0.0
  endloop
endfacet
facet normal 0.9996417138271328 0.02676647112999471 0.0
  outer loop
    vertex 0.4385249737906065 0.7500000000000017 0.1875
    vertex 0.4381770792569313 0.7629927432789055 0.0
    vertex 0.4381770792569313 0.7629927432789055 0.1875
  endloop
endfacet
facet normal 0.23287188807428655 0.972507420920127 0.0
  outer loop
    vertex 0.5177728340814838 0.6332760494632871 0.1875
    vertex 0.5495072567210997 0.6256770792569294 0.0
    vertex 0.5177728340814838 0.6332760494632871 0.0
  endloop
endfacet
facet normal 0.23287188807428655 0.972507420920127 0.0
  outer loop
    vertex 0.5495072567210997 0.6256770792569294 0.0
    vertex 0.5177728340814838 0.6332760494632871 0.1875
    vertex 0.5495072567210997 0.6256770792569294 0.1875
  endloop
endfacet
facet normal 0.0 1.0 0.0
  outer loop
    vertex 0.0 1.5000000000000036 1.5624999999999991
    vertex 1.125 1.5000000000000036 0.0
    vertex 0.0 1.5000000000000036 0.0
  endloop
endfacet
facet normal 0.0 1.0 0.0
  outer loop
    vertex 1.125 1.5000000000000036 0.0
    vertex 0.0 1.5000000000000036 1.5624999999999991
    vertex 1.125 1.5000000000000036 1.5624999999999991
  endloop
endfacet
facet normal -0.9586520759228723 -0.28458073956044144 -0.0
  outer loop
    vertex 0.6766631792756357 0.8009094146271581 0.1875
    vertex 0.6859494893541296 0.7696271133436435 0.0
    vertex 0.6859494893541296 0.7696271133436435 0.1875
  endloop
endfacet
facet normal -0.9586520759228723 -0.28458073956044144 -0.0
  outer loop
    vertex 0.6859494893541296 0.7696271133436435 0.0
    vertex 0.6766631792756357 0.8009094146271581 0.1875
    vertex 0.6766631792756357 0.8009094146271581 0.0
  endloop
endfacet
facet normal 0.0 -1.0 0.0
  outer loop
    vertex 0.65625 0.9123797632095839 0.3125
    vertex 0.46875 0.9123797632095839 0.1875
    vertex 0.65625 0.9123797632095839 0.1875
  endloop
endfacet
facet normal 0.0 -1.0 0.0
  outer loop
    vertex 0.46875 0.9123797632095839 0.1875
    vertex 0.65625 0.9123797632095839 0.3125
    vertex 0.46875 0.9123797632095839 0.3125
  endloop
endfacet
facet normal 0.0 -1.0 0.0
  outer loop
    vertex 0.46875 0.9123797632095839 0.3125
    vertex 0.65625 0.9123797632095839 0.3125
    vertex 0.5625 0.9123797632095839 0.3125
  endloop
endfacet
facet normal 0.9586520759228723 0.28458073956044144 0.0
  outer loop
    vertex 0.4390505106458704 0.7303728866563598 0.0
    vertex 0.4483368207243643 0.6990905853728452 0.1875
    vertex 0.4483368207243643 0.6990905853728452 0.0
  endloop
endfacet
facet normal 0.9586520759228723 0.28458073956044144 0.0
  outer loop
    vertex 0.4483368207243643 0.6990905853728452 0.1875
    vertex 0.4390505106458704 0.7303728866563598 0.0
    vertex 0.4390505106458704 0.7303728866563598 0.1875
  endloop
endfacet
facet normal -0.4766404129453965 -0.8790983544218713 -0.0
  outer loop
    vertex 0.6359135061159122 0.8511704359967299 0.1875
    vertex 0.6244875131046967 0.8573655221321806 0.0
    vertex 0.6359135061159122 0.8511704359967299 0.0
  endloop
endfacet
facet normal -0.4766404129453965 -0.8790983544218713 -0.0
  outer loop
    vertex 0.6244875131046967 0.8573655221321806 0.0
    vertex 0.6359135061159122 0.8511704359967299 0.1875
    vertex 0.6244875131046967 0.8573655221321806 0.1875
  endloop
endfacet
facet normal -0.026766471130006075 0.9996417138271326 0.0
  outer loop
    vertex 0.5495072567210997 0.6256770792569294 0.1875
    vertex 0.5821271133436454 0.6265505106458721 0.0
    vertex 0.5495072567210997 0.6256770792569294 0.0
  endloop
endfacet
facet normal -0.026766471130006075 0.9996417138271326 0.0
  outer loop
    vertex 0.5821271133436454 0.6265505106458721 0.0
    vertex 0.5495072567210997 0.6256770792569294 0.1875
    vertex 0.5821271133436454 0.6265505106458721 0.1875
  endloop
endfacet
facet normal 0.4766404129453965 0.8790983544218713 0.0
  outer loop
    vertex 0.48908649388408776 0.6488295640032734 0.1875
    vertex 0.5005124868953033 0.6426344778678227 0.0
    vertex 0.48908649388408776 0.6488295640032734 0.0
  endloop
endfacet
facet normal 0.4766404129453965 0.8790983544218713 0.0
  outer loop
    vertex 0.5005124868953033 0.6426344778678227 0.0
    vertex 0.48908649388408776 0.6488295640032734 0.1875
    vertex 0.5005124868953033 0.6426344778678227 0.1875
  endloop
endfacet
facet normal -0.5230013008817394 0.8523318832919538 0.0
  outer loop
    vertex 0.6134094146271565 0.6358368207243695 0.1875
    vertex 0.6244875131046967 0.6426344778678227 0.0
    vertex 0.6134094146271565 0.6358368207243695 0.0
  endloop
endfacet
facet normal -0.5230013008817394 0.8523318832919538 0.0
  outer loop
    vertex 0.6244875131046967 0.6426344778678227 0.0
    vertex 0.6134094146271565 0.6358368207243695 0.1875
    vertex 0.6244875131046967 0.6426344778678227 0.1875
  endloop
endfacet
facet normal -0.2845807395604771 0.9586520759228616 0.0
  outer loop
    vertex 0.5821271133436454 0.6265505106458721 0.1875
    vertex 0.6134094146271565 0.6358368207243695 0.0
    vertex 0.5821271133436454 0.6265505106458721 0.0
  endloop
endfacet
facet normal -0.2845807395604771 0.9586520759228616 0.0
  outer loop
    vertex 0.6134094146271565 0.6358368207243695 0.0
    vertex 0.5821271133436454 0.6265505106458721 0.1875
    vertex 0.6134094146271565 0.6358368207243695 0.1875
  endloop
endfacet
facet normal 0.5230013008817362 -0.8523318832919556 0.0
  outer loop
    vertex 0.5115905853728435 0.8641631792756338 0.1875
    vertex 0.5005124868953033 0.8573655221321806 0.0
    vertex 0.5115905853728435 0.8641631792756338 0.0
  endloop
endfacet
facet normal 0.5230013008817362 -0.8523318832919556 0.0
  outer loop
    vertex 0.5005124868953033 0.8573655221321806 0.0
    vertex 0.5115905853728435 0.8641631792756338 0.1875
    vertex 0.5005124868953033 0.8573655221321806 0.1875
  endloop
endfacet
facet normal 0.852331883291878 0.5230013008818626 0.0
  outer loop
    vertex 0.4483368207243643 0.6990905853728452 0.0
    vertex 0.46540316280693617 0.6712776765643865 0.1875
    vertex 0.46540316280693617 0.6712776765643865 0.0
  endloop
endfacet
facet normal 0.852331883291878 0.5230013008818626 0.0
  outer loop
    vertex 0.46540316280693617 0.6712776765643865 0.1875
    vertex 0.4483368207243643 0.6990905853728452 0.0
    vertex 0.4483368207243643 0.6990905853728452 0.1875
  endloop
endfacet
facet normal 0.8790983544219346 -0.4766404129452797 0.0
  outer loop
    vertex 0.46132956400327885 0.8234135061159175 0.0
    vertex 0.44577604946329075 0.7947271659185161 0.1875
    vertex 0.44577604946329075 0.7947271659185161 0.0
  endloop
endfacet
facet normal 0.8790983544219346 -0.4766404129452797 0.0
  outer loop
    vertex 0.44577604946329075 0.7947271659185161 0.1875
    vertex 0.46132956400327885 0.8234135061159175 0.0
    vertex 0.46132956400327885 0.8234135061159175 0.1875
  endloop
endfacet
facet normal -0.9996417138271328 -0.02676647112999471 -0.0
  outer loop
    vertex 0.6864750262093935 0.7500000000000017 0.1875
    vertex 0.6868229207430829 0.7370072567210978 0.0
    vertex 0.6868229207430829 0.7370072567210978 0.1875
  endloop
endfacet
facet normal -0.9996417138271328 -0.02676647112999471 -0.0
  outer loop
    vertex 0.6868229207430829 0.7370072567210978 0.0
    vertex 0.6864750262093935 0.7500000000000017 0.1875
    vertex 0.6864750262093935 0.7500000000000017 0.0
  endloop
endfacet
facet normal -1.0 0.0 0.0
  outer loop
    vertex 0.0 0.0 1.5624999999999991
    vertex 0.0 0.2499999999999999 1.3124999999999991
    vertex 0.0 0.0 0.0
  endloop
endfacet
facet normal -1.0 0.0 0.0
  outer loop
    vertex 0.0 0.2499999999999999 1.3124999999999991
    vertex 0.0 0.0 1.5624999999999991
    vertex 0.0 1.5000000000000036 1.5624999999999991
  endloop
endfacet
facet normal -1.0 0.0 0.0
  outer loop
    vertex 0.0 0.2499999999999999 1.3124999999999991
    vertex 0.0 1.5000000000000036 1.5624999999999991
    vertex 0.0 1.2500000000000036 1.3124999999999991
  endloop
endfacet
facet normal -1.0 0.0 0.0
  outer loop
    vertex 0.0 1.2500000000000036 1.3124999999999991
    vertex 0.0 1.5000000000000036 1.5624999999999991
    vertex 0.0 1.2500000000000036 0.3125
  endloop
endfacet
facet normal -1.0 0.0 0.0
  outer loop
    vertex 0.0 0.0 0.0
    vertex 0.0 0.2499999999999999 0.3125
    vertex 0.0 1.5000000000000036 0.0
  endloop
endfacet
facet normal -1.0 0.0 0.0
  outer loop
    vertex 0.0 0.2499999999999999 0.3125
    vertex 0.0 0.0 0.0
    vertex 0.0 0.2499999999999999 1.3124999999999991
  endloop
endfacet
facet normal -1.0 0.0 0.0
  outer loop
    vertex 0.0 1.5000000000000036 0.0
    vertex 0.0 0.2499999999999999 0.3125
    vertex 0.0 1.2500000000000036 0.3125
  endloop
endfacet
facet normal -1.0 0.0 0.0
  outer loop
    vertex 0.0 1.5000000000000036 0.0
    vertex 0.0 1.2500000000000036 0.3125
    vertex 0.0 1.5000000000000036 1.5624999999999991
  endloop
endfacet
facet normal -0.6879266813596698 -0.7257801878485465 -0.0
  outer loop
    vertex 0.659596837193078 0.8287223234356168 0.1875
    vertex 0.6359135061159122 0.8511704359967299 0.0
    vertex 0.659596837193078 0.8287223234356168 0.0
  endloop
endfacet
facet normal -0.6879266813596698 -0.7257801878485465 -0.0
  outer loop
    vertex 0.6359135061159122 0.8511704359967299 0.0
    vertex 0.659596837193078 0.8287223234356168 0.1875
    vertex 0.6359135061159122 0.8511704359967299 0.1875
  endloop
endfacet
facet normal 0.0 1.0 0.0
  outer loop
    vertex 0.46875 0.5876202367904194 0.3125
    vertex 0.65625 0.5876202367904194 0.1875
    vertex 0.46875 0.5876202367904194 0.1875
  endloop
endfacet
facet normal 0.0 1.0 0.0
  outer loop
    vertex 0.65625 0.5876202367904194 0.1875
    vertex 0.46875 0.5876202367904194 0.3125
    vertex 0.65625 0.5876202367904194 0.3125
  endloop
endfacet
facet normal 0.0 1.0 0.0
  outer loop
    vertex 0.65625 0.5876202367904194 0.3125
    vertex 0.46875 0.5876202367904194 0.3125
    vertex 0.5625 0.5876202367904194 0.3125
  endloop
endfacet
facet normal 0.972507420920114 -0.232871888074341 0.0
  outer loop
    vertex 0.44577604946329075 0.7947271659185161 0.0
    vertex 0.4381770792569313 0.7629927432789055 0.1875
    vertex 0.4381770792569313 0.7629927432789055 0.0
  endloop
endfacet
facet normal 0.972507420920114 -0.232871888074341 0.0
  outer loop
    vertex 0.4381770792569313 0.7629927432789055 0.1875
    vertex 0.44577604946329075 0.7947271659185161 0.0
    vertex 0.44577604946329075 0.7947271659185161 0.1875
  endloop
endfacet
facet normal 0.0 0.0 -1.0
  outer loop
    vertex 1.125 1.2500000000000036 1.3124999999999991
    vertex 0.0 0.2499999999999999 1.3124999999999991
    vertex 0.0 1.2500000000000036 1.3124999999999991
  endloop
endfacet
facet normal 0.0 0.0 -1.0
  outer loop
    vertex 0.0 0.2499999999999999 1.3124999999999991
    vertex 1.125 1.2500000000000036 1.3124999999999991
    vertex 1.125 0.2499999999999999 1.3124999999999991
  endloop
endfacet
facet normal 1.0 0.0 0.0
  outer loop
    vertex 1.125 0.0 0.0
    vertex 1.125 0.2499999999999999 0.3125
    vertex 1.125 0.0 1.5624999999999991
  endloop
endfacet
facet normal 1.0 0.0 0.0
  outer loop
    vertex 1.125 0.2499999999999999 0.3125
    vertex 1.125 0.0 0.0
    vertex 1.125 1.5000000000000036 0.0
  endloop
endfacet
facet normal 1.0 0.0 0.0
  outer loop
    vertex 1.125 0.2499999999999999 0.3125
    vertex 1.125 1.5000000000000036 0.0
    vertex 1.125 1.2500000000000036 0.3125
  endloop
endfacet
facet normal 1.0 0.0 0.0
  outer loop
    vertex 1.125 1.2500000000000036 0.3125
    vertex 1.125 1.5000000000000036 0.0
    vertex 1.125 1.2500000000000036 1.3124999999999991
  endloop
endfacet
facet normal 1.0 0.0 0.0
  outer loop
    vertex 1.125 0.0 1.5624999999999991
    vertex 1.125 0.2499999999999999 1.3124999999999991
    vertex 1.125 1.5000000000000036 1.5624999999999991
  endloop
endfacet
facet normal 1.0 0.0 0.0
  outer loop
    vertex 1.125 0.2499999999999999 1.3124999999999991
    vertex 1.125 0.0 1.5624999999999991
    vertex 1.125 0.2499999999999999 0.3125
  endloop
endfacet
facet normal 1.0 0.0 0.0
  outer loop
    vertex 1.125 1.5000000000000036 1.5624999999999991
    vertex 1.125 0.2499999999999999 1.3124999999999991
    vertex 1.125 1.2500000000000036 1.3124999999999991
  endloop
endfacet
facet normal 1.0 0.0 0.0
  outer loop
    vertex 1.125 1.5000000000000036 1.5624999999999991
    vertex 1.125 1.2500000000000036 1.3124999999999991
    vertex 1.125 1.5000000000000036 0.0
  endloop
endfacet
facet normal 0.0 0.0 1.0
  outer loop
    vertex 1.125 0.0 1.5624999999999991
    vertex 0.0 1.5000000000000036 1.5624999999999991
    vertex 0.0 0.0 1.5624999999999991
  endloop
endfacet
facet normal 0.0 0.0 1.0
  outer loop
    vertex 0.0 1.5000000000000036 1.5624999999999991
    vertex 1.125 0.0 1.5624999999999991
    vertex 1.125 1.5000000000000036 1.5624999999999991
  endloop
endfacet
facet normal 0.5230013008818376 -0.8523318832918932 0.0
  outer loop
    vertex 0.5005124868953033 0.8573655221321806 0.1875
    vertex 0.48377767656438664 0.8470968371930744 0.0
    vertex 0.5005124868953033 0.8573655221321806 0.0
  endloop
endfacet
facet normal 0.5230013008818376 -0.8523318832918932 0.0
  outer loop
    vertex 0.48377767656438664 0.8470968371930744 0.0
    vertex 0.5005124868953033 0.8573655221321806 0.1875
    vertex 0.48377767656438664 0.8470968371930744 0.1875
  endloop
endfacet
endsolid gun_rig_3dp7
