solid gun_rig_3dp3
facet normal 0.0 -1.0 0.0
  outer loop
    vertex 2.123217514466198 1.1250000000000104 1.1239695885188488
    vertex 1.123217514466198 1.1250000000000104 0.125
    vertex 2.123217514466198 1.1250000000000104 0.125
  endloop
endfacet
facet normal 0.0 -1.0 0.0
  outer loop
    vertex 1.123217514466198 1.1250000000000104 0.125
    vertex 2.123217514466198 1.1250000000000104 1.1239695885188488
    vertex 1.123217514466198 1.1250000000000104 1.1239695885188488
  endloop
endfacet
facet normal 0.0 0.0 -1.0
  outer loop
    vertex 2.123217514466198 1.2500000000000104 0.0
    vertex 1.0 0.0 0.0
    vertex 1.0 1.2500000000000104 0.0
  endloop
endfacet
facet normal 0.0 0.0 -1.0
  outer loop
    vertex 1.0 0.0 0.0
    vertex 2.123217514466198 1.2500000000000104 0.0
    vertex 2.123217514466198 0.0 0.0
  endloop
endfacet
facet normal 0.0 -1.0 0.0
  outer loop
    vertex 1.123217514466198 1.0000000000000104 0.9989695885188488
    vertex 0.0 1.0000000000000104 0.25
    vertex 1.123217514466198 1.0000000000000104 0.25
  endloop
endfacet
facet normal 0.0 -1.0 0.0
  outer loop
    vertex 0.0 1.0000000000000104 0.25
    vertex 1.123217514466198 1.0000000000000104 0.9989695885188488
    vertex 0.0 1.0000000000000104 0.9989695885188488
  endloop
endfacet
facet normal 0.0 1.0 0.0
  outer loop
    vertex 0.0 0.25 0.9989695885188488
    vertex 1.123217514466198 0.25 0.25
    vertex 0.0 0.25 0.25
  endloop
endfacet
facet normal 0.0 1.0 0.0
  outer loop
    vertex 1.123217514466198 0.25 0.25
    vertex 0.0 0.25 0.9989695885188488
    vertex 1.123217514466198 0.25 0.9989695885188488
  endloop
endfacet
facet normal 0.0 -1.0 0.0
  outer loop
    vertex 2.123217514466198 0.0 1.2489695885188488
    vertex 1.0 0.0 0.0
    vertex 2.123217514466198 0.0 0.0
  endloop
endfacet
facet normal 0.0 -1.0 0.0
  outer loop
    vertex 1.0 0.0 0.0
    vertex 2.123217514466198 0.0 1.2489695885188488
    vertex 1.0 0.0 1.2489695885188488
  endloop
endfacet
facet normal 0.0 0.0 1.0
  outer loop
    vertex 1.123217514466198 0.25 0.25
    vertex 0.0 1.0000000000000104 0.25
    vertex 0.0 0.25 0.25
  endloop
endfacet
facet normal 0.0 0.0 1.0
  outer loop
    vertex 0.0 1.0000000000000104 0.25
    vertex 1.123217514466198 0.25 0.25
    vertex 1.123217514466198 1.0000000000000104 0.25
  endloop
endfacet
facet normal 0.0 0.0 1.0
  outer loop
    vertex 2.123217514466198 0.0 1.2489695885188488
    vertex 1.0 0.31250000000000266 1.2489695885188488
    vertex 1.0 0.0 1.2489695885188488
  endloop
endfacet
facet normal 0.0 0.0 1.0
  outer loop
    vertex 1.0 0.31250000000000266 1.2489695885188488
    vertex 2.123217514466198 0.0 1.2489695885188488
    vertex 2.123217514466198 0.31250000000000266 1.2489695885188488
  endloop
endfacet
facet normal 0.0 0.0 1.0
  outer loop
    vertex 2.123217514466198 0.125 0.125
    vertex 1.123217514466198 1.1250000000000104 0.125
    vertex 1.123217514466198 0.125 0.125
  endloop
endfacet
facet normal 0.0 0.0 1.0
  outer loop
    vertex 1.123217514466198 1.1250000000000104 0.125
    vertex 2.123217514466198 0.125 0.125
    vertex 2.123217514466198 1.1250000000000104 0.125
  endloop
endfacet
facet normal 0.0 1.0 0.0
  outer loop
    vertex 1.0 1.2500000000000104 1.2489695885188488
    vertex 2.123217514466198 1.2500000000000104 0.0
    vertex 1.0 1.2500000000000104 0.0
  endloop
endfacet
facet normal 0.0 1.0 0.0
  outer loop
    vertex 2.123217514466198 1.2500000000000104 0.0
    vertex 1.0 1.2500000000000104 1.2489695885188488
    vertex 2.123217514466198 1.2500000000000104 1.2489695885188488
  endloop
endfacet
facet normal 0.0 0.0 -1.0
  outer loop
    vertex 1.123217514466198 1.0000000000000104 0.9989695885188488
    vertex 0.0 0.25 0.9989695885188488
    vertex 0.0 1.0000000000000104 0.9989695885188488
  endloop
endfacet
facet normal 0.0 0.0 -1.0
  outer loop
    vertex 0.0 0.25 0.9989695885188488
    vertex 1.123217514466198 1.0000000000000104 0.9989695885188488
    vertex 1.123217514466198 0.25 0.9989695885188488
  endloop
endfacet
facet normal 0.0 1.0 0.0
  outer loop
    vertex 1.123217514466198 0.125 1.1239695885188488
    vertex 2.123217514466198 0.125 0.125
    vertex 1.123217514466198 0.125 0.125
  endloop
endfacet
facet normal 0.0 1.0 0.0
  outer loop
    vertex 2.123217514466198 0.125 0.125
    vertex 1.123217514466198 0.125 1.1239695885188488
    vertex 2.123217514466198 0.125 1.1239695885188488
  endloop
endfacet
facet normal 1.0 0.0 0.0
  outer loop
    vertex 1.123217514466198 0.125 0.125
    vertex 1.123217514466198 0.25 0.25
    vertex 1.123217514466198 0.125 1.1239695885188488
  endloop
endfacet
facet normal 1.0 0.0 0.0
  outer loop
    vertex 1.123217514466198 0.25 0.25
    vertex 1.123217514466198 0.125 0.125
    vertex 1.123217514466198 1.1250000000000104 0.125
  endloop
endfacet
facet normal 1.0 0.0 0.0
  outer loop
    vertex 1.123217514466198 0.25 0.25
    vertex 1.123217514466198 1.1250000000000104 0.125
    vertex 1.123217514466198 1.0000000000000104 0.25
  endloop
endfacet
facet normal 1.0 0.0 0.0
  outer loop
    vertex 1.123217514466198 1.0000000000000104 0.25
    vertex 1.123217514466198 1.1250000000000104 0.125
    vertex 1.123217514466198 1.0000000000000104 0.9989695885188488
  endloop
endfacet
facet normal 1.0 0.0 0.0
  outer loop
    vertex 1.123217514466198 0.125 1.1239695885188488
    vertex 1.123217514466198 0.25 0.9989695885188488
    vertex 1.123217514466198 1.1250000000000104 1.1239695885188488
  endloop
endfacet
facet normal 1.0 0.0 0.0
  outer loop
    vertex 1.123217514466198 0.25 0.9989695885188488
    vertex 1.123217514466198 0.125 1.1239695885188488
    vertex 1.123217514466198 0.25 0.25
  endloop
endfacet
facet normal 1.0 0.0 0.0
  outer loop
    vertex 1.123217514466198 1.1250000000000104 1.1239695885188488
    vertex 1.123217514466198 0.25 0.9989695885188488
    vertex 1.123217514466198 1.0000000000000104 0.9989695885188488
  endloop
endfacet
facet normal 1.0 0.0 0.0
  outer loop
    vertex 1.123217514466198 1.1250000000000104 1.1239695885188488
    vertex 1.123217514466198 1.0000000000000104 0.9989695885188488
    vertex 1.123217514466198 1.1250000000000104 0.125
  endloop
endfacet
facet normal 1.0 0.0 0.0
  outer loop
    vertex 2.123217514466198 0.0 0.0
    vertex 2.123217514466198 0.125 0.125
    vertex 2.123217514466198 0.0 1.2489695885188488
  endloop
endfacet
facet normal 1.0 0.0 0.0
  outer loop
    vertex 2.123217514466198 0.125 0.125
    vertex 2.123217514466198 0.0 0.0
    vertex 2.123217514466198 1.2500000000000104 0.0
  endloop
endfacet
facet normal 1.0 0.0 0.0
  outer loop
    vertex 2.123217514466198 0.125 0.125
    vertex 2.123217514466198 1.2500000000000104 0.0
    vertex 2.123217514466198 1.1250000000000104 0.125
  endloop
endfacet
facet normal 1.0 0.0 0.0
  outer loop
    vertex 2.123217514466198 1.1250000000000104 0.125
    vertex 2.123217514466198 1.2500000000000104 0.0
    vertex 2.123217514466198 1.1250000000000104 1.1239695885188488
  endloop
endfacet
facet normal 1.0 0.0 0.0
  outer loop
    vertex 2.123217514466198 0.0 1.2489695885188488
    vertex 2.123217514466198 0.125 1.1239695885188488
    vertex 2.123217514466198 0.31250000000000266 1.2489695885188488
  endloop
endfacet
facet normal 1.0 0.0 0.0
  outer loop
    vertex 2.123217514466198 0.125 1.1239695885188488
    vertex 2.123217514466198 0.0 1.2489695885188488
    vertex 2.123217514466198 0.125 0.125
  endloop
endfacet
facet normal 1.0 0.0 0.0
  outer loop
    vertex 2.123217514466198 0.31250000000000266 1.2489695885188488
    vertex 2.123217514466198 0.125 1.1239695885188488
    vertex 2.123217514466198 1.1250000000000104 1.1239695885188488
  endloop
endfacet
facet normal 1.0 0.0 0.0
  outer loop
    vertex 2.123217514466198 0.31250000000000266 1.2489695885188488
    vertex 2.123217514466198 1.1250000000000104 1.1239695885188488
    vertex 2.123217514466198 0.9375000000000078 1.2489695885188488
  endloop
endfacet
facet normal 1.0 0.0 0.0
  outer loop
    vertex 2.123217514466198 0.9375000000000078 1.2489695885188488
    vertex 2.123217514466198 1.1250000000000104 1.1239695885188488
    vertex 2.123217514466198 1.2500000000000104 1.2489695885188488
  endloop
endfacet
facet normal 1.0 0.0 0.0
  outer loop
    vertex 2.123217514466198 1.2500000000000104 1.2489695885188488
    vertex 2.123217514466198 1.1250000000000104 1.1239695885188488
    vertex 2.123217514466198 1.2500000000000104 0.0
  endloop
endfacet
facet normal 0.0 0.0 -1.0
  outer loop
    vertex 1.123217514466198 1.1250000000000104 1.1239695885188488
    vertex 1.529467514466198 0.7873797632095874 1.1239695885188488
    vertex 1.123217514466198 0.125 1.1239695885188488
  endloop
endfacet
facet normal 0.0 0.0 -1.0
  outer loop
    vertex 1.529467514466198 0.7873797632095874 1.1239695885188488
    vertex 1.123217514466198 1.1250000000000104 1.1239695885188488
    vertex 2.123217514466198 1.1250000000000104 1.1239695885188488
  endloop
endfacet
facet normal 0.0 0.0 -1.0
  outer loop
    vertex 1.123217514466198 0.125 1.1239695885188488
    vertex 1.529467514466198 0.7873797632095874 1.1239695885188488
    vertex 1.435717514466198 0.6250000000000051 1.1239695885188488
  endloop
endfacet
facet normal 0.0 0.0 -1.0
  outer loop
    vertex 1.529467514466198 0.7873797632095874 1.1239695885188488
    vertex 2.123217514466198 1.1250000000000104 1.1239695885188488
    vertex 1.716967514466198 0.7873797632095874 1.1239695885188488
  endloop
endfacet
facet normal 0.0 0.0 -1.0
  outer loop
    vertex 1.716967514466198 0.7873797632095874 1.1239695885188488
    vertex 2.123217514466198 1.1250000000000104 1.1239695885188488
    vertex 1.810717514466198 0.6250000000000051 1.1239695885188488
  endloop
endfacet
facet normal 0.0 0.0 -1.0
  outer loop
    vertex 1.123217514466198 0.125 1.1239695885188488
    vertex 1.529467514466198 0.46262023679042286 1.1239695885188488
    vertex 2.123217514466198 0.125 1.1239695885188488
  endloop
endfacet
facet normal 0.0 0.0 -1.0
  outer loop
    vertex 1.529467514466198 0.46262023679042286 1.1239695885188488
    vertex 1.123217514466198 0.125 1.1239695885188488
    vertex 1.435717514466198 0.6250000000000051 1.1239695885188488
  endloop
endfacet
facet normal 0.0 0.0 -1.0
  outer loop
    vertex 2.123217514466198 0.125 1.1239695885188488
    vertex 1.529467514466198 0.46262023679042286 1.1239695885188488
    vertex 1.716967514466198 0.46262023679042286 1.1239695885188488
  endloop
endfacet
facet normal 0.0 0.0 -1.0
  outer loop
    vertex 2.123217514466198 0.125 1.1239695885188488
    vertex 1.716967514466198 0.46262023679042286 1.1239695885188488
    vertex 1.810717514466198 0.6250000000000051 1.1239695885188488
  endloop
endfacet
facet normal 0.0 0.0 -1.0
  outer loop
    vertex 2.123217514466198 0.125 1.1239695885188488
    vertex 1.810717514466198 0.6250000000000051 1.1239695885188488
    vertex 2.123217514466198 1.1250000000000104 1.1239695885188488
  endloop
endfacet
facet normal -1.0 0.0 0.0
  outer loop
    vertex 0.0 0.125 1.1239695885188488
    vertex 0.0 0.25 0.9989695885188488
    vertex 0.0 0.125 0.125
  endloop
endfacet
facet normal -1.0 0.0 0.0
  outer loop
    vertex 0.0 0.25 0.9989695885188488
    vertex 0.0 0.125 1.1239695885188488
    vertex 0.0 0.37500000000000266 1.1239695885188488
  endloop
endfacet
facet normal -1.0 0.0 0.0
  outer loop
    vertex 0.0 0.25 0.9989695885188488
    vertex 0.0 0.37500000000000266 1.1239695885188488
    vertex 0.0 1.0000000000000104 0.9989695885188488
  endloop
endfacet
facet normal -1.0 0.0 0.0
  outer loop
    vertex 0.0 1.0000000000000104 0.9989695885188488
    vertex 0.0 0.37500000000000266 1.1239695885188488
    vertex 0.0 0.8750000000000078 1.1239695885188488
  endloop
endfacet
facet normal -1.0 0.0 0.0
  outer loop
    vertex 0.0 1.0000000000000104 0.9989695885188488
    vertex 0.0 0.8750000000000078 1.1239695885188488
    vertex 0.0 1.1250000000000104 1.1239695885188488
  endloop
endfacet
facet normal -1.0 0.0 0.0
  outer loop
    vertex 0.0 1.0000000000000104 0.9989695885188488
    vertex 0.0 1.1250000000000104 1.1239695885188488
    vertex 0.0 1.0000000000000104 0.25
  endloop
endfacet
facet normal -1.0 0.0 0.0
  outer loop
    vertex 0.0 0.125 0.125
    vertex 0.0 0.25 0.25
    vertex 0.0 1.1250000000000104 0.125
  endloop
endfacet
facet normal -1.0 0.0 0.0
  outer loop
    vertex 0.0 0.25 0.25
    vertex 0.0 0.125 0.125
    vertex 0.0 0.25 0.9989695885188488
  endloop
endfacet
facet normal -1.0 0.0 0.0
  outer loop
    vertex 0.0 1.1250000000000104 0.125
    vertex 0.0 0.25 0.25
    vertex 0.0 1.0000000000000104 0.25
  endloop
endfacet
facet normal -1.0 0.0 0.0
  outer loop
    vertex 0.0 1.1250000000000104 0.125
    vertex 0.0 1.0000000000000104 0.25
    vertex 0.0 1.1250000000000104 1.1239695885188488
  endloop
endfacet
facet normal -0.12411697066426582 0.00023908026915177172 0.9922675649409038
  outer loop
    vertex 0.998217514466198 0.9375000000000078 1.2489695885188488
    vertex 0.0 1.1250000000000104 1.1239695885188488
    vertex 0.0 0.8750000000000078 1.1239695885188488
  endloop
endfacet
facet normal -0.12411697066426582 0.00023908026915177172 0.9922675649409038
  outer loop
    vertex 0.0 1.1250000000000104 1.1239695885188488
    vertex 0.998217514466198 0.9375000000000078 1.2489695885188488
    vertex 1.0 1.2500000000000104 1.2489695885188488
  endloop
endfacet
facet normal -0.12411697066426582 0.00023908026915177172 0.9922675649409038
  outer loop
    vertex 1.0 1.2500000000000104 1.2489695885188488
    vertex 0.998217514466198 0.9375000000000078 1.2489695885188488
    vertex 1.0 0.9375000000000078 1.2489695885188488
  endloop
endfacet
facet normal -0.12403473458920847 0.0 -0.9922778767136677
  outer loop
    vertex 1.0 1.2500000000000104 0.0
    vertex 0.0 0.125 0.125
    vertex 0.0 1.1250000000000104 0.125
  endloop
endfacet
facet normal -0.12403473458920847 0.0 -0.9922778767136677
  outer loop
    vertex 0.0 0.125 0.125
    vertex 1.0 1.2500000000000104 0.0
    vertex 1.0 0.0 0.0
  endloop
endfacet
facet normal -0.12403473458920847 0.9922778767136677 0.0
  outer loop
    vertex 0.0 1.1250000000000104 0.125
    vertex 1.0 1.2500000000000104 1.2489695885188488
    vertex 1.0 1.2500000000000104 0.0
  endloop
endfacet
facet normal -0.12403473458920847 0.9922778767136677 0.0
  outer loop
    vertex 1.0 1.2500000000000104 1.2489695885188488
    vertex 0.0 1.1250000000000104 0.125
    vertex 0.0 1.1250000000000104 1.1239695885188488
  endloop
endfacet
facet normal 0.0 0.0 -1.0
  outer loop
    vertex 1.435717514466198 0.6250000000000051 1.3114695885188488
    vertex 1.5024767861800612 0.6573523806378201 1.3114695885188488
    vertex 1.498217514466198 0.6250000000000051 1.3114695885188488
  endloop
endfacet
facet normal 0.0 0.0 -1.0
  outer loop
    vertex 1.5024767861800612 0.6573523806378201 1.3114695885188488
    vertex 1.435717514466198 0.6250000000000051 1.3114695885188488
    vertex 1.529467514466198 0.7873797632095874 1.3114695885188488
  endloop
endfacet
facet normal 0.0 0.0 -1.0
  outer loop
    vertex 1.5024767861800612 0.6573523806378201 1.3114695885188488
    vertex 1.529467514466198 0.7873797632095874 1.3114695885188488
    vertex 1.5149643389931455 0.6875000000000051 1.3114695885188488
  endloop
endfacet
facet normal 0.0 0.0 -1.0
  outer loop
    vertex 1.5149643389931455 0.6875000000000051 1.3114695885188488
    vertex 1.529467514466198 0.7873797632095874 1.3114695885188488
    vertex 1.5348291668178788 0.7133883476483234 1.3114695885188488
  endloop
endfacet
facet normal 0.0 0.0 -1.0
  outer loop
    vertex 1.5348291668178788 0.7133883476483234 1.3114695885188488
    vertex 1.529467514466198 0.7873797632095874 1.3114695885188488
    vertex 1.560717514466198 0.7332531754730602 1.3114695885188488
  endloop
endfacet
facet normal 0.0 0.0 -1.0
  outer loop
    vertex 1.560717514466198 0.7332531754730602 1.3114695885188488
    vertex 1.529467514466198 0.7873797632095874 1.3114695885188488
    vertex 1.5908651338283804 0.7457407282861392 1.3114695885188488
  endloop
endfacet
facet normal 0.0 0.0 -1.0
  outer loop
    vertex 1.5908651338283804 0.7457407282861392 1.3114695885188488
    vertex 1.529467514466198 0.7873797632095874 1.3114695885188488
    vertex 1.716967514466198 0.7873797632095874 1.3114695885188488
  endloop
endfacet
facet normal 0.0 0.0 -1.0
  outer loop
    vertex 1.5908651338283804 0.7457407282861392 1.3114695885188488
    vertex 1.716967514466198 0.7873797632095874 1.3114695885188488
    vertex 1.623217514466198 0.7500000000000051 1.3114695885188488
  endloop
endfacet
facet normal 0.0 0.0 -1.0
  outer loop
    vertex 1.623217514466198 0.7500000000000051 1.3114695885188488
    vertex 1.716967514466198 0.7873797632095874 1.3114695885188488
    vertex 1.6555698951040156 0.7457407282861392 1.3114695885188488
  endloop
endfacet
facet normal 0.0 0.0 -1.0
  outer loop
    vertex 1.6555698951040156 0.7457407282861392 1.3114695885188488
    vertex 1.716967514466198 0.7873797632095874 1.3114695885188488
    vertex 1.685717514466198 0.7332531754730602 1.3114695885188488
  endloop
endfacet
facet normal 0.0 0.0 -1.0
  outer loop
    vertex 1.685717514466198 0.7332531754730602 1.3114695885188488
    vertex 1.716967514466198 0.7873797632095874 1.3114695885188488
    vertex 1.7116058621145172 0.7133883476483234 1.3114695885188488
  endloop
endfacet
facet normal 0.0 0.0 -1.0
  outer loop
    vertex 1.7116058621145172 0.7133883476483234 1.3114695885188488
    vertex 1.716967514466198 0.7873797632095874 1.3114695885188488
    vertex 1.7314706899392505 0.6875000000000051 1.3114695885188488
  endloop
endfacet
facet normal 0.0 0.0 -1.0
  outer loop
    vertex 1.7314706899392505 0.6875000000000051 1.3114695885188488
    vertex 1.716967514466198 0.7873797632095874 1.3114695885188488
    vertex 1.810717514466198 0.6250000000000051 1.3114695885188488
  endloop
endfacet
facet normal 0.0 0.0 -1.0
  outer loop
    vertex 1.7314706899392505 0.6875000000000051 1.3114695885188488
    vertex 1.810717514466198 0.6250000000000051 1.3114695885188488
    vertex 1.7439582427523348 0.6573523806378201 1.3114695885188488
  endloop
endfacet
facet normal 0.0 0.0 -1.0
  outer loop
    vertex 1.7439582427523348 0.6573523806378201 1.3114695885188488
    vertex 1.810717514466198 0.6250000000000051 1.3114695885188488
    vertex 1.748217514466198 0.6250000000000051 1.3114695885188488
  endloop
endfacet
facet normal 0.0 0.0 -1.0
  outer loop
    vertex 1.435717514466198 0.6250000000000051 1.3114695885188488
    vertex 1.5024767861800612 0.5926476193621901 1.3114695885188488
    vertex 1.529467514466198 0.46262023679042286 1.3114695885188488
  endloop
endfacet
facet normal 0.0 0.0 -1.0
  outer loop
    vertex 1.5024767861800612 0.5926476193621901 1.3114695885188488
    vertex 1.435717514466198 0.6250000000000051 1.3114695885188488
    vertex 1.498217514466198 0.6250000000000051 1.3114695885188488
  endloop
endfacet
facet normal 0.0 0.0 -1.0
  outer loop
    vertex 1.529467514466198 0.46262023679042286 1.3114695885188488
    vertex 1.5024767861800612 0.5926476193621901 1.3114695885188488
    vertex 1.5149643389931455 0.5625000000000051 1.3114695885188488
  endloop
endfacet
facet normal 0.0 0.0 -1.0
  outer loop
    vertex 1.529467514466198 0.46262023679042286 1.3114695885188488
    vertex 1.5149643389931455 0.5625000000000051 1.3114695885188488
    vertex 1.5348291668178788 0.5366116523516868 1.3114695885188488
  endloop
endfacet
facet normal 0.0 0.0 -1.0
  outer loop
    vertex 1.529467514466198 0.46262023679042286 1.3114695885188488
    vertex 1.5348291668178788 0.5366116523516868 1.3114695885188488
    vertex 1.560717514466198 0.5167468245269509 1.3114695885188488
  endloop
endfacet
facet normal 0.0 0.0 -1.0
  outer loop
    vertex 1.529467514466198 0.46262023679042286 1.3114695885188488
    vertex 1.560717514466198 0.5167468245269509 1.3114695885188488
    vertex 1.5908651338283804 0.5042592717138719 1.3114695885188488
  endloop
endfacet
facet normal 0.0 0.0 -1.0
  outer loop
    vertex 1.529467514466198 0.46262023679042286 1.3114695885188488
    vertex 1.5908651338283804 0.5042592717138719 1.3114695885188488
    vertex 1.716967514466198 0.46262023679042286 1.3114695885188488
  endloop
endfacet
facet normal 0.0 0.0 -1.0
  outer loop
    vertex 1.716967514466198 0.46262023679042286 1.3114695885188488
    vertex 1.5908651338283804 0.5042592717138719 1.3114695885188488
    vertex 1.623217514466198 0.5000000000000051 1.3114695885188488
  endloop
endfacet
facet normal 0.0 0.0 -1.0
  outer loop
    vertex 1.716967514466198 0.46262023679042286 1.3114695885188488
    vertex 1.623217514466198 0.5000000000000051 1.3114695885188488
    vertex 1.6555698951040156 0.5042592717138719 1.3114695885188488
  endloop
endfacet
facet normal 0.0 0.0 -1.0
  outer loop
    vertex 1.716967514466198 0.46262023679042286 1.3114695885188488
    vertex 1.6555698951040156 0.5042592717138719 1.3114695885188488
    vertex 1.685717514466198 0.5167468245269509 1.3114695885188488
  endloop
endfacet
facet normal 0.0 0.0 -1.0
  outer loop
    vertex 1.716967514466198 0.46262023679042286 1.3114695885188488
    vertex 1.685717514466198 0.5167468245269509 1.3114695885188488
    vertex 1.7116058621145172 0.5366116523516868 1.3114695885188488
  endloop
endfacet
facet normal 0.0 0.0 -1.0
  outer loop
    vertex 1.716967514466198 0.46262023679042286 1.3114695885188488
    vertex 1.7116058621145172 0.5366116523516868 1.3114695885188488
    vertex 1.7314706899392505 0.5625000000000051 1.3114695885188488
  endloop
endfacet
facet normal 0.0 0.0 -1.0
  outer loop
    vertex 1.716967514466198 0.46262023679042286 1.3114695885188488
    vertex 1.7314706899392505 0.5625000000000051 1.3114695885188488
    vertex 1.810717514466198 0.6250000000000051 1.3114695885188488
  endloop
endfacet
facet normal 0.0 0.0 -1.0
  outer loop
    vertex 1.810717514466198 0.6250000000000051 1.3114695885188488
    vertex 1.7314706899392505 0.5625000000000051 1.3114695885188488
    vertex 1.7439582427523348 0.5926476193621901 1.3114695885188488
  endloop
endfacet
facet normal 0.0 0.0 -1.0
  outer loop
    vertex 1.810717514466198 0.6250000000000051 1.3114695885188488
    vertex 1.7439582427523348 0.5926476193621901 1.3114695885188488
    vertex 1.748217514466198 0.6250000000000051 1.3114695885188488
  endloop
endfacet
facet normal 0.8660254037844387 0.5 0.0
  outer loop
    vertex 1.435717514466198 0.6250000000000051 1.1239695885188488
    vertex 1.529467514466198 0.46262023679042286 1.2489695885188488
    vertex 1.529467514466198 0.46262023679042286 1.1239695885188488
  endloop
endfacet
facet normal 0.8660254037844387 0.5 0.0
  outer loop
    vertex 1.529467514466198 0.46262023679042286 1.2489695885188488
    vertex 1.435717514466198 0.6250000000000051 1.1239695885188488
    vertex 1.435717514466198 0.6250000000000051 1.2489695885188488
  endloop
endfacet
facet normal 0.8660254037844387 0.5 0.0
  outer loop
    vertex 1.435717514466198 0.6250000000000051 1.2489695885188488
    vertex 1.529467514466198 0.46262023679042286 1.3114695885188488
    vertex 1.529467514466198 0.46262023679042286 1.2489695885188488
  endloop
endfacet
facet normal 0.8660254037844387 0.5 0.0
  outer loop
    vertex 1.529467514466198 0.46262023679042286 1.3114695885188488
    vertex 1.435717514466198 0.6250000000000051 1.2489695885188488
    vertex 1.435717514466198 0.6250000000000051 1.3114695885188488
  endloop
endfacet
facet normal -0.8660254037844387 0.5 0.0
  outer loop
    vertex 1.810717514466198 0.6250000000000051 1.2489695885188488
    vertex 1.716967514466198 0.46262023679042286 1.1239695885188488
    vertex 1.716967514466198 0.46262023679042286 1.2489695885188488
  endloop
endfacet
facet normal -0.8660254037844387 0.5 0.0
  outer loop
    vertex 1.716967514466198 0.46262023679042286 1.1239695885188488
    vertex 1.810717514466198 0.6250000000000051 1.2489695885188488
    vertex 1.810717514466198 0.6250000000000051 1.1239695885188488
  endloop
endfacet
facet normal 0.0 1.0 0.0
  outer loop
    vertex 1.529467514466198 0.46262023679042286 1.2489695885188488
    vertex 1.716967514466198 0.46262023679042286 1.1239695885188488
    vertex 1.529467514466198 0.46262023679042286 1.1239695885188488
  endloop
endfacet
facet normal 0.0 1.0 0.0
  outer loop
    vertex 1.716967514466198 0.46262023679042286 1.1239695885188488
    vertex 1.529467514466198 0.46262023679042286 1.2489695885188488
    vertex 1.716967514466198 0.46262023679042286 1.2489695885188488
  endloop
endfacet
facet normal 0.0 1.0 0.0
  outer loop
    vertex 1.529467514466198 0.46262023679042286 1.3114695885188488
    vertex 1.716967514466198 0.46262023679042286 1.2489695885188488
    vertex 1.529467514466198 0.46262023679042286 1.2489695885188488
  endloop
endfacet
facet normal 0.0 1.0 0.0
  outer loop
    vertex 1.716967514466198 0.46262023679042286 1.2489695885188488
    vertex 1.529467514466198 0.46262023679042286 1.3114695885188488
    vertex 1.716967514466198 0.46262023679042286 1.3114695885188488
  endloop
endfacet
facet normal 0.8660254037844387 -0.5 0.0
  outer loop
    vertex 1.529467514466198 0.7873797632095874 1.2489695885188488
    vertex 1.435717514466198 0.6250000000000051 1.3114695885188488
    vertex 1.435717514466198 0.6250000000000051 1.2489695885188488
  endloop
endfacet
facet normal 0.8660254037844387 -0.5 0.0
  outer loop
    vertex 1.435717514466198 0.6250000000000051 1.3114695885188488
    vertex 1.529467514466198 0.7873797632095874 1.2489695885188488
    vertex 1.529467514466198 0.7873797632095874 1.3114695885188488
  endloop
endfacet
facet normal 0.8660254037844387 -0.5 0.0
  outer loop
    vertex 1.529467514466198 0.7873797632095874 1.1239695885188488
    vertex 1.435717514466198 0.6250000000000051 1.2489695885188488
    vertex 1.435717514466198 0.6250000000000051 1.1239695885188488
  endloop
endfacet
facet normal 0.8660254037844387 -0.5 0.0
  outer loop
    vertex 1.435717514466198 0.6250000000000051 1.2489695885188488
    vertex 1.529467514466198 0.7873797632095874 1.1239695885188488
    vertex 1.529467514466198 0.7873797632095874 1.2489695885188488
  endloop
endfacet
facet normal 0.0 -1.0 0.0
  outer loop
    vertex 1.716967514466198 0.7873797632095874 1.2489695885188488
    vertex 1.529467514466198 0.7873797632095874 1.1239695885188488
    vertex 1.716967514466198 0.7873797632095874 1.1239695885188488
  endloop
endfacet
facet normal 0.0 -1.0 0.0
  outer loop
    vertex 1.529467514466198 0.7873797632095874 1.1239695885188488
    vertex 1.716967514466198 0.7873797632095874 1.2489695885188488
    vertex 1.529467514466198 0.7873797632095874 1.2489695885188488
  endloop
endfacet
facet normal -0.8660254037844387 -0.5 0.0
  outer loop
    vertex 1.716967514466198 0.7873797632095874 1.2489695885188488
    vertex 1.810717514466198 0.6250000000000051 1.1239695885188488
    vertex 1.810717514466198 0.6250000000000051 1.2489695885188488
  endloop
endfacet
facet normal -0.8660254037844387 -0.5 0.0
  outer loop
    vertex 1.810717514466198 0.6250000000000051 1.1239695885188488
    vertex 1.716967514466198 0.7873797632095874 1.2489695885188488
    vertex 1.716967514466198 0.7873797632095874 1.1239695885188488
  endloop
endfacet
facet normal 0.0 -1.0 0.0
  outer loop
    vertex 1.716967514466198 0.7873797632095874 1.3114695885188488
    vertex 1.529467514466198 0.7873797632095874 1.2489695885188488
    vertex 1.716967514466198 0.7873797632095874 1.2489695885188488
  endloop
endfacet
facet normal 0.0 -1.0 0.0
  outer loop
    vertex 1.529467514466198 0.7873797632095874 1.2489695885188488
    vertex 1.716967514466198 0.7873797632095874 1.3114695885188488
    vertex 1.529467514466198 0.7873797632095874 1.3114695885188488
  endloop
endfacet
facet normal -0.8660254037844387 -0.5 0.0
  outer loop
    vertex 1.716967514466198 0.7873797632095874 1.3114695885188488
    vertex 1.810717514466198 0.6250000000000051 1.2489695885188488
    vertex 1.810717514466198 0.6250000000000051 1.3114695885188488
  endloop
endfacet
facet normal -0.8660254037844387 -0.5 0.0
  outer loop
    vertex 1.810717514466198 0.6250000000000051 1.2489695885188488
    vertex 1.716967514466198 0.7873797632095874 1.3114695885188488
    vertex 1.716967514466198 0.7873797632095874 1.2489695885188488
  endloop
endfacet
facet normal -0.8660254037844387 0.5 0.0
  outer loop
    vertex 1.810717514466198 0.6250000000000051 1.3114695885188488
    vertex 1.716967514466198 0.46262023679042286 1.2489695885188488
    vertex 1.716967514466198 0.46262023679042286 1.3114695885188488
  endloop
endfacet
facet normal -0.8660254037844387 0.5 0.0
  outer loop
    vertex 1.716967514466198 0.46262023679042286 1.2489695885188488
    vertex 1.810717514466198 0.6250000000000051 1.3114695885188488
    vertex 1.810717514466198 0.6250000000000051 1.2489695885188488
  endloop
endfacet
facet normal -0.12403473458920847 -0.9922778767136677 0.0
  outer loop
    vertex 1.0 0.0 1.2489695885188488
    vertex 0.0 0.125 0.125
    vertex 1.0 0.0 0.0
  endloop
endfacet
facet normal -0.12403473458920847 -0.9922778767136677 0.0
  outer loop
    vertex 0.0 0.125 0.125
    vertex 1.0 0.0 1.2489695885188488
    vertex 0.0 0.125 1.1239695885188488
  endloop
endfacet
facet normal -0.12411697066426584 -0.00023908026915177917 0.9922675649409038
  outer loop
    vertex 1.0 0.0 1.2489695885188488
    vertex 0.0 0.37500000000000266 1.1239695885188488
    vertex 0.0 0.125 1.1239695885188488
  endloop
endfacet
facet normal -0.12411697066426584 -0.00023908026915177917 0.9922675649409038
  outer loop
    vertex 0.0 0.37500000000000266 1.1239695885188488
    vertex 1.0 0.0 1.2489695885188488
    vertex 0.998217514466198 0.31250000000000266 1.2489695885188488
  endloop
endfacet
facet normal -0.12411697066426584 -0.00023908026915177917 0.9922675649409038
  outer loop
    vertex 0.998217514466198 0.31250000000000266 1.2489695885188488
    vertex 1.0 0.0 1.2489695885188488
    vertex 1.0 0.31250000000000266 1.2489695885188488
  endloop
endfacet
facet normal 0.0 0.0 1.0
  outer loop
    vertex 2.123217514466198 0.9375000000000078 1.2489695885188488
    vertex 1.0 1.2500000000000104 1.2489695885188488
    vertex 1.0 0.9375000000000078 1.2489695885188488
  endloop
endfacet
facet normal 0.0 0.0 1.0
  outer loop
    vertex 1.0 1.2500000000000104 1.2489695885188488
    vertex 2.123217514466198 0.9375000000000078 1.2489695885188488
    vertex 2.123217514466198 1.2500000000000104 1.2489695885188488
  endloop
endfacet
facet normal -0.2987601115711853 0.0 0.9543282431815444
  outer loop
    vertex 0.998217514466198 0.43750000000000266 1.4364695885188488
    vertex 0.0 0.8750000000000078 1.1239695885188488
    vertex 0.0 0.37500000000000266 1.1239695885188488
  endloop
endfacet
facet normal -0.2987601115711853 0.0 0.9543282431815444
  outer loop
    vertex 0.0 0.8750000000000078 1.1239695885188488
    vertex 0.998217514466198 0.43750000000000266 1.4364695885188488
    vertex 0.998217514466198 0.8125000000000078 1.4364695885188488
  endloop
endfacet
facet normal -0.12066909672124919 -0.8259703254991997 0.5506468836661331
  outer loop
    vertex 0.998217514466198 0.43750000000000266 1.4364695885188488
    vertex 0.0 0.37500000000000266 1.1239695885188488
    vertex 0.998217514466198 0.31250000000000266 1.2489695885188488
  endloop
endfacet
facet normal -4.101352505470804e-17 -0.8320502943378438 0.5547001962252288
  outer loop
    vertex 1.873217514466198 0.43750000000000266 1.436469588518849
    vertex 1.0 0.31250000000000266 1.2489695885188488
    vertex 2.123217514466198 0.31250000000000266 1.2489695885188488
  endloop
endfacet
facet normal -4.101352505470804e-17 -0.8320502943378438 0.5547001962252288
  outer loop
    vertex 1.0 0.31250000000000266 1.2489695885188488
    vertex 1.873217514466198 0.43750000000000266 1.436469588518849
    vertex 0.998217514466198 0.31250000000000266 1.2489695885188488
  endloop
endfacet
facet normal -4.101352505470804e-17 -0.8320502943378438 0.5547001962252288
  outer loop
    vertex 0.998217514466198 0.31250000000000266 1.2489695885188488
    vertex 1.873217514466198 0.43750000000000266 1.436469588518849
    vertex 0.998217514466198 0.43750000000000266 1.4364695885188488
  endloop
endfacet
facet normal -1.268826313857322e-16 2.960594732333709e-16 1.0
  outer loop
    vertex 0.998217514466198 0.43750000000000266 1.4364695885188488
    vertex 1.560717514466198 0.5167468245269509 1.4364695885188485
    vertex 0.998217514466198 0.8125000000000078 1.4364695885188488
  endloop
endfacet
facet normal -1.268826313857322e-16 2.960594732333709e-16 1.0
  outer loop
    vertex 1.560717514466198 0.5167468245269509 1.4364695885188485
    vertex 0.998217514466198 0.43750000000000266 1.4364695885188488
    vertex 1.5908651338283804 0.5042592717138719 1.4364695885188485
  endloop
endfacet
facet normal -1.268826313857322e-16 2.960594732333709e-16 1.0
  outer loop
    vertex 1.5908651338283804 0.5042592717138719 1.4364695885188485
    vertex 0.998217514466198 0.43750000000000266 1.4364695885188488
    vertex 1.873217514466198 0.43750000000000266 1.436469588518849
  endloop
endfacet
facet normal -1.268826313857322e-16 2.960594732333709e-16 1.0
  outer loop
    vertex 0.998217514466198 0.8125000000000078 1.4364695885188488
    vertex 1.560717514466198 0.5167468245269509 1.4364695885188485
    vertex 1.5348291668178788 0.5366116523516868 1.4364695885188485
  endloop
endfacet
facet normal -1.268826313857322e-16 2.960594732333709e-16 1.0
  outer loop
    vertex 0.998217514466198 0.8125000000000078 1.4364695885188488
    vertex 1.5348291668178788 0.5366116523516868 1.4364695885188485
    vertex 1.5149643389931455 0.5625000000000051 1.4364695885188485
  endloop
endfacet
facet normal -1.268826313857322e-16 2.960594732333709e-16 1.0
  outer loop
    vertex 0.998217514466198 0.8125000000000078 1.4364695885188488
    vertex 1.5149643389931455 0.5625000000000051 1.4364695885188485
    vertex 1.5024767861800612 0.5926476193621901 1.4364695885188485
  endloop
endfacet
facet normal -1.268826313857322e-16 2.960594732333709e-16 1.0
  outer loop
    vertex 0.998217514466198 0.8125000000000078 1.4364695885188488
    vertex 1.5024767861800612 0.5926476193621901 1.4364695885188485
    vertex 1.498217514466198 0.6250000000000051 1.4364695885188485
  endloop
endfacet
facet normal -1.268826313857322e-16 2.960594732333709e-16 1.0
  outer loop
    vertex 1.5908651338283804 0.5042592717138719 1.4364695885188485
    vertex 1.873217514466198 0.43750000000000266 1.436469588518849
    vertex 1.623217514466198 0.5000000000000051 1.4364695885188485
  endloop
endfacet
facet normal -1.268826313857322e-16 2.960594732333709e-16 1.0
  outer loop
    vertex 1.623217514466198 0.5000000000000051 1.4364695885188485
    vertex 1.873217514466198 0.43750000000000266 1.436469588518849
    vertex 1.6555698951040156 0.5042592717138719 1.4364695885188485
  endloop
endfacet
facet normal -1.268826313857322e-16 2.960594732333709e-16 1.0
  outer loop
    vertex 1.6555698951040156 0.5042592717138719 1.4364695885188485
    vertex 1.873217514466198 0.43750000000000266 1.436469588518849
    vertex 1.685717514466198 0.5167468245269509 1.4364695885188485
  endloop
endfacet
facet normal -1.268826313857322e-16 2.960594732333709e-16 1.0
  outer loop
    vertex 1.685717514466198 0.5167468245269509 1.4364695885188485
    vertex 1.873217514466198 0.43750000000000266 1.436469588518849
    vertex 1.7116058621145172 0.5366116523516868 1.4364695885188485
  endloop
endfacet
facet normal -1.268826313857322e-16 2.960594732333709e-16 1.0
  outer loop
    vertex 1.7116058621145172 0.5366116523516868 1.4364695885188485
    vertex 1.873217514466198 0.43750000000000266 1.436469588518849
    vertex 1.7314706899392505 0.5625000000000051 1.4364695885188485
  endloop
endfacet
facet normal -1.268826313857322e-16 2.960594732333709e-16 1.0
  outer loop
    vertex 1.7314706899392505 0.5625000000000051 1.4364695885188485
    vertex 1.873217514466198 0.43750000000000266 1.436469588518849
    vertex 1.7439582427523348 0.5926476193621901 1.4364695885188485
  endloop
endfacet
facet normal -1.268826313857322e-16 2.960594732333709e-16 1.0
  outer loop
    vertex 1.7439582427523348 0.5926476193621901 1.4364695885188485
    vertex 1.873217514466198 0.43750000000000266 1.436469588518849
    vertex 1.748217514466198 0.6250000000000051 1.4364695885188485
  endloop
endfacet
facet normal -1.268826313857322e-16 2.960594732333709e-16 1.0
  outer loop
    vertex 0.998217514466198 0.8125000000000078 1.4364695885188488
    vertex 1.5908651338283804 0.7457407282861392 1.4364695885188485
    vertex 1.873217514466198 0.8125000000000078 1.4364695885188488
  endloop
endfacet
facet normal -1.268826313857322e-16 2.960594732333709e-16 1.0
  outer loop
    vertex 1.5908651338283804 0.7457407282861392 1.4364695885188485
    vertex 0.998217514466198 0.8125000000000078 1.4364695885188488
    vertex 1.560717514466198 0.7332531754730602 1.4364695885188485
  endloop
endfacet
facet normal -1.268826313857322e-16 2.960594732333709e-16 1.0
  outer loop
    vertex 1.560717514466198 0.7332531754730602 1.4364695885188485
    vertex 0.998217514466198 0.8125000000000078 1.4364695885188488
    vertex 1.5348291668178788 0.7133883476483234 1.4364695885188485
  endloop
endfacet
facet normal -1.268826313857322e-16 2.960594732333709e-16 1.0
  outer loop
    vertex 1.5348291668178788 0.7133883476483234 1.4364695885188485
    vertex 0.998217514466198 0.8125000000000078 1.4364695885188488
    vertex 1.5149643389931455 0.6875000000000051 1.4364695885188485
  endloop
endfacet
facet normal -1.268826313857322e-16 2.960594732333709e-16 1.0
  outer loop
    vertex 1.5149643389931455 0.6875000000000051 1.4364695885188485
    vertex 0.998217514466198 0.8125000000000078 1.4364695885188488
    vertex 1.5024767861800612 0.6573523806378201 1.4364695885188485
  endloop
endfacet
facet normal -1.268826313857322e-16 2.960594732333709e-16 1.0
  outer loop
    vertex 1.5024767861800612 0.6573523806378201 1.4364695885188485
    vertex 0.998217514466198 0.8125000000000078 1.4364695885188488
    vertex 1.498217514466198 0.6250000000000051 1.4364695885188485
  endloop
endfacet
facet normal -1.268826313857322e-16 2.960594732333709e-16 1.0
  outer loop
    vertex 1.873217514466198 0.8125000000000078 1.4364695885188488
    vertex 1.5908651338283804 0.7457407282861392 1.4364695885188485
    vertex 1.623217514466198 0.7500000000000051 1.4364695885188485
  endloop
endfacet
facet normal -1.268826313857322e-16 2.960594732333709e-16 1.0
  outer loop
    vertex 1.873217514466198 0.8125000000000078 1.4364695885188488
    vertex 1.623217514466198 0.7500000000000051 1.4364695885188485
    vertex 1.6555698951040156 0.7457407282861392 1.4364695885188485
  endloop
endfacet
facet normal -1.268826313857322e-16 2.960594732333709e-16 1.0
  outer loop
    vertex 1.873217514466198 0.8125000000000078 1.4364695885188488
    vertex 1.6555698951040156 0.7457407282861392 1.4364695885188485
    vertex 1.685717514466198 0.7332531754730602 1.4364695885188485
  endloop
endfacet
facet normal -1.268826313857322e-16 2.960594732333709e-16 1.0
  outer loop
    vertex 1.873217514466198 0.8125000000000078 1.4364695885188488
    vertex 1.685717514466198 0.7332531754730602 1.4364695885188485
    vertex 1.7116058621145172 0.7133883476483234 1.4364695885188485
  endloop
endfacet
facet normal -1.268826313857322e-16 2.960594732333709e-16 1.0
  outer loop
    vertex 1.873217514466198 0.8125000000000078 1.4364695885188488
    vertex 1.7116058621145172 0.7133883476483234 1.4364695885188485
    vertex 1.7314706899392505 0.6875000000000051 1.4364695885188485
  endloop
endfacet
facet normal -1.268826313857322e-16 2.960594732333709e-16 1.0
  outer loop
    vertex 1.873217514466198 0.8125000000000078 1.4364695885188488
    vertex 1.7314706899392505 0.6875000000000051 1.4364695885188485
    vertex 1.7439582427523348 0.6573523806378201 1.4364695885188485
  endloop
endfacet
facet normal -1.268826313857322e-16 2.960594732333709e-16 1.0
  outer loop
    vertex 1.873217514466198 0.8125000000000078 1.4364695885188488
    vertex 1.7439582427523348 0.6573523806378201 1.4364695885188485
    vertex 1.748217514466198 0.6250000000000051 1.4364695885188485
  endloop
endfacet
facet normal -1.268826313857322e-16 2.960594732333709e-16 1.0
  outer loop
    vertex 1.873217514466198 0.8125000000000078 1.4364695885188488
    vertex 1.748217514466198 0.6250000000000051 1.4364695885188485
    vertex 1.873217514466198 0.43750000000000266 1.436469588518849
  endloop
endfacet
facet normal 0.6000000000000002 1.253898945458975e-16 0.7999999999999998
  outer loop
    vertex 2.123217514466198 0.31250000000000266 1.2489695885188488
    vertex 1.873217514466198 0.8125000000000078 1.4364695885188488
    vertex 1.873217514466198 0.43750000000000266 1.436469588518849
  endloop
endfacet
facet normal 0.6000000000000002 1.253898945458975e-16 0.7999999999999998
  outer loop
    vertex 1.873217514466198 0.8125000000000078 1.4364695885188488
    vertex 2.123217514466198 0.31250000000000266 1.2489695885188488
    vertex 2.123217514466198 0.9375000000000078 1.2489695885188488
  endloop
endfacet
facet normal -5.450759447472732e-18 0.8320502943378437 0.554700196225229
  outer loop
    vertex 0.998217514466198 0.8125000000000078 1.4364695885188488
    vertex 1.0 0.9375000000000078 1.2489695885188488
    vertex 0.998217514466198 0.9375000000000078 1.2489695885188488
  endloop
endfacet
facet normal -5.450759447472732e-18 0.8320502943378437 0.554700196225229
  outer loop
    vertex 1.0 0.9375000000000078 1.2489695885188488
    vertex 0.998217514466198 0.8125000000000078 1.4364695885188488
    vertex 2.123217514466198 0.9375000000000078 1.2489695885188488
  endloop
endfacet
facet normal -5.450759447472732e-18 0.8320502943378437 0.554700196225229
  outer loop
    vertex 2.123217514466198 0.9375000000000078 1.2489695885188488
    vertex 0.998217514466198 0.8125000000000078 1.4364695885188488
    vertex 1.873217514466198 0.8125000000000078 1.4364695885188488
  endloop
endfacet
facet normal -0.12066909672124919 0.8259703254991997 0.5506468836661331
  outer loop
    vertex 0.998217514466198 0.8125000000000078 1.4364695885188488
    vertex 0.998217514466198 0.9375000000000078 1.2489695885188488
    vertex 0.0 0.8750000000000078 1.1239695885188488
  endloop
endfacet
facet normal 0.9914448613738233 0.1305261922199537 0.0
  outer loop
    vertex 1.498217514466198 0.6250000000000051 1.3114695885188488
    vertex 1.5024767861800612 0.5926476193621901 1.4364695885188485
    vertex 1.5024767861800612 0.5926476193621901 1.3114695885188488
  endloop
endfacet
facet normal 0.9914448613738233 0.1305261922199537 0.0
  outer loop
    vertex 1.5024767861800612 0.5926476193621901 1.4364695885188485
    vertex 1.498217514466198 0.6250000000000051 1.3114695885188488
    vertex 1.498217514466198 0.6250000000000051 1.4364695885188485
  endloop
endfacet
facet normal 0.9914448613738233 -0.1305261922199537 0.0
  outer loop
    vertex 1.5024767861800612 0.6573523806378201 1.3114695885188488
    vertex 1.498217514466198 0.6250000000000051 1.4364695885188485
    vertex 1.498217514466198 0.6250000000000051 1.3114695885188488
  endloop
endfacet
facet normal 0.9914448613738233 -0.1305261922199537 0.0
  outer loop
    vertex 1.498217514466198 0.6250000000000051 1.4364695885188485
    vertex 1.5024767861800612 0.6573523806378201 1.3114695885188488
    vertex 1.5024767861800612 0.6573523806378201 1.4364695885188485
  endloop
endfacet
facet normal 0.9238795325112263 -0.38268343236523583 0.0
  outer loop
    vertex 1.5149643389931455 0.6875000000000051 1.3114695885188488
    vertex 1.5024767861800612 0.6573523806378201 1.4364695885188485
    vertex 1.5024767861800612 0.6573523806378201 1.3114695885188488
  endloop
endfacet
facet normal 0.9238795325112263 -0.38268343236523583 0.0
  outer loop
    vertex 1.5024767861800612 0.6573523806378201 1.4364695885188485
    vertex 1.5149643389931455 0.6875000000000051 1.3114695885188488
    vertex 1.5149643389931455 0.6875000000000051 1.4364695885188485
  endloop
endfacet
facet normal 0.7933533402912787 -0.6087614290086638 0.0
  outer loop
    vertex 1.5348291668178788 0.7133883476483234 1.3114695885188488
    vertex 1.5149643389931455 0.6875000000000051 1.4364695885188485
    vertex 1.5149643389931455 0.6875000000000051 1.3114695885188488
  endloop
endfacet
facet normal 0.7933533402912787 -0.6087614290086638 0.0
  outer loop
    vertex 1.5149643389931455 0.6875000000000051 1.4364695885188485
    vertex 1.5348291668178788 0.7133883476483234 1.3114695885188488
    vertex 1.5348291668178788 0.7133883476483234 1.4364695885188485
  endloop
endfacet
facet normal 0.6087614290087107 -0.7933533402912428 0.0
  outer loop
    vertex 1.560717514466198 0.7332531754730602 1.4364695885188485
    vertex 1.5348291668178788 0.7133883476483234 1.3114695885188488
    vertex 1.560717514466198 0.7332531754730602 1.3114695885188488
  endloop
endfacet
facet normal 0.6087614290087107 -0.7933533402912428 0.0
  outer loop
    vertex 1.5348291668178788 0.7133883476483234 1.3114695885188488
    vertex 1.560717514466198 0.7332531754730602 1.4364695885188485
    vertex 1.5348291668178788 0.7133883476483234 1.4364695885188485
  endloop
endfacet
facet normal 0.38268343236512525 -0.9238795325112721 0.0
  outer loop
    vertex 1.5908651338283804 0.7457407282861392 1.4364695885188485
    vertex 1.560717514466198 0.7332531754730602 1.3114695885188488
    vertex 1.5908651338283804 0.7457407282861392 1.3114695885188488
  endloop
endfacet
facet normal 0.38268343236512525 -0.9238795325112721 0.0
  outer loop
    vertex 1.560717514466198 0.7332531754730602 1.3114695885188488
    vertex 1.5908651338283804 0.7457407282861392 1.4364695885188485
    vertex 1.560717514466198 0.7332531754730602 1.4364695885188485
  endloop
endfacet
facet normal 0.13052619222003678 -0.9914448613738124 0.0
  outer loop
    vertex 1.623217514466198 0.7500000000000051 1.4364695885188485
    vertex 1.5908651338283804 0.7457407282861392 1.3114695885188488
    vertex 1.623217514466198 0.7500000000000051 1.3114695885188488
  endloop
endfacet
facet normal 0.13052619222003678 -0.9914448613738124 0.0
  outer loop
    vertex 1.5908651338283804 0.7457407282861392 1.3114695885188488
    vertex 1.623217514466198 0.7500000000000051 1.4364695885188485
    vertex 1.5908651338283804 0.7457407282861392 1.4364695885188485
  endloop
endfacet
facet normal -0.13052619222003678 -0.9914448613738124 -0.0
  outer loop
    vertex 1.6555698951040156 0.7457407282861392 1.4364695885188485
    vertex 1.623217514466198 0.7500000000000051 1.3114695885188488
    vertex 1.6555698951040156 0.7457407282861392 1.3114695885188488
  endloop
endfacet
facet normal -0.13052619222003678 -0.9914448613738124 -0.0
  outer loop
    vertex 1.623217514466198 0.7500000000000051 1.3114695885188488
    vertex 1.6555698951040156 0.7457407282861392 1.4364695885188485
    vertex 1.623217514466198 0.7500000000000051 1.4364695885188485
  endloop
endfacet
facet normal -0.38268343236512525 -0.9238795325112721 -0.0
  outer loop
    vertex 1.685717514466198 0.7332531754730602 1.4364695885188485
    vertex 1.6555698951040156 0.7457407282861392 1.3114695885188488
    vertex 1.685717514466198 0.7332531754730602 1.3114695885188488
  endloop
endfacet
facet normal -0.38268343236512525 -0.9238795325112721 -0.0
  outer loop
    vertex 1.6555698951040156 0.7457407282861392 1.3114695885188488
    vertex 1.685717514466198 0.7332531754730602 1.4364695885188485
    vertex 1.6555698951040156 0.7457407282861392 1.4364695885188485
  endloop
endfacet
facet normal -0.6087614290087107 -0.7933533402912428 -0.0
  outer loop
    vertex 1.7116058621145172 0.7133883476483234 1.4364695885188485
    vertex 1.685717514466198 0.7332531754730602 1.3114695885188488
    vertex 1.7116058621145172 0.7133883476483234 1.3114695885188488
  endloop
endfacet
facet normal -0.6087614290087107 -0.7933533402912428 -0.0
  outer loop
    vertex 1.685717514466198 0.7332531754730602 1.3114695885188488
    vertex 1.7116058621145172 0.7133883476483234 1.4364695885188485
    vertex 1.685717514466198 0.7332531754730602 1.4364695885188485
  endloop
endfacet
facet normal -0.7933533402912787 -0.6087614290086638 -0.0
  outer loop
    vertex 1.7116058621145172 0.7133883476483234 1.4364695885188485
    vertex 1.7314706899392505 0.6875000000000051 1.3114695885188488
    vertex 1.7314706899392505 0.6875000000000051 1.4364695885188485
  endloop
endfacet
facet normal -0.7933533402912787 -0.6087614290086638 -0.0
  outer loop
    vertex 1.7314706899392505 0.6875000000000051 1.3114695885188488
    vertex 1.7116058621145172 0.7133883476483234 1.4364695885188485
    vertex 1.7116058621145172 0.7133883476483234 1.3114695885188488
  endloop
endfacet
facet normal -0.9238795325112263 -0.38268343236523583 -0.0
  outer loop
    vertex 1.7314706899392505 0.6875000000000051 1.4364695885188485
    vertex 1.7439582427523348 0.6573523806378201 1.3114695885188488
    vertex 1.7439582427523348 0.6573523806378201 1.4364695885188485
  endloop
endfacet
facet normal -0.9238795325112263 -0.38268343236523583 -0.0
  outer loop
    vertex 1.7439582427523348 0.6573523806378201 1.3114695885188488
    vertex 1.7314706899392505 0.6875000000000051 1.4364695885188485
    vertex 1.7314706899392505 0.6875000000000051 1.3114695885188488
  endloop
endfacet
facet normal -0.9914448613738233 -0.1305261922199537 -0.0
  outer loop
    vertex 1.7439582427523348 0.6573523806378201 1.4364695885188485
    vertex 1.748217514466198 0.6250000000000051 1.3114695885188488
    vertex 1.748217514466198 0.6250000000000051 1.4364695885188485
  endloop
endfacet
facet normal -0.9914448613738233 -0.1305261922199537 -0.0
  outer loop
    vertex 1.748217514466198 0.6250000000000051 1.3114695885188488
    vertex 1.7439582427523348 0.6573523806378201 1.4364695885188485
    vertex 1.7439582427523348 0.6573523806378201 1.3114695885188488
  endloop
endfacet
facet normal -0.9914448613738233 0.1305261922199537 0.0
  outer loop
    vertex 1.748217514466198 0.6250000000000051 1.4364695885188485
    vertex 1.7439582427523348 0.5926476193621901 1.3114695885188488
    vertex 1.7439582427523348 0.5926476193621901 1.4364695885188485
  endloop
endfacet
facet normal -0.9914448613738233 0.1305261922199537 0.0
  outer loop
    vertex 1.7439582427523348 0.5926476193621901 1.3114695885188488
    vertex 1.748217514466198 0.6250000000000051 1.4364695885188485
    vertex 1.748217514466198 0.6250000000000051 1.3114695885188488
  endloop
endfacet
facet normal -0.9238795325112263 0.38268343236523583 0.0
  outer loop
    vertex 1.7439582427523348 0.5926476193621901 1.4364695885188485
    vertex 1.7314706899392505 0.5625000000000051 1.3114695885188488
    vertex 1.7314706899392505 0.5625000000000051 1.4364695885188485
  endloop
endfacet
facet normal -0.9238795325112263 0.38268343236523583 0.0
  outer loop
    vertex 1.7314706899392505 0.5625000000000051 1.3114695885188488
    vertex 1.7439582427523348 0.5926476193621901 1.4364695885188485
    vertex 1.7439582427523348 0.5926476193621901 1.3114695885188488
  endloop
endfacet
facet normal -0.7933533402912787 0.6087614290086638 0.0
  outer loop
    vertex 1.7314706899392505 0.5625000000000051 1.4364695885188485
    vertex 1.7116058621145172 0.5366116523516868 1.3114695885188488
    vertex 1.7116058621145172 0.5366116523516868 1.4364695885188485
  endloop
endfacet
facet normal -0.7933533402912787 0.6087614290086638 0.0
  outer loop
    vertex 1.7116058621145172 0.5366116523516868 1.3114695885188488
    vertex 1.7314706899392505 0.5625000000000051 1.4364695885188485
    vertex 1.7314706899392505 0.5625000000000051 1.3114695885188488
  endloop
endfacet
facet normal -0.6087614290087107 0.7933533402912428 0.0
  outer loop
    vertex 1.685717514466198 0.5167468245269509 1.4364695885188485
    vertex 1.7116058621145172 0.5366116523516868 1.3114695885188488
    vertex 1.685717514466198 0.5167468245269509 1.3114695885188488
  endloop
endfacet
facet normal -0.6087614290087107 0.7933533402912428 0.0
  outer loop
    vertex 1.7116058621145172 0.5366116523516868 1.3114695885188488
    vertex 1.685717514466198 0.5167468245269509 1.4364695885188485
    vertex 1.7116058621145172 0.5366116523516868 1.4364695885188485
  endloop
endfacet
facet normal -0.38268343236512525 0.9238795325112721 0.0
  outer loop
    vertex 1.6555698951040156 0.5042592717138719 1.4364695885188485
    vertex 1.685717514466198 0.5167468245269509 1.3114695885188488
    vertex 1.6555698951040156 0.5042592717138719 1.3114695885188488
  endloop
endfacet
facet normal -0.38268343236512525 0.9238795325112721 0.0
  outer loop
    vertex 1.685717514466198 0.5167468245269509 1.3114695885188488
    vertex 1.6555698951040156 0.5042592717138719 1.4364695885188485
    vertex 1.685717514466198 0.5167468245269509 1.4364695885188485
  endloop
endfacet
facet normal -0.13052619222003678 0.9914448613738124 0.0
  outer loop
    vertex 1.623217514466198 0.5000000000000051 1.4364695885188485
    vertex 1.6555698951040156 0.5042592717138719 1.3114695885188488
    vertex 1.623217514466198 0.5000000000000051 1.3114695885188488
  endloop
endfacet
facet normal -0.13052619222003678 0.9914448613738124 0.0
  outer loop
    vertex 1.6555698951040156 0.5042592717138719 1.3114695885188488
    vertex 1.623217514466198 0.5000000000000051 1.4364695885188485
    vertex 1.6555698951040156 0.5042592717138719 1.4364695885188485
  endloop
endfacet
facet normal 0.13052619222003678 0.9914448613738124 0.0
  outer loop
    vertex 1.5908651338283804 0.5042592717138719 1.4364695885188485
    vertex 1.623217514466198 0.5000000000000051 1.3114695885188488
    vertex 1.5908651338283804 0.5042592717138719 1.3114695885188488
  endloop
endfacet
facet normal 0.13052619222003678 0.9914448613738124 0.0
  outer loop
    vertex 1.623217514466198 0.5000000000000051 1.3114695885188488
    vertex 1.5908651338283804 0.5042592717138719 1.4364695885188485
    vertex 1.623217514466198 0.5000000000000051 1.4364695885188485
  endloop
endfacet
facet normal 0.38268343236512525 0.9238795325112721 0.0
  outer loop
    vertex 1.560717514466198 0.5167468245269509 1.4364695885188485
    vertex 1.5908651338283804 0.5042592717138719 1.3114695885188488
    vertex 1.560717514466198 0.5167468245269509 1.3114695885188488
  endloop
endfacet
facet normal 0.38268343236512525 0.9238795325112721 0.0
  outer loop
    vertex 1.5908651338283804 0.5042592717138719 1.3114695885188488
    vertex 1.560717514466198 0.5167468245269509 1.4364695885188485
    vertex 1.5908651338283804 0.5042592717138719 1.4364695885188485
  endloop
endfacet
facet normal 0.6087614290087107 0.7933533402912428 0.0
  outer loop
    vertex 1.5348291668178788 0.5366116523516868 1.4364695885188485
    vertex 1.560717514466198 0.5167468245269509 1.3114695885188488
    vertex 1.5348291668178788 0.5366116523516868 1.3114695885188488
  endloop
endfacet
facet normal 0.6087614290087107 0.7933533402912428 0.0
  outer loop
    vertex 1.560717514466198 0.5167468245269509 1.3114695885188488
    vertex 1.5348291668178788 0.5366116523516868 1.4364695885188485
    vertex 1.560717514466198 0.5167468245269509 1.4364695885188485
  endloop
endfacet
facet normal 0.7933533402912787 0.6087614290086638 0.0
  outer loop
    vertex 1.5149643389931455 0.5625000000000051 1.3114695885188488
    vertex 1.5348291668178788 0.5366116523516868 1.4364695885188485
    vertex 1.5348291668178788 0.5366116523516868 1.3114695885188488
  endloop
endfacet
facet normal 0.7933533402912787 0.6087614290086638 0.0
  outer loop
    vertex 1.5348291668178788 0.5366116523516868 1.4364695885188485
    vertex 1.5149643389931455 0.5625000000000051 1.3114695885188488
    vertex 1.5149643389931455 0.5625000000000051 1.4364695885188485
  endloop
endfacet
facet normal 0.9238795325112263 0.38268343236523583 0.0
  outer loop
    vertex 1.5024767861800612 0.5926476193621901 1.3114695885188488
    vertex 1.5149643389931455 0.5625000000000051 1.4364695885188485
    vertex 1.5149643389931455 0.5625000000000051 1.3114695885188488
  endloop
endfacet
facet normal 0.9238795325112263 0.38268343236523583 0.0
  outer loop
    vertex 1.5149643389931455 0.5625000000000051 1.4364695885188485
    vertex 1.5024767861800612 0.5926476193621901 1.3114695885188488
    vertex 1.5024767861800612 0.5926476193621901 1.4364695885188485
  endloop
endfacet
endsolid gun_rig_3dp3
