solid gun_rig_3dp5
facet normal -0.3768312833874523 0.0 -0.9262819138148849
  outer loop
    vertex 0.6197501321874535 1.0624999999999996 0.05923972283442753
    vertex 0.44098300572549254 0.43749999999999944 0.1319660113297969
    vertex 0.44098300572549254 1.0624999999999996 0.1319660113297969
  endloop
endfacet
facet normal -0.3768312833874523 0.0 -0.9262819138148849
  outer loop
    vertex 0.44098300572549254 0.43749999999999944 0.1319660113297969
    vertex 0.6197501321874535 1.0624999999999996 0.05923972283442753
    vertex 0.6197501321874535 0.43749999999999944 0.05923972283442753
  endloop
endfacet
facet normal 0.07719771884260797 0.0 -0.9970158033880394
  outer loop
    vertex 1.1924183638541765 1.0624999999999996 0.014898719632197415
    vertex 1.000000000124241 0.43749999999999944 1.8071483198767164e-10
    vertex 1.000000000124241 1.0624999999999996 1.8071483198767164e-10
  endloop
endfacet
facet normal 0.07719771884260797 0.0 -0.9970158033880394
  outer loop
    vertex 1.000000000124241 0.43749999999999944 1.8071483198767164e-10
    vertex 1.1924183638541765 1.0624999999999996 0.014898719632197415
    vertex 1.1924183638541765 0.43749999999999944 0.014898719632197415
  endloop
endfacet
facet normal 0.5149267610194407 0.0 -0.8572341749988902
  outer loop
    vertex 1.7244583011487828 1.0624999999999996 0.23134393960418417
    vertex 1.5590169944753929 0.43749999999999944 0.1319660115318423
    vertex 1.5590169944753929 1.0624999999999996 0.1319660115318423
  endloop
endfacet
facet normal 0.5149267610194407 0.0 -0.8572341749988902
  outer loop
    vertex 1.5590169944753929 0.43749999999999944 0.1319660115318423
    vertex 1.7244583011487828 1.0624999999999996 0.23134393960418417
    vertex 1.7244583011487828 0.43749999999999944 0.23134393960418417
  endloop
endfacet
facet normal -0.5149267607096112 0.0 -0.857234175185
  outer loop
    vertex 0.44098300572549254 1.0624999999999996 0.1319660113297969
    vertex 0.2755416990160707 0.43749999999999944 0.23134393934234423
    vertex 0.2755416990160707 1.0624999999999996 0.23134393934234423
  endloop
endfacet
facet normal -0.5149267607096112 0.0 -0.857234175185
  outer loop
    vertex 0.2755416990160707 0.43749999999999944 0.23134393934234423
    vertex 0.44098300572549254 1.0624999999999996 0.1319660113297969
    vertex 0.44098300572549254 0.43749999999999944 0.1319660113297969
  endloop
endfacet
facet normal 0.7512940116433979 0.0 -0.659967656835371
  outer loop
    vertex 1.8726300062872272 1.0624999999999996 0.3550045410023839
    vertex 2.0000000000339266 0.43749999999999944 0.5000000003614282
    vertex 1.8726300062872272 0.43749999999999944 0.3550045410023839
  endloop
endfacet
facet normal 0.7512940116433979 0.0 -0.659967656835371
  outer loop
    vertex 2.0000000000339266 0.43749999999999944 0.5000000003614282
    vertex 1.8726300062872272 1.0624999999999996 0.3550045410023839
    vertex 2.0000000000339266 1.0624999999999996 0.5000000003614282
  endloop
endfacet
facet normal 0.6407474393845087 0.0 -0.7677517300027368
  outer loop
    vertex 1.8726300062872272 1.0624999999999996 0.3550045410023839
    vertex 1.7244583011487828 0.43749999999999944 0.23134393960418417
    vertex 1.7244583011487828 1.0624999999999996 0.23134393960418417
  endloop
endfacet
facet normal 0.6407474393845087 0.0 -0.7677517300027368
  outer loop
    vertex 1.7244583011487828 0.43749999999999944 0.23134393960418417
    vertex 1.8726300062872272 1.0624999999999996 0.3550045410023839
    vertex 1.8726300062872272 0.43749999999999944 0.3550045410023839
  endloop
endfacet
facet normal -0.2297529203714809 0.0 -0.9732489895092499
  outer loop
    vertex 0.8075816363890201 1.0624999999999996 0.014898719562651925
    vertex 0.6197501321874535 0.43749999999999944 0.05923972283442753
    vertex 0.6197501321874535 1.0624999999999996 0.05923972283442753
  endloop
endfacet
facet normal -0.2297529203714809 0.0 -0.9732489895092499
  outer loop
    vertex 0.6197501321874535 0.43749999999999944 0.05923972283442753
    vertex 0.8075816363890201 1.0624999999999996 0.014898719562651925
    vertex 0.8075816363890201 0.43749999999999944 0.014898719562651925
  endloop
endfacet
facet normal 0.22975292072324202 0.0 -0.9732489894262105
  outer loop
    vertex 1.3802498680397173 1.0624999999999996 0.05923972297186069
    vertex 1.1924183638541765 0.43749999999999944 0.014898719632197415
    vertex 1.1924183638541765 1.0624999999999996 0.014898719632197415
  endloop
endfacet
facet normal 0.22975292072324202 0.0 -0.9732489894262105
  outer loop
    vertex 1.1924183638541765 0.43749999999999944 0.014898719632197415
    vertex 1.3802498680397173 1.0624999999999996 0.05923972297186069
    vertex 1.3802498680397173 0.43749999999999944 0.05923972297186069
  endloop
endfacet
facet normal -0.640747439107022 0.0 -0.7677517302343208
  outer loop
    vertex 0.2755416990160707 1.0624999999999996 0.23134393934234423
    vertex 0.12736999383304556 0.43749999999999944 0.3550045406869914
    vertex 0.12736999383304556 1.0624999999999996 0.3550045406869914
  endloop
endfacet
facet normal -0.640747439107022 0.0 -0.7677517302343208
  outer loop
    vertex 0.12736999383304556 0.43749999999999944 0.3550045406869914
    vertex 0.2755416990160707 1.0624999999999996 0.23134393934234423
    vertex 0.2755416990160707 0.43749999999999944 0.23134393934234423
  endloop
endfacet
facet normal -0.07719771848225915 0.0 -0.9970158034159409
  outer loop
    vertex 1.000000000124241 1.0624999999999996 1.8071483198767164e-10
    vertex 0.8075816363890201 0.43749999999999944 0.014898719562651925
    vertex 0.8075816363890201 1.0624999999999996 0.014898719562651925
  endloop
endfacet
facet normal -0.07719771848225915 0.0 -0.9970158034159409
  outer loop
    vertex 0.8075816363890201 0.43749999999999944 0.014898719562651925
    vertex 1.000000000124241 1.0624999999999996 1.8071483198767164e-10
    vertex 1.000000000124241 0.43749999999999944 1.8071483198767164e-10
  endloop
endfacet
facet normal 0.37683128372223595 0.0 -0.9262819136786876
  outer loop
    vertex 1.5590169944753929 1.0624999999999996 0.1319660115318423
    vertex 1.3802498680397173 0.43749999999999944 0.05923972297186069
    vertex 1.3802498680397173 1.0624999999999996 0.05923972297186069
  endloop
endfacet
facet normal 0.37683128372223595 0.0 -0.9262819136786876
  outer loop
    vertex 1.3802498680397173 0.43749999999999944 0.05923972297186069
    vertex 1.5590169944753929 1.0624999999999996 0.1319660115318423
    vertex 1.5590169944753929 0.43749999999999944 0.1319660115318423
  endloop
endfacet
facet normal -0.7512940114048456 0.0 -0.6599676571069342
  outer loop
    vertex 3.3912345154263606e-11 1.0624999999999996 0.4999999999999992
    vertex 0.12736999383304556 0.43749999999999944 0.3550045406869914
    vertex 3.3912345154263606e-11 0.43749999999999944 0.4999999999999992
  endloop
endfacet
facet normal -0.7512940114048456 0.0 -0.6599676571069342
  outer loop
    vertex 0.12736999383304556 0.43749999999999944 0.3550045406869914
    vertex 3.3912345154263606e-11 1.0624999999999996 0.4999999999999992
    vertex 0.12736999383304556 1.0624999999999996 0.3550045406869914
  endloop
endfacet
facet normal 0.0 -1.0 0.0
  outer loop
    vertex 1.7244583011487828 0.43749999999999944 0.23134393960418417
    vertex 1.0000000000903642 0.43749999999999944 0.18750000018071483
    vertex 1.5590169944753929 0.43749999999999944 0.1319660115318423
  endloop
endfacet
facet normal 0.0 -1.0 0.0
  outer loop
    vertex 1.0000000000903642 0.43749999999999944 0.18750000018071483
    vertex 1.7244583011487828 0.43749999999999944 0.23134393960418417
    vertex 1.016176190408887 0.43749999999999944 0.18962963604056948
  endloop
endfacet
facet normal 0.0 -1.0 0.0
  outer loop
    vertex 1.016176190408887 0.43749999999999944 0.18962963604056948
    vertex 1.7244583011487828 0.43749999999999944 0.23134393960418417
    vertex 1.031250000088852 0.43749999999999944 0.19587341244983114
  endloop
endfacet
facet normal 0.0 -1.0 0.0
  outer loop
    vertex 1.031250000088852 0.43749999999999944 0.19587341244983114
    vertex 1.7244583011487828 0.43749999999999944 0.23134393960418417
    vertex 1.0441941739112175 0.43749999999999944 0.20580582636453704
  endloop
endfacet
facet normal 0.0 -1.0 0.0
  outer loop
    vertex 1.0441941739112175 0.43749999999999944 0.20580582636453704
    vertex 1.7244583011487828 0.43749999999999944 0.23134393960418417
    vertex 1.0541265878212478 0.43749999999999944 0.21875000019049007
  endloop
endfacet
facet normal 0.0 -1.0 0.0
  outer loop
    vertex 1.0541265878212478 0.43749999999999944 0.21875000019049007
    vertex 1.7244583011487828 0.43749999999999944 0.23134393960418417
    vertex 1.060370364225065 0.43749999999999944 0.23382380987271012
  endloop
endfacet
facet normal 0.0 -1.0 0.0
  outer loop
    vertex 1.060370364225065 0.43749999999999944 0.23382380987271012
    vertex 1.7244583011487828 0.43749999999999944 0.23134393960418417
    vertex 1.8726300062872272 0.43749999999999944 0.3550045410023839
  endloop
endfacet
facet normal 0.0 -1.0 0.0
  outer loop
    vertex 1.060370364225065 0.43749999999999944 0.23382380987271012
    vertex 1.8726300062872272 0.43749999999999944 0.3550045410023839
    vertex 1.0625000000790767 0.43749999999999944 0.25000000019200225
  endloop
endfacet
facet normal 0.0 -1.0 0.0
  outer loop
    vertex 1.0625000000790767 0.43749999999999944 0.25000000019200225
    vertex 1.8726300062872272 0.43749999999999944 0.3550045410023839
    vertex 1.0603703642192222 0.43749999999999944 0.2661761905105252
  endloop
endfacet
facet normal 0.0 -1.0 0.0
  outer loop
    vertex 1.0603703642192222 0.43749999999999944 0.2661761905105252
    vertex 1.8726300062872272 0.43749999999999944 0.3550045410023839
    vertex 1.0541265878099604 0.43749999999999944 0.28125000019049007
  endloop
endfacet
facet normal 0.0 -1.0 0.0
  outer loop
    vertex 1.0541265878099604 0.43749999999999944 0.28125000019049007
    vertex 1.8726300062872272 0.43749999999999944 0.3550045410023839
    vertex 1.0441941738952545 0.43749999999999944 0.29419417401285547
  endloop
endfacet
facet normal 0.0 -1.0 0.0
  outer loop
    vertex 1.0441941738952545 0.43749999999999944 0.29419417401285547
    vertex 1.8726300062872272 0.43749999999999944 0.3550045410023839
    vertex 1.0312500000693015 0.43749999999999944 0.30412658792288594
  endloop
endfacet
facet normal 0.0 -1.0 0.0
  outer loop
    vertex 1.0312500000693015 0.43749999999999944 0.30412658792288594
    vertex 1.8726300062872272 0.43749999999999944 0.3550045410023839
    vertex 1.0161761903870814 0.43749999999999944 0.310370364326703
  endloop
endfacet
facet normal 0.0 -1.0 0.0
  outer loop
    vertex 1.0161761903870814 0.43749999999999944 0.310370364326703
    vertex 1.8726300062872272 0.43749999999999944 0.3550045410023839
    vertex 1.0000000000677893 0.43749999999999944 0.31250000018071483
  endloop
endfacet
facet normal 0.0 -1.0 0.0
  outer loop
    vertex 1.1924183638541765 0.43749999999999944 0.014898719632197415
    vertex 0.8075816363890201 0.43749999999999944 0.014898719562651925
    vertex 1.000000000124241 0.43749999999999944 1.8071483198767164e-10
  endloop
endfacet
facet normal 0.0 -1.0 0.0
  outer loop
    vertex 0.8075816363890201 0.43749999999999944 0.014898719562651925
    vertex 1.1924183638541765 0.43749999999999944 0.014898719632197415
    vertex 1.3802498680397173 0.43749999999999944 0.05923972297186069
  endloop
endfacet
facet normal 0.0 -1.0 0.0
  outer loop
    vertex 0.8075816363890201 0.43749999999999944 0.014898719562651925
    vertex 1.3802498680397173 0.43749999999999944 0.05923972297186069
    vertex 0.6197501321874535 0.43749999999999944 0.05923972283442753
  endloop
endfacet
facet normal 0.0 -1.0 0.0
  outer loop
    vertex 0.6197501321874535 0.43749999999999944 0.05923972283442753
    vertex 1.3802498680397173 0.43749999999999944 0.05923972297186069
    vertex 1.5590169944753929 0.43749999999999944 0.1319660115318423
  endloop
endfacet
facet normal 0.0 -1.0 0.0
  outer loop
    vertex 0.6197501321874535 0.43749999999999944 0.05923972283442753
    vertex 1.5590169944753929 0.43749999999999944 0.1319660115318423
    vertex 0.44098300572549254 0.43749999999999944 0.1319660113297969
  endloop
endfacet
facet normal 0.0 -1.0 0.0
  outer loop
    vertex 0.44098300572549254 0.43749999999999944 0.1319660113297969
    vertex 1.5590169944753929 0.43749999999999944 0.1319660115318423
    vertex 0.2755416990160707 0.43749999999999944 0.23134393934234423
  endloop
endfacet
facet normal 0.0 -1.0 0.0
  outer loop
    vertex 0.2755416990160707 0.43749999999999944 0.23134393934234423
    vertex 1.5590169944753929 0.43749999999999944 0.1319660115318423
    vertex 1.0000000000903642 0.43749999999999944 0.18750000018071483
  endloop
endfacet
facet normal 0.0 -1.0 0.0
  outer loop
    vertex 0.2755416990160707 0.43749999999999944 0.23134393934234423
    vertex 1.0000000000903642 0.43749999999999944 0.18750000018071483
    vertex 0.983823809771072 0.43749999999999944 0.18962963603472666
  endloop
endfacet
facet normal 0.0 -1.0 0.0
  outer loop
    vertex 0.2755416990160707 0.43749999999999944 0.23134393934234423
    vertex 0.983823809771072 0.43749999999999944 0.18962963603472666
    vertex 0.9687500000888519 0.43749999999999944 0.1958734124385437
  endloop
endfacet
facet normal 0.0 -1.0 0.0
  outer loop
    vertex 0.2755416990160707 0.43749999999999944 0.23134393934234423
    vertex 0.9687500000888519 0.43749999999999944 0.1958734124385437
    vertex 0.9558058262628989 0.43749999999999944 0.2058058263485742
  endloop
endfacet
facet normal 0.0 -1.0 0.0
  outer loop
    vertex 0.2755416990160707 0.43749999999999944 0.23134393934234423
    vertex 0.9558058262628989 0.43749999999999944 0.2058058263485742
    vertex 0.945873412348193 0.43749999999999944 0.21875000017093965
  endloop
endfacet
facet normal 0.0 -1.0 0.0
  outer loop
    vertex 0.2755416990160707 0.43749999999999944 0.23134393934234423
    vertex 0.945873412348193 0.43749999999999944 0.21875000017093965
    vertex 0.9396296359389313 0.43749999999999944 0.23382380985090445
  endloop
endfacet
facet normal 0.0 -1.0 0.0
  outer loop
    vertex 0.2755416990160707 0.43749999999999944 0.23134393934234423
    vertex 0.9396296359389313 0.43749999999999944 0.23382380985090445
    vertex 0.12736999383304556 0.43749999999999944 0.3550045406869914
  endloop
endfacet
facet normal 0.0 -1.0 0.0
  outer loop
    vertex 0.12736999383304556 0.43749999999999944 0.3550045406869914
    vertex 0.9396296359389313 0.43749999999999944 0.23382380985090445
    vertex 0.9375000000790767 0.43749999999999944 0.2500000001694274
  endloop
endfacet
facet normal 0.0 -1.0 0.0
  outer loop
    vertex 0.12736999383304556 0.43749999999999944 0.3550045406869914
    vertex 0.9375000000790767 0.43749999999999944 0.2500000001694274
    vertex 0.9396296359330886 0.43749999999999944 0.26617619048871954
  endloop
endfacet
facet normal 0.0 -1.0 0.0
  outer loop
    vertex 0.12736999383304556 0.43749999999999944 0.3550045406869914
    vertex 0.9396296359330886 0.43749999999999944 0.26617619048871954
    vertex 0.9458734123369056 0.43749999999999944 0.28125000017093965
  endloop
endfacet
facet normal 0.0 -1.0 0.0
  outer loop
    vertex 0.12736999383304556 0.43749999999999944 0.3550045406869914
    vertex 0.9458734123369056 0.43749999999999944 0.28125000017093965
    vertex 0.9558058262469361 0.43749999999999944 0.2941941739968926
  endloop
endfacet
facet normal 0.0 -1.0 0.0
  outer loop
    vertex 0.12736999383304556 0.43749999999999944 0.3550045406869914
    vertex 0.9558058262469361 0.43749999999999944 0.2941941739968926
    vertex 0.9687500000693016 0.43749999999999944 0.3041265879115985
  endloop
endfacet
facet normal 0.0 -1.0 0.0
  outer loop
    vertex 0.12736999383304556 0.43749999999999944 0.3550045406869914
    vertex 0.9687500000693016 0.43749999999999944 0.3041265879115985
    vertex 0.9838238097492664 0.43749999999999944 0.3103703643208602
  endloop
endfacet
facet normal 0.0 -1.0 0.0
  outer loop
    vertex 0.12736999383304556 0.43749999999999944 0.3550045406869914
    vertex 0.9838238097492664 0.43749999999999944 0.3103703643208602
    vertex 1.0000000000677893 0.43749999999999944 0.31250000018071483
  endloop
endfacet
facet normal 0.0 -1.0 0.0
  outer loop
    vertex 0.12736999383304556 0.43749999999999944 0.3550045406869914
    vertex 1.0000000000677893 0.43749999999999944 0.31250000018071483
    vertex 1.8726300062872272 0.43749999999999944 0.3550045410023839
  endloop
endfacet
facet normal 0.0 -1.0 0.0
  outer loop
    vertex 0.12736999383304556 0.43749999999999944 0.3550045406869914
    vertex 1.8726300062872272 0.43749999999999944 0.3550045410023839
    vertex 2.0000000000339266 0.43749999999999944 0.5000000003614282
  endloop
endfacet
facet normal 0.0 -1.0 0.0
  outer loop
    vertex 0.12736999383304556 0.43749999999999944 0.3550045406869914
    vertex 2.0000000000339266 0.43749999999999944 0.5000000003614282
    vertex 3.3912345154263606e-11 0.43749999999999944 0.4999999999999992
  endloop
endfacet
facet normal 0.0 -1.0 0.0
  outer loop
    vertex 3.3912345154263606e-11 0.43749999999999944 0.4999999999999992
    vertex 2.0000000000339266 0.43749999999999944 0.5000000003614282
    vertex -3.4694468744054318e-18 0.43749999999999944 0.6875000000000001
  endloop
endfacet
facet normal 0.0 -1.0 0.0
  outer loop
    vertex -3.4694468744054318e-18 0.43749999999999944 0.6875000000000001
    vertex 2.0000000000339266 0.43749999999999944 0.5000000003614282
    vertex 1.9999999999999858 0.43749999999999944 0.6875000003614282
  endloop
endfacet
facet normal 1.807142560594785e-10 -1.4673516050260684e-24 -1.0
  outer loop
    vertex 1.9999999999999858 0.43749999999999944 0.6875000003614282
    vertex -3.4694468744054318e-18 -5.551115123125783e-16 0.6875000000000001
    vertex -3.4694468744054318e-18 0.43749999999999944 0.6875000000000001
  endloop
endfacet
facet normal 1.807142560594785e-10 -1.4673516050260684e-24 -1.0
  outer loop
    vertex -3.4694468744054318e-18 -5.551115123125783e-16 0.6875000000000001
    vertex 1.9999999999999858 0.43749999999999944 0.6875000003614282
    vertex 1.9999999999999858 -5.551115123125783e-16 0.6875000003614282
  endloop
endfacet
facet normal 1.807142560594788e-10 0.0 -1.0
  outer loop
    vertex 1.9999999999999858 1.500000000000003 0.6875000003614282
    vertex -3.4694468744054318e-18 1.0624999999999996 0.6875000000000001
    vertex -3.4694468744054318e-18 1.500000000000003 0.6875000000000001
  endloop
endfacet
facet normal 1.807142560594788e-10 0.0 -1.0
  outer loop
    vertex -3.4694468744054318e-18 1.0624999999999996 0.6875000000000001
    vertex 1.9999999999999858 1.500000000000003 0.6875000003614282
    vertex 1.9999999999999858 1.0624999999999996 0.6875000003614282
  endloop
endfacet
facet normal -2.651711398622289e-34 -1.0 1.4673516050260684e-24
  outer loop
    vertex 1.99999999992098 -5.551115123125783e-16 1.1250000003614282
    vertex -3.4694468744054318e-18 -5.551115123125783e-16 0.6875000000000001
    vertex 1.9999999999999858 -5.551115123125783e-16 0.6875000003614282
  endloop
endfacet
facet normal -2.651711398622289e-34 -1.0 1.4673516050260684e-24
  outer loop
    vertex -3.4694468744054318e-18 -5.551115123125783e-16 0.6875000000000001
    vertex 1.99999999992098 -5.551115123125783e-16 1.1250000003614282
    vertex -7.900565618390577e-11 -5.551115123125783e-16 1.125
  endloop
endfacet
facet normal -1.8071411034270664e-10 2.522636930173062e-16 1.0
  outer loop
    vertex -7.900565618390577e-11 -5.551115123125783e-16 1.125
    vertex 0.3359259943472562 0.5720619064920184 1.125000000060706
    vertex -7.900565618390556e-11 1.500000000000003 1.1249999999999991
  endloop
endfacet
facet normal -1.8071411034270664e-10 2.522636930173062e-16 1.0
  outer loop
    vertex 0.3359259943472562 0.5720619064920184 1.125000000060706
    vertex -7.900565618390577e-11 -5.551115123125783e-16 1.125
    vertex 0.4046075348191845 0.4062500000000012 1.1250000000731193
  endloop
endfacet
facet normal -1.8071411034270664e-10 2.522636930173062e-16 1.0
  outer loop
    vertex 0.4046075348191845 0.4062500000000012 1.1250000000731193
    vertex -7.900565618390577e-11 -5.551115123125783e-16 1.125
    vertex 0.5138640878552319 0.2638640879342494 1.1250000000928635
  endloop
endfacet
facet normal -1.8071411034270664e-10 2.522636930173062e-16 1.0
  outer loop
    vertex 0.5138640878552319 0.2638640879342494 1.1250000000928635
    vertex -7.900565618390577e-11 -5.551115123125783e-16 1.125
    vertex 0.6562499999209943 0.15460753489819934 1.1250000001185936
  endloop
endfacet
facet normal -1.8071411034270664e-10 2.522636930173062e-16 1.0
  outer loop
    vertex 0.6562499999209943 0.15460753489819934 1.1250000001185936
    vertex -7.900565618390577e-11 -5.551115123125783e-16 1.125
    vertex 0.8220619064130044 0.08592599442626658 1.125000000148558
  endloop
endfacet
facet normal -1.8071411034270664e-10 2.522636930173062e-16 1.0
  outer loop
    vertex 0.8220619064130044 0.08592599442626658 1.125000000148558
    vertex -7.900565618390577e-11 -5.551115123125783e-16 1.125
    vertex 0.9999999999209943 0.06250000000000122 1.1250000001807146
  endloop
endfacet
facet normal -1.8071411034270664e-10 2.522636930173062e-16 1.0
  outer loop
    vertex 0.9999999999209943 0.06250000000000122 1.1250000001807146
    vertex -7.900565618390577e-11 -5.551115123125783e-16 1.125
    vertex 1.99999999992098 -5.551115123125783e-16 1.1250000003614282
  endloop
endfacet
facet normal -1.8071411034270664e-10 2.522636930173062e-16 1.0
  outer loop
    vertex -7.900565618390556e-11 1.500000000000003 1.1249999999999991
    vertex 0.3359259943472562 0.5720619064920184 1.125000000060706
    vertex 0.31249999992099436 0.7500000000000012 1.1250000000564726
  endloop
endfacet
facet normal -1.8071411034270664e-10 2.522636930173062e-16 1.0
  outer loop
    vertex 0.9999999999209943 0.06250000000000122 1.1250000001807146
    vertex 1.99999999992098 -5.551115123125783e-16 1.1250000003614282
    vertex 1.17793809342897 0.08592599442626658 1.1250000002128706
  endloop
endfacet
facet normal -1.8071411034270664e-10 2.522636930173062e-16 1.0
  outer loop
    vertex 1.17793809342897 0.08592599442626658 1.1250000002128706
    vertex 1.99999999992098 -5.551115123125783e-16 1.1250000003614282
    vertex 1.3437499999209943 0.15460753489820023 1.1250000002428346
  endloop
endfacet
facet normal -1.8071411034270664e-10 2.522636930173062e-16 1.0
  outer loop
    vertex 1.3437499999209943 0.15460753489820023 1.1250000002428346
    vertex 1.99999999992098 -5.551115123125783e-16 1.1250000003614282
    vertex 1.4861359119867426 0.2638640879342503 1.1250000002685674
  endloop
endfacet
facet normal -1.8071411034270664e-10 2.522636930173062e-16 1.0
  outer loop
    vertex 1.4861359119867426 0.2638640879342503 1.1250000002685674
    vertex 1.99999999992098 -5.551115123125783e-16 1.1250000003614282
    vertex 1.59539246502279 0.4062500000000012 1.1250000002883116
  endloop
endfacet
facet normal -1.8071411034270664e-10 2.522636930173062e-16 1.0
  outer loop
    vertex 1.59539246502279 0.4062500000000012 1.1250000002883116
    vertex 1.99999999992098 -5.551115123125783e-16 1.1250000003614282
    vertex 1.6640740054947183 0.5720619064920184 1.1250000003007217
  endloop
endfacet
facet normal -1.8071411034270664e-10 2.522636930173062e-16 1.0
  outer loop
    vertex 1.6640740054947183 0.5720619064920184 1.1250000003007217
    vertex 1.99999999992098 -5.551115123125783e-16 1.1250000003614282
    vertex 1.6874999999209943 0.7500000000000012 1.1250000003049547
  endloop
endfacet
facet normal -1.8071411034270664e-10 2.522636930173062e-16 1.0
  outer loop
    vertex -7.900565618390556e-11 1.500000000000003 1.1249999999999991
    vertex 0.9999999999209943 1.4375000000000013 1.1250000001807137
    vertex 1.99999999992098 1.500000000000003 1.1250000003614282
  endloop
endfacet
facet normal -1.8071411034270664e-10 2.522636930173062e-16 1.0
  outer loop
    vertex 0.9999999999209943 1.4375000000000013 1.1250000001807137
    vertex -7.900565618390556e-11 1.500000000000003 1.1249999999999991
    vertex 0.8220619064130044 1.414074005573736 1.1250000001485572
  endloop
endfacet
facet normal -1.8071411034270664e-10 2.522636930173062e-16 1.0
  outer loop
    vertex 0.8220619064130044 1.414074005573736 1.1250000001485572
    vertex -7.900565618390556e-11 1.500000000000003 1.1249999999999991
    vertex 0.6562499999209943 1.3453924651018023 1.1250000001185927
  endloop
endfacet
facet normal -1.8071411034270664e-10 2.522636930173062e-16 1.0
  outer loop
    vertex 0.6562499999209943 1.3453924651018023 1.1250000001185927
    vertex -7.900565618390556e-11 1.500000000000003 1.1249999999999991
    vertex 0.5138640878552319 1.2361359120657531 1.1250000000928635
  endloop
endfacet
facet normal -1.8071411034270664e-10 2.522636930173062e-16 1.0
  outer loop
    vertex 0.5138640878552319 1.2361359120657531 1.1250000000928635
    vertex -7.900565618390556e-11 1.500000000000003 1.1249999999999991
    vertex 0.4046075348191845 1.0937500000000013 1.1250000000731193
  endloop
endfacet
facet normal -1.8071411034270664e-10 2.522636930173062e-16 1.0
  outer loop
    vertex 0.4046075348191845 1.0937500000000013 1.1250000000731193
    vertex -7.900565618390556e-11 1.500000000000003 1.1249999999999991
    vertex 0.3359259943472562 0.9279380935079841 1.125000000060706
  endloop
endfacet
facet normal -1.8071411034270664e-10 2.522636930173062e-16 1.0
  outer loop
    vertex 0.3359259943472562 0.9279380935079841 1.125000000060706
    vertex -7.900565618390556e-11 1.500000000000003 1.1249999999999991
    vertex 0.31249999992099436 0.7500000000000012 1.1250000000564726
  endloop
endfacet
facet normal -1.8071411034270664e-10 2.522636930173062e-16 1.0
  outer loop
    vertex 1.99999999992098 1.500000000000003 1.1250000003614282
    vertex 0.9999999999209943 1.4375000000000013 1.1250000001807137
    vertex 1.17793809342897 1.414074005573736 1.1250000002128697
  endloop
endfacet
facet normal -1.8071411034270664e-10 2.522636930173062e-16 1.0
  outer loop
    vertex 1.99999999992098 1.500000000000003 1.1250000003614282
    vertex 1.17793809342897 1.414074005573736 1.1250000002128697
    vertex 1.3437499999209943 1.3453924651018023 1.1250000002428338
  endloop
endfacet
facet normal -1.8071411034270664e-10 2.522636930173062e-16 1.0
  outer loop
    vertex 1.99999999992098 1.500000000000003 1.1250000003614282
    vertex 1.3437499999209943 1.3453924651018023 1.1250000002428338
    vertex 1.4861359119867426 1.2361359120657531 1.1250000002685665
  endloop
endfacet
facet normal -1.8071411034270664e-10 2.522636930173062e-16 1.0
  outer loop
    vertex 1.99999999992098 1.500000000000003 1.1250000003614282
    vertex 1.4861359119867426 1.2361359120657531 1.1250000002685665
    vertex 1.59539246502279 1.0937500000000013 1.1250000002883107
  endloop
endfacet
facet normal -1.8071411034270664e-10 2.522636930173062e-16 1.0
  outer loop
    vertex 1.99999999992098 1.500000000000003 1.1250000003614282
    vertex 1.59539246502279 1.0937500000000013 1.1250000002883107
    vertex 1.6640740054947183 0.9279380935079841 1.1250000003007217
  endloop
endfacet
facet normal -1.8071411034270664e-10 2.522636930173062e-16 1.0
  outer loop
    vertex 1.99999999992098 1.500000000000003 1.1250000003614282
    vertex 1.6640740054947183 0.9279380935079841 1.1250000003007217
    vertex 1.6874999999209943 0.7500000000000012 1.1250000003049547
  endloop
endfacet
facet normal -1.8071411034270664e-10 2.522636930173062e-16 1.0
  outer loop
    vertex 1.99999999992098 1.500000000000003 1.1250000003614282
    vertex 1.6874999999209943 0.7500000000000012 1.1250000003049547
    vertex 1.99999999992098 -5.551115123125783e-16 1.1250000003614282
  endloop
endfacet
facet normal 0.0 1.0 0.0
  outer loop
    vertex -3.4694468744054318e-18 1.500000000000003 0.6875000000000001
    vertex 1.99999999992098 1.500000000000003 1.1250000003614282
    vertex 1.9999999999999858 1.500000000000003 0.6875000003614282
  endloop
endfacet
facet normal 0.0 1.0 0.0
  outer loop
    vertex 1.99999999992098 1.500000000000003 1.1250000003614282
    vertex -3.4694468744054318e-18 1.500000000000003 0.6875000000000001
    vertex -7.900565618390556e-11 1.500000000000003 1.1249999999999991
  endloop
endfacet
facet normal -1.0 -1.7597997946902737e-16 -1.8069376419609754e-10
  outer loop
    vertex -7.900565618390556e-11 1.500000000000003 1.1249999999999991
    vertex -3.4694468744054318e-18 -5.551115123125783e-16 0.6875000000000001
    vertex -7.900565618390577e-11 -5.551115123125783e-16 1.125
  endloop
endfacet
facet normal -1.0 -1.7597997946902737e-16 -1.8069376419609754e-10
  outer loop
    vertex -3.4694468744054318e-18 -5.551115123125783e-16 0.6875000000000001
    vertex -7.900565618390556e-11 1.500000000000003 1.1249999999999991
    vertex -3.4694468744054318e-18 0.43749999999999944 0.6875000000000001
  endloop
endfacet
facet normal -1.0 -1.7597997946902737e-16 -1.8069376419609754e-10
  outer loop
    vertex -3.4694468744054318e-18 0.43749999999999944 0.6875000000000001
    vertex -7.900565618390556e-11 1.500000000000003 1.1249999999999991
    vertex 3.3912345154263606e-11 0.43749999999999944 0.4999999999999992
  endloop
endfacet
facet normal -1.0 -1.7597997946902737e-16 -1.8069376419609754e-10
  outer loop
    vertex 3.3912345154263606e-11 0.43749999999999944 0.4999999999999992
    vertex -7.900565618390556e-11 1.500000000000003 1.1249999999999991
    vertex -3.4694468744054318e-18 1.0624999999999996 0.6875000000000001
  endloop
endfacet
facet normal -1.0 -1.7597997946902737e-16 -1.8069376419609754e-10
  outer loop
    vertex -3.4694468744054318e-18 1.0624999999999996 0.6875000000000001
    vertex -7.900565618390556e-11 1.500000000000003 1.1249999999999991
    vertex -3.4694468744054318e-18 1.500000000000003 0.6875000000000001
  endloop
endfacet
facet normal -1.0 -1.7597997946902737e-16 -1.8069376419609754e-10
  outer loop
    vertex 3.3912345154263606e-11 1.0624999999999996 0.4999999999999992
    vertex 3.3912345154263606e-11 0.43749999999999944 0.4999999999999992
    vertex -3.4694468744054318e-18 1.0624999999999996 0.6875000000000001
  endloop
endfacet
facet normal 1.0 6.033599295507738e-16 1.8072276559196042e-10
  outer loop
    vertex 2.0000000000339266 1.0624999999999996 0.5000000003614282
    vertex 1.9999999999999858 0.43749999999999944 0.6875000003614282
    vertex 2.0000000000339266 0.43749999999999944 0.5000000003614282
  endloop
endfacet
facet normal 1.0 6.033599295507738e-16 1.8072276559196042e-10
  outer loop
    vertex 1.9999999999999858 0.43749999999999944 0.6875000003614282
    vertex 1.99999999992098 -5.551115123125783e-16 1.1250000003614282
    vertex 1.9999999999999858 -5.551115123125783e-16 0.6875000003614282
  endloop
endfacet
facet normal 1.0 6.033599295507738e-16 1.8072276559196042e-10
  outer loop
    vertex 1.99999999992098 -5.551115123125783e-16 1.1250000003614282
    vertex 1.9999999999999858 0.43749999999999944 0.6875000003614282
    vertex 1.99999999992098 1.500000000000003 1.1250000003614282
  endloop
endfacet
facet normal 1.0 6.033599295507738e-16 1.8072276559196042e-10
  outer loop
    vertex 1.99999999992098 1.500000000000003 1.1250000003614282
    vertex 1.9999999999999858 0.43749999999999944 0.6875000003614282
    vertex 1.9999999999999858 1.0624999999999996 0.6875000003614282
  endloop
endfacet
facet normal 1.0 6.033599295507738e-16 1.8072276559196042e-10
  outer loop
    vertex 1.9999999999999858 1.0624999999999996 0.6875000003614282
    vertex 1.9999999999999858 0.43749999999999944 0.6875000003614282
    vertex 2.0000000000339266 1.0624999999999996 0.5000000003614282
  endloop
endfacet
facet normal 1.0 6.033599295507738e-16 1.8072276559196042e-10
  outer loop
    vertex 1.99999999992098 1.500000000000003 1.1250000003614282
    vertex 1.9999999999999858 1.0624999999999996 0.6875000003614282
    vertex 1.9999999999999858 1.500000000000003 0.6875000003614282
  endloop
endfacet
facet normal -1.807142587880992e-10 6.320610557572961e-16 1.0
  outer loop
    vertex 0.33592599439236365 0.5720619064920184 0.8750000000607072
    vertex 0.33592599439236365 0.9279380935079841 0.8750000000607072
    vertex 0.31249999996610184 0.7500000000000012 0.875000000056471
  endloop
endfacet
facet normal -1.807142587880992e-10 6.320610557572961e-16 1.0
  outer loop
    vertex 0.33592599439236365 0.9279380935079841 0.8750000000607072
    vertex 0.33592599439236365 0.5720619064920184 0.8750000000607072
    vertex 0.4046075348643062 0.4062500000000012 0.8750000000731194
  endloop
endfacet
facet normal -1.807142587880992e-10 6.320610557572961e-16 1.0
  outer loop
    vertex 0.33592599439236365 0.9279380935079841 0.8750000000607072
    vertex 0.4046075348643062 0.4062500000000012 0.8750000000731194
    vertex 0.4046075348643062 1.0937500000000013 0.8750000000731194
  endloop
endfacet
facet normal -1.807142587880992e-10 6.320610557572961e-16 1.0
  outer loop
    vertex 0.4046075348643062 1.0937500000000013 0.8750000000731194
    vertex 0.4046075348643062 0.4062500000000012 0.8750000000731194
    vertex 0.5138640879003536 0.2638640879342494 0.8750000000928636
  endloop
endfacet
facet normal -1.807142587880992e-10 6.320610557572961e-16 1.0
  outer loop
    vertex 0.4046075348643062 1.0937500000000013 0.8750000000731194
    vertex 0.5138640879003536 0.2638640879342494 0.8750000000928636
    vertex 0.5138640879003536 1.2361359120657531 0.8750000000928636
  endloop
endfacet
facet normal -1.807142587880992e-10 6.320610557572961e-16 1.0
  outer loop
    vertex 0.5138640879003536 1.2361359120657531 0.8750000000928636
    vertex 0.5138640879003536 0.2638640879342494 0.8750000000928636
    vertex 0.6562499999661019 0.15460753489819934 0.875000000118592
  endloop
endfacet
facet normal -1.807142587880992e-10 6.320610557572961e-16 1.0
  outer loop
    vertex 0.5138640879003536 1.2361359120657531 0.8750000000928636
    vertex 0.6562499999661019 0.15460753489819934 0.875000000118592
    vertex 0.6562499999661019 1.3453924651018023 0.8750000001185911
  endloop
endfacet
facet normal -1.807142587880992e-10 6.320610557572961e-16 1.0
  outer loop
    vertex 0.6562499999661019 1.3453924651018023 0.8750000001185911
    vertex 0.6562499999661019 0.15460753489819934 0.875000000118592
    vertex 0.8220619064581262 0.08592599442626658 0.8750000001485579
  endloop
endfacet
facet normal -1.807142587880992e-10 6.320610557572961e-16 1.0
  outer loop
    vertex 0.6562499999661019 1.3453924651018023 0.8750000001185911
    vertex 0.8220619064581262 0.08592599442626658 0.8750000001485579
    vertex 0.8220619064581262 1.414074005573736 0.8750000001485571
  endloop
endfacet
facet normal -1.807142587880992e-10 6.320610557572961e-16 1.0
  outer loop
    vertex 0.8220619064581262 1.414074005573736 0.8750000001485571
    vertex 0.8220619064581262 0.08592599442626658 0.8750000001485579
    vertex 0.9999999999661019 0.06250000000000122 0.8750000001807126
  endloop
endfacet
facet normal -1.807142587880992e-10 6.320610557572961e-16 1.0
  outer loop
    vertex 0.8220619064581262 1.414074005573736 0.8750000001485571
    vertex 0.9999999999661019 0.06250000000000122 0.8750000001807126
    vertex 0.9999999999661019 1.4375000000000013 0.8750000001807117
  endloop
endfacet
facet normal -1.807142587880992e-10 6.320610557572961e-16 1.0
  outer loop
    vertex 0.9999999999661019 1.4375000000000013 0.8750000001807117
    vertex 0.9999999999661019 0.06250000000000122 0.8750000001807126
    vertex 1.1779380934740917 0.08592599442626658 0.8750000002128713
  endloop
endfacet
facet normal -1.807142587880992e-10 6.320610557572961e-16 1.0
  outer loop
    vertex 0.9999999999661019 1.4375000000000013 0.8750000001807117
    vertex 1.1779380934740917 0.08592599442626658 0.8750000002128713
    vertex 1.1779380934740917 1.414074005573736 0.8750000002128704
  endloop
endfacet
facet normal -1.807142587880992e-10 6.320610557572961e-16 1.0
  outer loop
    vertex 1.1779380934740917 1.414074005573736 0.8750000002128704
    vertex 1.1779380934740917 0.08592599442626658 0.8750000002128713
    vertex 1.3437499999661018 0.15460753489820023 0.8750000002428345
  endloop
endfacet
facet normal -1.807142587880992e-10 6.320610557572961e-16 1.0
  outer loop
    vertex 1.1779380934740917 1.414074005573736 0.8750000002128704
    vertex 1.3437499999661018 0.15460753489820023 0.8750000002428345
    vertex 1.3437499999661018 1.3453924651018023 0.8750000002428336
  endloop
endfacet
facet normal -1.807142587880992e-10 6.320610557572961e-16 1.0
  outer loop
    vertex 1.3437499999661018 1.3453924651018023 0.8750000002428336
    vertex 1.3437499999661018 0.15460753489820023 0.8750000002428345
    vertex 1.48613591203185 0.2638640879342503 0.8750000002685661
  endloop
endfacet
facet normal -1.807142587880992e-10 6.320610557572961e-16 1.0
  outer loop
    vertex 1.3437499999661018 1.3453924651018023 0.8750000002428336
    vertex 1.48613591203185 0.2638640879342503 0.8750000002685661
    vertex 1.48613591203185 1.2361359120657531 0.8750000002685656
  endloop
endfacet
facet normal -1.807142587880992e-10 6.320610557572961e-16 1.0
  outer loop
    vertex 1.48613591203185 1.2361359120657531 0.8750000002685656
    vertex 1.48613591203185 0.2638640879342503 0.8750000002685661
    vertex 1.5953924650679117 0.4062500000000012 0.8750000002883103
  endloop
endfacet
facet normal -1.807142587880992e-10 6.320610557572961e-16 1.0
  outer loop
    vertex 1.48613591203185 1.2361359120657531 0.8750000002685656
    vertex 1.5953924650679117 0.4062500000000012 0.8750000002883103
    vertex 1.5953924650679117 1.0937500000000013 0.8750000002883098
  endloop
endfacet
facet normal -1.807142587880992e-10 6.320610557572961e-16 1.0
  outer loop
    vertex 1.5953924650679117 1.0937500000000013 0.8750000002883098
    vertex 1.5953924650679117 0.4062500000000012 0.8750000002883103
    vertex 1.66407400553984 0.5720619064920184 0.8750000003007216
  endloop
endfacet
facet normal -1.807142587880992e-10 6.320610557572961e-16 1.0
  outer loop
    vertex 1.5953924650679117 1.0937500000000013 0.8750000002883098
    vertex 1.66407400553984 0.5720619064920184 0.8750000003007216
    vertex 1.66407400553984 0.9279380935079841 0.8750000003007216
  endloop
endfacet
facet normal -1.807142587880992e-10 6.320610557572961e-16 1.0
  outer loop
    vertex 1.66407400553984 0.9279380935079841 0.8750000003007216
    vertex 1.66407400553984 0.5720619064920184 0.8750000003007216
    vertex 1.6874999999661018 0.7500000000000012 0.8750000003049546
  endloop
endfacet
facet normal 0.13052619222005069 0.9914448613738106 2.3587317425793613e-11
  outer loop
    vertex 0.8220619064581262 0.08592599442626658 0.8750000001485579
    vertex 0.9999999999209943 0.06250000000000122 1.1250000001807146
    vertex 0.9999999999661019 0.06250000000000122 0.8750000001807126
  endloop
endfacet
facet normal 0.13052619222005069 0.9914448613738106 2.3587317425793613e-11
  outer loop
    vertex 0.9999999999209943 0.06250000000000122 1.1250000001807146
    vertex 0.8220619064581262 0.08592599442626658 0.8750000001485579
    vertex 0.8220619064130044 0.08592599442626658 1.125000000148558
  endloop
endfacet
facet normal -0.13052619222005069 0.9914448613738106 -2.3588570733165227e-11
  outer loop
    vertex 0.9999999999209943 0.06250000000000122 1.1250000001807146
    vertex 1.1779380934740917 0.08592599442626658 0.8750000002128713
    vertex 0.9999999999661019 0.06250000000000122 0.8750000001807126
  endloop
endfacet
facet normal -0.13052619222005069 0.9914448613738106 -2.3588570733165227e-11
  outer loop
    vertex 1.1779380934740917 0.08592599442626658 0.8750000002128713
    vertex 0.9999999999209943 0.06250000000000122 1.1250000001807146
    vertex 1.17793809342897 0.08592599442626658 1.1250000002128706
  endloop
endfacet
facet normal -0.38268343236509306 0.9238795325112854 -6.91569367786162e-11
  outer loop
    vertex 1.1779380934740917 0.08592599442626658 0.8750000002128713
    vertex 1.3437499999209943 0.15460753489820023 1.1250000002428346
    vertex 1.3437499999661018 0.15460753489820023 0.8750000002428345
  endloop
endfacet
facet normal -0.38268343236509306 0.9238795325112854 -6.91569367786162e-11
  outer loop
    vertex 1.3437499999209943 0.15460753489820023 1.1250000002428346
    vertex 1.1779380934740917 0.08592599442626658 0.8750000002128713
    vertex 1.17793809342897 0.08592599442626658 1.1250000002128706
  endloop
endfacet
facet normal -0.6087614290087194 0.7933533402912362 -1.1001237186984466e-10
  outer loop
    vertex 1.3437499999209943 0.15460753489820023 1.1250000002428346
    vertex 1.48613591203185 0.2638640879342503 0.8750000002685661
    vertex 1.3437499999661018 0.15460753489820023 0.8750000002428345
  endloop
endfacet
facet normal -0.6087614290087194 0.7933533402912362 -1.1001237186984466e-10
  outer loop
    vertex 1.48613591203185 0.2638640879342503 0.8750000002685661
    vertex 1.3437499999209943 0.15460753489820023 1.1250000002428346
    vertex 1.4861359119867426 0.2638640879342503 1.1250000002685674
  endloop
endfacet
facet normal -0.793353340291232 0.608761429008725 -1.4337064562218413e-10
  outer loop
    vertex 1.59539246502279 0.4062500000000012 1.1250000002883116
    vertex 1.48613591203185 0.2638640879342503 0.8750000002685661
    vertex 1.4861359119867426 0.2638640879342503 1.1250000002685674
  endloop
endfacet
facet normal -0.793353340291232 0.608761429008725 -1.4337064562218413e-10
  outer loop
    vertex 1.48613591203185 0.2638640879342503 0.8750000002685661
    vertex 1.59539246502279 0.4062500000000012 1.1250000002883116
    vertex 1.5953924650679117 0.4062500000000012 0.8750000002883103
  endloop
endfacet
facet normal -0.923879532511289 0.3826834323650846 -1.6695844680656748e-10
  outer loop
    vertex 1.6640740054947183 0.5720619064920184 1.1250000003007217
    vertex 1.5953924650679117 0.4062500000000012 0.8750000002883103
    vertex 1.59539246502279 0.4062500000000012 1.1250000002883116
  endloop
endfacet
facet normal -0.923879532511289 0.3826834323650846 -1.6695844680656748e-10
  outer loop
    vertex 1.5953924650679117 0.4062500000000012 0.8750000002883103
    vertex 1.6640740054947183 0.5720619064920184 1.1250000003007217
    vertex 1.66407400553984 0.5720619064920184 0.8750000003007216
  endloop
endfacet
facet normal -0.9914448613738106 0.13052619222005069 -1.791683057529608e-10
  outer loop
    vertex 1.6874999999209943 0.7500000000000012 1.1250000003049547
    vertex 1.66407400553984 0.5720619064920184 0.8750000003007216
    vertex 1.6640740054947183 0.5720619064920184 1.1250000003007217
  endloop
endfacet
facet normal -0.9914448613738106 0.13052619222005069 -1.791683057529608e-10
  outer loop
    vertex 1.66407400553984 0.5720619064920184 0.8750000003007216
    vertex 1.6874999999209943 0.7500000000000012 1.1250000003049547
    vertex 1.6874999999661018 0.7500000000000012 0.8750000003049546
  endloop
endfacet
facet normal -0.9914448613738106 -0.13052619222005069 -1.791681407519151e-10
  outer loop
    vertex 1.6640740054947183 0.9279380935079841 1.1250000003007217
    vertex 1.6874999999661018 0.7500000000000012 0.8750000003049546
    vertex 1.6874999999209943 0.7500000000000012 1.1250000003049547
  endloop
endfacet
facet normal -0.9914448613738106 -0.13052619222005069 -1.791681407519151e-10
  outer loop
    vertex 1.6874999999661018 0.7500000000000012 0.8750000003049546
    vertex 1.6640740054947183 0.9279380935079841 1.1250000003007217
    vertex 1.66407400553984 0.9279380935079841 0.8750000003007216
  endloop
endfacet
facet normal -0.923879532511289 -0.3826834323650846 -1.6695796304797888e-10
  outer loop
    vertex 1.59539246502279 1.0937500000000013 1.1250000002883107
    vertex 1.66407400553984 0.9279380935079841 0.8750000003007216
    vertex 1.6640740054947183 0.9279380935079841 1.1250000003007217
  endloop
endfacet
facet normal -0.923879532511289 -0.3826834323650846 -1.6695796304797888e-10
  outer loop
    vertex 1.66407400553984 0.9279380935079841 0.8750000003007216
    vertex 1.59539246502279 1.0937500000000013 1.1250000002883107
    vertex 1.5953924650679117 1.0937500000000013 0.8750000002883098
  endloop
endfacet
facet normal -0.7933533402912337 -0.6087614290087225 -1.433698760734014e-10
  outer loop
    vertex 1.4861359119867426 1.2361359120657531 1.1250000002685665
    vertex 1.5953924650679117 1.0937500000000013 0.8750000002883098
    vertex 1.59539246502279 1.0937500000000013 1.1250000002883107
  endloop
endfacet
facet normal -0.7933533402912337 -0.6087614290087225 -1.433698760734014e-10
  outer loop
    vertex 1.5953924650679117 1.0937500000000013 0.8750000002883098
    vertex 1.4861359119867426 1.2361359120657531 1.1250000002685665
    vertex 1.48613591203185 1.2361359120657531 0.8750000002685656
  endloop
endfacet
facet normal -0.6087614290087163 -0.7933533402912385 -1.1001136897434437e-10
  outer loop
    vertex 1.48613591203185 1.2361359120657531 0.8750000002685656
    vertex 1.3437499999209943 1.3453924651018023 1.1250000002428338
    vertex 1.3437499999661018 1.3453924651018023 0.8750000002428336
  endloop
endfacet
facet normal -0.6087614290087163 -0.7933533402912385 -1.1001136897434437e-10
  outer loop
    vertex 1.3437499999209943 1.3453924651018023 1.1250000002428338
    vertex 1.48613591203185 1.2361359120657531 0.8750000002685656
    vertex 1.4861359119867426 1.2361359120657531 1.1250000002685665
  endloop
endfacet
facet normal -0.38268343236509306 -0.9238795325112854 -6.915576888207078e-11
  outer loop
    vertex 1.3437499999209943 1.3453924651018023 1.1250000002428338
    vertex 1.1779380934740917 1.414074005573736 0.8750000002128704
    vertex 1.3437499999661018 1.3453924651018023 0.8750000002428336
  endloop
endfacet
facet normal -0.38268343236509306 -0.9238795325112854 -6.915576888207078e-11
  outer loop
    vertex 1.1779380934740917 1.414074005573736 0.8750000002128704
    vertex 1.3437499999209943 1.3453924651018023 1.1250000002428338
    vertex 1.17793809342897 1.414074005573736 1.1250000002128697
  endloop
endfacet
facet normal -0.13052619222005069 -0.9914448613738106 -2.3587317425793613e-11
  outer loop
    vertex 1.1779380934740917 1.414074005573736 0.8750000002128704
    vertex 0.9999999999209943 1.4375000000000013 1.1250000001807137
    vertex 0.9999999999661019 1.4375000000000013 0.8750000001807117
  endloop
endfacet
facet normal -0.13052619222005069 -0.9914448613738106 -2.3587317425793613e-11
  outer loop
    vertex 0.9999999999209943 1.4375000000000013 1.1250000001807137
    vertex 1.1779380934740917 1.414074005573736 0.8750000002128704
    vertex 1.17793809342897 1.414074005573736 1.1250000002128697
  endloop
endfacet
facet normal 0.13052619222005069 -0.9914448613738106 2.3588570733165227e-11
  outer loop
    vertex 0.9999999999209943 1.4375000000000013 1.1250000001807137
    vertex 0.8220619064581262 1.414074005573736 0.8750000001485571
    vertex 0.9999999999661019 1.4375000000000013 0.8750000001807117
  endloop
endfacet
facet normal 0.13052619222005069 -0.9914448613738106 2.3588570733165227e-11
  outer loop
    vertex 0.8220619064581262 1.414074005573736 0.8750000001485571
    vertex 0.9999999999209943 1.4375000000000013 1.1250000001807137
    vertex 0.8220619064130044 1.414074005573736 1.1250000001485572
  endloop
endfacet
facet normal 0.38268343236509306 -0.9238795325112854 6.91569367786162e-11
  outer loop
    vertex 0.8220619064581262 1.414074005573736 0.8750000001485571
    vertex 0.6562499999209943 1.3453924651018023 1.1250000001185927
    vertex 0.6562499999661019 1.3453924651018023 0.8750000001185911
  endloop
endfacet
facet normal 0.38268343236509306 -0.9238795325112854 6.91569367786162e-11
  outer loop
    vertex 0.6562499999209943 1.3453924651018023 1.1250000001185927
    vertex 0.8220619064581262 1.414074005573736 0.8750000001485571
    vertex 0.8220619064130044 1.414074005573736 1.1250000001485572
  endloop
endfacet
facet normal 0.6087614290087163 -0.7933533402912385 1.1001237186984409e-10
  outer loop
    vertex 0.6562499999209943 1.3453924651018023 1.1250000001185927
    vertex 0.5138640879003536 1.2361359120657531 0.8750000000928636
    vertex 0.6562499999661019 1.3453924651018023 0.8750000001185911
  endloop
endfacet
facet normal 0.6087614290087163 -0.7933533402912385 1.1001237186984409e-10
  outer loop
    vertex 0.5138640879003536 1.2361359120657531 0.8750000000928636
    vertex 0.6562499999209943 1.3453924651018023 1.1250000001185927
    vertex 0.5138640878552319 1.2361359120657531 1.1250000000928635
  endloop
endfacet
facet normal 0.7933533402912385 -0.6087614290087163 1.4337064562218532e-10
  outer loop
    vertex 0.5138640879003536 1.2361359120657531 0.8750000000928636
    vertex 0.4046075348191845 1.0937500000000013 1.1250000000731193
    vertex 0.4046075348643062 1.0937500000000013 0.8750000000731194
  endloop
endfacet
facet normal 0.7933533402912385 -0.6087614290087163 1.4337064562218532e-10
  outer loop
    vertex 0.4046075348191845 1.0937500000000013 1.1250000000731193
    vertex 0.5138640879003536 1.2361359120657531 0.8750000000928636
    vertex 0.5138640878552319 1.2361359120657531 1.1250000000928635
  endloop
endfacet
facet normal 0.9238795325112854 -0.38268343236509306 1.6695844680656684e-10
  outer loop
    vertex 0.4046075348643062 1.0937500000000013 0.8750000000731194
    vertex 0.3359259943472562 0.9279380935079841 1.125000000060706
    vertex 0.33592599439236365 0.9279380935079841 0.8750000000607072
  endloop
endfacet
facet normal 0.9238795325112854 -0.38268343236509306 1.6695844680656684e-10
  outer loop
    vertex 0.3359259943472562 0.9279380935079841 1.125000000060706
    vertex 0.4046075348643062 1.0937500000000013 0.8750000000731194
    vertex 0.4046075348191845 1.0937500000000013 1.1250000000731193
  endloop
endfacet
facet normal 0.9914448613738106 -0.13052619222005069 1.791683057529608e-10
  outer loop
    vertex 0.33592599439236365 0.9279380935079841 0.8750000000607072
    vertex 0.31249999992099436 0.7500000000000012 1.1250000000564726
    vertex 0.31249999996610184 0.7500000000000012 0.875000000056471
  endloop
endfacet
facet normal 0.9914448613738106 -0.13052619222005069 1.791683057529608e-10
  outer loop
    vertex 0.31249999992099436 0.7500000000000012 1.1250000000564726
    vertex 0.33592599439236365 0.9279380935079841 0.8750000000607072
    vertex 0.3359259943472562 0.9279380935079841 1.125000000060706
  endloop
endfacet
facet normal 0.9914448613738106 0.13052619222005069 1.791681407519151e-10
  outer loop
    vertex 0.31249999996610184 0.7500000000000012 0.875000000056471
    vertex 0.3359259943472562 0.5720619064920184 1.125000000060706
    vertex 0.33592599439236365 0.5720619064920184 0.8750000000607072
  endloop
endfacet
facet normal 0.9914448613738106 0.13052619222005069 1.791681407519151e-10
  outer loop
    vertex 0.3359259943472562 0.5720619064920184 1.125000000060706
    vertex 0.31249999996610184 0.7500000000000012 0.875000000056471
    vertex 0.31249999992099436 0.7500000000000012 1.1250000000564726
  endloop
endfacet
facet normal 0.9238795325112854 0.38268343236509306 1.6695796304797826e-10
  outer loop
    vertex 0.33592599439236365 0.5720619064920184 0.8750000000607072
    vertex 0.4046075348191845 0.4062500000000012 1.1250000000731193
    vertex 0.4046075348643062 0.4062500000000012 0.8750000000731194
  endloop
endfacet
facet normal 0.9238795325112854 0.38268343236509306 1.6695796304797826e-10
  outer loop
    vertex 0.4046075348191845 0.4062500000000012 1.1250000000731193
    vertex 0.33592599439236365 0.5720619064920184 0.8750000000607072
    vertex 0.3359259943472562 0.5720619064920184 1.125000000060706
  endloop
endfacet
facet normal 0.7933533402912385 0.6087614290087163 1.4336987607340227e-10
  outer loop
    vertex 0.4046075348643062 0.4062500000000012 0.8750000000731194
    vertex 0.5138640878552319 0.2638640879342494 1.1250000000928635
    vertex 0.5138640879003536 0.2638640879342494 0.8750000000928636
  endloop
endfacet
facet normal 0.7933533402912385 0.6087614290087163 1.4336987607340227e-10
  outer loop
    vertex 0.5138640878552319 0.2638640879342494 1.1250000000928635
    vertex 0.4046075348643062 0.4062500000000012 0.8750000000731194
    vertex 0.4046075348191845 0.4062500000000012 1.1250000000731193
  endloop
endfacet
facet normal 0.6087614290087194 0.7933533402912362 1.1001136897434494e-10
  outer loop
    vertex 0.5138640879003536 0.2638640879342494 0.8750000000928636
    vertex 0.6562499999209943 0.15460753489819934 1.1250000001185936
    vertex 0.6562499999661019 0.15460753489819934 0.875000000118592
  endloop
endfacet
facet normal 0.6087614290087194 0.7933533402912362 1.1001136897434494e-10
  outer loop
    vertex 0.6562499999209943 0.15460753489819934 1.1250000001185936
    vertex 0.5138640879003536 0.2638640879342494 0.8750000000928636
    vertex 0.5138640878552319 0.2638640879342494 1.1250000000928635
  endloop
endfacet
facet normal 0.38268343236508884 0.9238795325112872 6.915576888207001e-11
  outer loop
    vertex 0.6562499999209943 0.15460753489819934 1.1250000001185936
    vertex 0.8220619064581262 0.08592599442626658 0.8750000001485579
    vertex 0.6562499999661019 0.15460753489819934 0.875000000118592
  endloop
endfacet
facet normal 0.38268343236508884 0.9238795325112872 6.915576888207001e-11
  outer loop
    vertex 0.8220619064581262 0.08592599442626658 0.8750000001485579
    vertex 0.6562499999209943 0.15460753489819934 1.1250000001185936
    vertex 0.8220619064130044 0.08592599442626658 1.125000000148558
  endloop
endfacet
facet normal 0.0 1.0 0.0
  outer loop
    vertex 0.8075816363890201 1.0624999999999996 0.014898719562651925
    vertex 1.1924183638541765 1.0624999999999996 0.014898719632197415
    vertex 1.000000000124241 1.0624999999999996 1.8071483198767164e-10
  endloop
endfacet
facet normal 0.0 1.0 0.0
  outer loop
    vertex 1.1924183638541765 1.0624999999999996 0.014898719632197415
    vertex 0.8075816363890201 1.0624999999999996 0.014898719562651925
    vertex 0.6197501321874535 1.0624999999999996 0.05923972283442753
  endloop
endfacet
facet normal 0.0 1.0 0.0
  outer loop
    vertex 1.1924183638541765 1.0624999999999996 0.014898719632197415
    vertex 0.6197501321874535 1.0624999999999996 0.05923972283442753
    vertex 1.3802498680397173 1.0624999999999996 0.05923972297186069
  endloop
endfacet
facet normal 0.0 1.0 0.0
  outer loop
    vertex 1.3802498680397173 1.0624999999999996 0.05923972297186069
    vertex 0.6197501321874535 1.0624999999999996 0.05923972283442753
    vertex 0.44098300572549254 1.0624999999999996 0.1319660113297969
  endloop
endfacet
facet normal 0.0 1.0 0.0
  outer loop
    vertex 1.3802498680397173 1.0624999999999996 0.05923972297186069
    vertex 0.44098300572549254 1.0624999999999996 0.1319660113297969
    vertex 1.5590169944753929 1.0624999999999996 0.1319660115318423
  endloop
endfacet
facet normal 0.0 1.0 0.0
  outer loop
    vertex 1.5590169944753929 1.0624999999999996 0.1319660115318423
    vertex 0.44098300572549254 1.0624999999999996 0.1319660113297969
    vertex 0.2755416990160707 1.0624999999999996 0.23134393934234423
  endloop
endfacet
facet normal 0.0 1.0 0.0
  outer loop
    vertex 1.5590169944753929 1.0624999999999996 0.1319660115318423
    vertex 0.2755416990160707 1.0624999999999996 0.23134393934234423
    vertex 1.0000000000903642 1.0624999999999996 0.18750000018071483
  endloop
endfacet
facet normal 0.0 1.0 0.0
  outer loop
    vertex 1.0000000000903642 1.0624999999999996 0.18750000018071483
    vertex 0.2755416990160707 1.0624999999999996 0.23134393934234423
    vertex 0.983823809771072 1.0624999999999996 0.18962963603472666
  endloop
endfacet
facet normal 0.0 1.0 0.0
  outer loop
    vertex 0.983823809771072 1.0624999999999996 0.18962963603472666
    vertex 0.2755416990160707 1.0624999999999996 0.23134393934234423
    vertex 0.9687500000888519 1.0624999999999996 0.1958734124385437
  endloop
endfacet
facet normal 0.0 1.0 0.0
  outer loop
    vertex 0.9687500000888519 1.0624999999999996 0.1958734124385437
    vertex 0.2755416990160707 1.0624999999999996 0.23134393934234423
    vertex 0.9558058262628989 1.0624999999999996 0.2058058263485742
  endloop
endfacet
facet normal 0.0 1.0 0.0
  outer loop
    vertex 0.9558058262628989 1.0624999999999996 0.2058058263485742
    vertex 0.2755416990160707 1.0624999999999996 0.23134393934234423
    vertex 0.945873412348193 1.0624999999999996 0.21875000017093965
  endloop
endfacet
facet normal 0.0 1.0 0.0
  outer loop
    vertex 0.945873412348193 1.0624999999999996 0.21875000017093965
    vertex 0.2755416990160707 1.0624999999999996 0.23134393934234423
    vertex 0.9396296359389313 1.0624999999999996 0.23382380985090445
  endloop
endfacet
facet normal 0.0 1.0 0.0
  outer loop
    vertex 0.9396296359389313 1.0624999999999996 0.23382380985090445
    vertex 0.2755416990160707 1.0624999999999996 0.23134393934234423
    vertex 0.12736999383304556 1.0624999999999996 0.3550045406869914
  endloop
endfacet
facet normal 0.0 1.0 0.0
  outer loop
    vertex 0.9396296359389313 1.0624999999999996 0.23382380985090445
    vertex 0.12736999383304556 1.0624999999999996 0.3550045406869914
    vertex 0.9375000000790767 1.0624999999999996 0.2500000001694274
  endloop
endfacet
facet normal 0.0 1.0 0.0
  outer loop
    vertex 0.9375000000790767 1.0624999999999996 0.2500000001694274
    vertex 0.12736999383304556 1.0624999999999996 0.3550045406869914
    vertex 0.9396296359330886 1.0624999999999996 0.26617619048871954
  endloop
endfacet
facet normal 0.0 1.0 0.0
  outer loop
    vertex 0.9396296359330886 1.0624999999999996 0.26617619048871954
    vertex 0.12736999383304556 1.0624999999999996 0.3550045406869914
    vertex 0.9458734123369056 1.0624999999999996 0.28125000017093965
  endloop
endfacet
facet normal 0.0 1.0 0.0
  outer loop
    vertex 0.9458734123369056 1.0624999999999996 0.28125000017093965
    vertex 0.12736999383304556 1.0624999999999996 0.3550045406869914
    vertex 0.9558058262469361 1.0624999999999996 0.2941941739968926
  endloop
endfacet
facet normal 0.0 1.0 0.0
  outer loop
    vertex 0.9558058262469361 1.0624999999999996 0.2941941739968926
    vertex 0.12736999383304556 1.0624999999999996 0.3550045406869914
    vertex 0.9687500000693016 1.0624999999999996 0.3041265879115985
  endloop
endfacet
facet normal 0.0 1.0 0.0
  outer loop
    vertex 0.9687500000693016 1.0624999999999996 0.3041265879115985
    vertex 0.12736999383304556 1.0624999999999996 0.3550045406869914
    vertex 0.9838238097492664 1.0624999999999996 0.3103703643208602
  endloop
endfacet
facet normal 0.0 1.0 0.0
  outer loop
    vertex 0.9838238097492664 1.0624999999999996 0.3103703643208602
    vertex 0.12736999383304556 1.0624999999999996 0.3550045406869914
    vertex 1.0000000000677893 1.0624999999999996 0.31250000018071483
  endloop
endfacet
facet normal 0.0 1.0 0.0
  outer loop
    vertex 1.0000000000677893 1.0624999999999996 0.31250000018071483
    vertex 0.12736999383304556 1.0624999999999996 0.3550045406869914
    vertex 1.8726300062872272 1.0624999999999996 0.3550045410023839
  endloop
endfacet
facet normal 0.0 1.0 0.0
  outer loop
    vertex 1.8726300062872272 1.0624999999999996 0.3550045410023839
    vertex 0.12736999383304556 1.0624999999999996 0.3550045406869914
    vertex 2.0000000000339266 1.0624999999999996 0.5000000003614282
  endloop
endfacet
facet normal 0.0 1.0 0.0
  outer loop
    vertex 2.0000000000339266 1.0624999999999996 0.5000000003614282
    vertex 0.12736999383304556 1.0624999999999996 0.3550045406869914
    vertex 3.3912345154263606e-11 1.0624999999999996 0.4999999999999992
  endloop
endfacet
facet normal 0.0 1.0 0.0
  outer loop
    vertex 2.0000000000339266 1.0624999999999996 0.5000000003614282
    vertex 3.3912345154263606e-11 1.0624999999999996 0.4999999999999992
    vertex -3.4694468744054318e-18 1.0624999999999996 0.6875000000000001
  endloop
endfacet
facet normal 0.0 1.0 0.0
  outer loop
    vertex 2.0000000000339266 1.0624999999999996 0.5000000003614282
    vertex -3.4694468744054318e-18 1.0624999999999996 0.6875000000000001
    vertex 1.9999999999999858 1.0624999999999996 0.6875000003614282
  endloop
endfacet
facet normal 0.0 1.0 0.0
  outer loop
    vertex 1.0000000000903642 1.0624999999999996 0.18750000018071483
    vertex 1.7244583011487828 1.0624999999999996 0.23134393960418417
    vertex 1.5590169944753929 1.0624999999999996 0.1319660115318423
  endloop
endfacet
facet normal 0.0 1.0 0.0
  outer loop
    vertex 1.7244583011487828 1.0624999999999996 0.23134393960418417
    vertex 1.0000000000903642 1.0624999999999996 0.18750000018071483
    vertex 1.016176190408887 1.0624999999999996 0.18962963604056948
  endloop
endfacet
facet normal 0.0 1.0 0.0
  outer loop
    vertex 1.7244583011487828 1.0624999999999996 0.23134393960418417
    vertex 1.016176190408887 1.0624999999999996 0.18962963604056948
    vertex 1.031250000088852 1.0624999999999996 0.19587341244983114
  endloop
endfacet
facet normal 0.0 1.0 0.0
  outer loop
    vertex 1.7244583011487828 1.0624999999999996 0.23134393960418417
    vertex 1.031250000088852 1.0624999999999996 0.19587341244983114
    vertex 1.0441941739112175 1.0624999999999996 0.20580582636453704
  endloop
endfacet
facet normal 0.0 1.0 0.0
  outer loop
    vertex 1.7244583011487828 1.0624999999999996 0.23134393960418417
    vertex 1.0441941739112175 1.0624999999999996 0.20580582636453704
    vertex 1.0541265878212478 1.0624999999999996 0.21875000019049007
  endloop
endfacet
facet normal 0.0 1.0 0.0
  outer loop
    vertex 1.7244583011487828 1.0624999999999996 0.23134393960418417
    vertex 1.0541265878212478 1.0624999999999996 0.21875000019049007
    vertex 1.060370364225065 1.0624999999999996 0.23382380987271012
  endloop
endfacet
facet normal 0.0 1.0 0.0
  outer loop
    vertex 1.7244583011487828 1.0624999999999996 0.23134393960418417
    vertex 1.060370364225065 1.0624999999999996 0.23382380987271012
    vertex 1.8726300062872272 1.0624999999999996 0.3550045410023839
  endloop
endfacet
facet normal 0.0 1.0 0.0
  outer loop
    vertex 1.8726300062872272 1.0624999999999996 0.3550045410023839
    vertex 1.060370364225065 1.0624999999999996 0.23382380987271012
    vertex 1.0625000000790767 1.0624999999999996 0.25000000019200225
  endloop
endfacet
facet normal 0.0 1.0 0.0
  outer loop
    vertex 1.8726300062872272 1.0624999999999996 0.3550045410023839
    vertex 1.0625000000790767 1.0624999999999996 0.25000000019200225
    vertex 1.0603703642192222 1.0624999999999996 0.2661761905105252
  endloop
endfacet
facet normal 0.0 1.0 0.0
  outer loop
    vertex 1.8726300062872272 1.0624999999999996 0.3550045410023839
    vertex 1.0603703642192222 1.0624999999999996 0.2661761905105252
    vertex 1.0541265878099604 1.0624999999999996 0.28125000019049007
  endloop
endfacet
facet normal 0.0 1.0 0.0
  outer loop
    vertex 1.8726300062872272 1.0624999999999996 0.3550045410023839
    vertex 1.0541265878099604 1.0624999999999996 0.28125000019049007
    vertex 1.0441941738952545 1.0624999999999996 0.29419417401285547
  endloop
endfacet
facet normal 0.0 1.0 0.0
  outer loop
    vertex 1.8726300062872272 1.0624999999999996 0.3550045410023839
    vertex 1.0441941738952545 1.0624999999999996 0.29419417401285547
    vertex 1.0312500000693015 1.0624999999999996 0.30412658792288594
  endloop
endfacet
facet normal 0.0 1.0 0.0
  outer loop
    vertex 1.8726300062872272 1.0624999999999996 0.3550045410023839
    vertex 1.0312500000693015 1.0624999999999996 0.30412658792288594
    vertex 1.0161761903870814 1.0624999999999996 0.310370364326703
  endloop
endfacet
facet normal 0.0 1.0 0.0
  outer loop
    vertex 1.8726300062872272 1.0624999999999996 0.3550045410023839
    vertex 1.0161761903870814 1.0624999999999996 0.310370364326703
    vertex 1.0000000000677893 1.0624999999999996 0.31250000018071483
  endloop
endfacet
facet normal 0.13052619204099722 4.1186804003405065e-33 0.9914448613973834
  outer loop
    vertex 1.0000000000903642 0.43749999999999944 0.18750000018071483
    vertex 0.983823809771072 1.0624999999999996 0.18962963603472666
    vertex 0.983823809771072 0.43749999999999944 0.18962963603472666
  endloop
endfacet
facet normal 0.13052619204099722 4.1186804003405065e-33 0.9914448613973834
  outer loop
    vertex 0.983823809771072 1.0624999999999996 0.18962963603472666
    vertex 1.0000000000903642 0.43749999999999944 0.18750000018071483
    vertex 1.0000000000903642 1.0624999999999996 0.18750000018071483
  endloop
endfacet
facet normal -0.13052619239910665 -1.5642241816029372e-32 0.9914448613502373
  outer loop
    vertex 1.016176190408887 0.43749999999999944 0.18962963604056948
    vertex 1.0000000000903642 1.0624999999999996 0.18750000018071483
    vertex 1.0000000000903642 0.43749999999999944 0.18750000018071483
  endloop
endfacet
facet normal -0.13052619239910665 -1.5642241816029372e-32 0.9914448613502373
  outer loop
    vertex 1.0000000000903642 1.0624999999999996 0.18750000018071483
    vertex 1.016176190408887 0.43749999999999944 0.18962963604056948
    vertex 1.016176190408887 1.0624999999999996 0.18962963604056948
  endloop
endfacet
facet normal -0.38268343253193815 0.0 0.923879532442176
  outer loop
    vertex 1.031250000088852 0.43749999999999944 0.19587341244983114
    vertex 1.016176190408887 1.0624999999999996 0.18962963604056948
    vertex 1.016176190408887 0.43749999999999944 0.18962963604056948
  endloop
endfacet
facet normal -0.38268343253193815 0.0 0.923879532442176
  outer loop
    vertex 1.016176190408887 1.0624999999999996 0.18962963604056948
    vertex 1.031250000088852 0.43749999999999944 0.19587341244983114
    vertex 1.031250000088852 1.0624999999999996 0.19587341244983114
  endloop
endfacet
facet normal -0.6087614291519987 0.0 0.7933533401812942
  outer loop
    vertex 1.0441941739112175 0.43749999999999944 0.20580582636453704
    vertex 1.031250000088852 1.0624999999999996 0.19587341244983114
    vertex 1.031250000088852 0.43749999999999944 0.19587341244983114
  endloop
endfacet
facet normal -0.6087614291519987 0.0 0.7933533401812942
  outer loop
    vertex 1.031250000088852 1.0624999999999996 0.19587341244983114
    vertex 1.0441941739112175 0.43749999999999944 0.20580582636453704
    vertex 1.0441941739112175 1.0624999999999996 0.20580582636453704
  endloop
endfacet
facet normal -0.7933533404011831 0.0 0.6087614288654337
  outer loop
    vertex 1.0541265878212478 1.0624999999999996 0.21875000019049007
    vertex 1.0441941739112175 0.43749999999999944 0.20580582636453704
    vertex 1.0541265878212478 0.43749999999999944 0.21875000019049007
  endloop
endfacet
facet normal -0.7933533404011831 0.0 0.6087614288654337
  outer loop
    vertex 1.0441941739112175 0.43749999999999944 0.20580582636453704
    vertex 1.0541265878212478 1.0624999999999996 0.21875000019049007
    vertex 1.0441941739112175 1.0624999999999996 0.20580582636453704
  endloop
endfacet
facet normal -0.9238795325803946 0.0 0.3826834321982489
  outer loop
    vertex 1.060370364225065 1.0624999999999996 0.23382380987271012
    vertex 1.0541265878212478 0.43749999999999944 0.21875000019049007
    vertex 1.060370364225065 0.43749999999999944 0.23382380987271012
  endloop
endfacet
facet normal -0.9238795325803946 0.0 0.3826834321982489
  outer loop
    vertex 1.0541265878212478 0.43749999999999944 0.21875000019049007
    vertex 1.060370364225065 1.0624999999999996 0.23382380987271012
    vertex 1.0541265878212478 1.0624999999999996 0.21875000019049007
  endloop
endfacet
facet normal -0.9914448613973843 0.0 0.13052619204099097
  outer loop
    vertex 1.0625000000790767 1.0624999999999996 0.25000000019200225
    vertex 1.060370364225065 0.43749999999999944 0.23382380987271012
    vertex 1.0625000000790767 0.43749999999999944 0.25000000019200225
  endloop
endfacet
facet normal -0.9914448613973843 0.0 0.13052619204099097
  outer loop
    vertex 1.060370364225065 0.43749999999999944 0.23382380987271012
    vertex 1.0625000000790767 1.0624999999999996 0.25000000019200225
    vertex 1.060370364225065 1.0624999999999996 0.23382380987271012
  endloop
endfacet
facet normal -0.9914448613502378 0.0 -0.13052619239910287
  outer loop
    vertex 1.0603703642192222 1.0624999999999996 0.2661761905105252
    vertex 1.0625000000790767 0.43749999999999944 0.25000000019200225
    vertex 1.0603703642192222 0.43749999999999944 0.2661761905105252
  endloop
endfacet
facet normal -0.9914448613502378 0.0 -0.13052619239910287
  outer loop
    vertex 1.0625000000790767 0.43749999999999944 0.25000000019200225
    vertex 1.0603703642192222 1.0624999999999996 0.2661761905105252
    vertex 1.0625000000790767 1.0624999999999996 0.25000000019200225
  endloop
endfacet
facet normal -0.9238795324421726 0.0 -0.38268343253194637
  outer loop
    vertex 1.0541265878099604 1.0624999999999996 0.28125000019049007
    vertex 1.0603703642192222 0.43749999999999944 0.2661761905105252
    vertex 1.0541265878099604 0.43749999999999944 0.28125000019049007
  endloop
endfacet
facet normal -0.9238795324421726 0.0 -0.38268343253194637
  outer loop
    vertex 1.0603703642192222 0.43749999999999944 0.2661761905105252
    vertex 1.0541265878099604 1.0624999999999996 0.28125000019049007
    vertex 1.0603703642192222 1.0624999999999996 0.2661761905105252
  endloop
endfacet
facet normal -0.7933533401812928 0.0 -0.6087614291520004
  outer loop
    vertex 1.0441941738952545 1.0624999999999996 0.29419417401285547
    vertex 1.0541265878099604 0.43749999999999944 0.28125000019049007
    vertex 1.0441941738952545 0.43749999999999944 0.29419417401285547
  endloop
endfacet
facet normal -0.7933533401812928 0.0 -0.6087614291520004
  outer loop
    vertex 1.0541265878099604 0.43749999999999944 0.28125000019049007
    vertex 1.0441941738952545 1.0624999999999996 0.29419417401285547
    vertex 1.0541265878099604 1.0624999999999996 0.28125000019049007
  endloop
endfacet
facet normal -0.6087614288654402 0.0 -0.7933533404011781
  outer loop
    vertex 1.0441941738952545 1.0624999999999996 0.29419417401285547
    vertex 1.0312500000693015 0.43749999999999944 0.30412658792288594
    vertex 1.0312500000693015 1.0624999999999996 0.30412658792288594
  endloop
endfacet
facet normal -0.6087614288654402 0.0 -0.7933533404011781
  outer loop
    vertex 1.0312500000693015 0.43749999999999944 0.30412658792288594
    vertex 1.0441941738952545 1.0624999999999996 0.29419417401285547
    vertex 1.0441941738952545 0.43749999999999944 0.29419417401285547
  endloop
endfacet
facet normal -0.38268343219824014 0.0 -0.9238795325803981
  outer loop
    vertex 1.0312500000693015 1.0624999999999996 0.30412658792288594
    vertex 1.0161761903870814 0.43749999999999944 0.310370364326703
    vertex 1.0161761903870814 1.0624999999999996 0.310370364326703
  endloop
endfacet
facet normal -0.38268343219824014 0.0 -0.9238795325803981
  outer loop
    vertex 1.0161761903870814 0.43749999999999944 0.310370364326703
    vertex 1.0312500000693015 1.0624999999999996 0.30412658792288594
    vertex 1.0312500000693015 0.43749999999999944 0.30412658792288594
  endloop
endfacet
facet normal -0.13052619204099808 0.0 -0.9914448613973833
  outer loop
    vertex 1.0161761903870814 1.0624999999999996 0.310370364326703
    vertex 1.0000000000677893 0.43749999999999944 0.31250000018071483
    vertex 1.0000000000677893 1.0624999999999996 0.31250000018071483
  endloop
endfacet
facet normal -0.13052619204099808 0.0 -0.9914448613973833
  outer loop
    vertex 1.0000000000677893 0.43749999999999944 0.31250000018071483
    vertex 1.0161761903870814 1.0624999999999996 0.310370364326703
    vertex 1.0161761903870814 0.43749999999999944 0.310370364326703
  endloop
endfacet
facet normal 0.13052619239910665 0.0 -0.9914448613502375
  outer loop
    vertex 1.0000000000677893 1.0624999999999996 0.31250000018071483
    vertex 0.9838238097492664 0.43749999999999944 0.3103703643208602
    vertex 0.9838238097492664 1.0624999999999996 0.3103703643208602
  endloop
endfacet
facet normal 0.13052619239910665 0.0 -0.9914448613502375
  outer loop
    vertex 0.9838238097492664 0.43749999999999944 0.3103703643208602
    vertex 1.0000000000677893 1.0624999999999996 0.31250000018071483
    vertex 1.0000000000677893 0.43749999999999944 0.31250000018071483
  endloop
endfacet
facet normal 0.38268343253194054 0.0 -0.9238795324421749
  outer loop
    vertex 0.9838238097492664 1.0624999999999996 0.3103703643208602
    vertex 0.9687500000693016 0.43749999999999944 0.3041265879115985
    vertex 0.9687500000693016 1.0624999999999996 0.3041265879115985
  endloop
endfacet
facet normal 0.38268343253194054 0.0 -0.9238795324421749
  outer loop
    vertex 0.9687500000693016 0.43749999999999944 0.3041265879115985
    vertex 0.9838238097492664 1.0624999999999996 0.3103703643208602
    vertex 0.9838238097492664 0.43749999999999944 0.3103703643208602
  endloop
endfacet
facet normal 0.6087614291519987 0.0 -0.7933533401812942
  outer loop
    vertex 0.9687500000693016 1.0624999999999996 0.3041265879115985
    vertex 0.9558058262469361 0.43749999999999944 0.2941941739968926
    vertex 0.9558058262469361 1.0624999999999996 0.2941941739968926
  endloop
endfacet
facet normal 0.6087614291519987 0.0 -0.7933533401812942
  outer loop
    vertex 0.9558058262469361 0.43749999999999944 0.2941941739968926
    vertex 0.9687500000693016 1.0624999999999996 0.3041265879115985
    vertex 0.9687500000693016 0.43749999999999944 0.3041265879115985
  endloop
endfacet
facet normal 0.7933533404011752 0.0 -0.608761428865444
  outer loop
    vertex 0.9458734123369056 1.0624999999999996 0.28125000017093965
    vertex 0.9558058262469361 0.43749999999999944 0.2941941739968926
    vertex 0.9458734123369056 0.43749999999999944 0.28125000017093965
  endloop
endfacet
facet normal 0.7933533404011752 0.0 -0.608761428865444
  outer loop
    vertex 0.9558058262469361 0.43749999999999944 0.2941941739968926
    vertex 0.9458734123369056 1.0624999999999996 0.28125000017093965
    vertex 0.9558058262469361 1.0624999999999996 0.2941941739968926
  endloop
endfacet
facet normal 0.9238795325803999 0.0 -0.38268343219823614
  outer loop
    vertex 0.9396296359330886 1.0624999999999996 0.26617619048871954
    vertex 0.9458734123369056 0.43749999999999944 0.28125000017093965
    vertex 0.9396296359330886 0.43749999999999944 0.26617619048871954
  endloop
endfacet
facet normal 0.9238795325803999 0.0 -0.38268343219823614
  outer loop
    vertex 0.9458734123369056 0.43749999999999944 0.28125000017093965
    vertex 0.9396296359330886 1.0624999999999996 0.26617619048871954
    vertex 0.9458734123369056 1.0624999999999996 0.28125000017093965
  endloop
endfacet
facet normal 0.9914448613973833 0.0 -0.13052619204099764
  outer loop
    vertex 0.9375000000790767 1.0624999999999996 0.2500000001694274
    vertex 0.9396296359330886 0.43749999999999944 0.26617619048871954
    vertex 0.9375000000790767 0.43749999999999944 0.2500000001694274
  endloop
endfacet
facet normal 0.9914448613973833 0.0 -0.13052619204099764
  outer loop
    vertex 0.9396296359330886 0.43749999999999944 0.26617619048871954
    vertex 0.9375000000790767 1.0624999999999996 0.2500000001694274
    vertex 0.9396296359330886 1.0624999999999996 0.26617619048871954
  endloop
endfacet
facet normal 0.9914448613502378 0.0 0.13052619239910287
  outer loop
    vertex 0.9396296359389313 1.0624999999999996 0.23382380985090445
    vertex 0.9375000000790767 0.43749999999999944 0.2500000001694274
    vertex 0.9396296359389313 0.43749999999999944 0.23382380985090445
  endloop
endfacet
facet normal 0.9914448613502378 0.0 0.13052619239910287
  outer loop
    vertex 0.9375000000790767 0.43749999999999944 0.2500000001694274
    vertex 0.9396296359389313 1.0624999999999996 0.23382380985090445
    vertex 0.9375000000790767 1.0624999999999996 0.2500000001694274
  endloop
endfacet
facet normal 0.9238795324421744 0.0 0.3826834325319417
  outer loop
    vertex 0.945873412348193 1.0624999999999996 0.21875000017093965
    vertex 0.9396296359389313 0.43749999999999944 0.23382380985090445
    vertex 0.945873412348193 0.43749999999999944 0.21875000017093965
  endloop
endfacet
facet normal 0.9238795324421744 0.0 0.3826834325319417
  outer loop
    vertex 0.9396296359389313 0.43749999999999944 0.23382380985090445
    vertex 0.945873412348193 1.0624999999999996 0.21875000017093965
    vertex 0.9396296359389313 1.0624999999999996 0.23382380985090445
  endloop
endfacet
facet normal 0.7933533401812942 0.0 0.6087614291519987
  outer loop
    vertex 0.9558058262628989 1.0624999999999996 0.2058058263485742
    vertex 0.945873412348193 0.43749999999999944 0.21875000017093965
    vertex 0.9558058262628989 0.43749999999999944 0.2058058263485742
  endloop
endfacet
facet normal 0.7933533401812942 0.0 0.6087614291519987
  outer loop
    vertex 0.945873412348193 0.43749999999999944 0.21875000017093965
    vertex 0.9558058262628989 1.0624999999999996 0.2058058263485742
    vertex 0.945873412348193 1.0624999999999996 0.21875000017093965
  endloop
endfacet
facet normal 0.6087614288654413 0.0 0.7933533404011772
  outer loop
    vertex 0.9687500000888519 0.43749999999999944 0.1958734124385437
    vertex 0.9558058262628989 1.0624999999999996 0.2058058263485742
    vertex 0.9558058262628989 0.43749999999999944 0.2058058263485742
  endloop
endfacet
facet normal 0.6087614288654413 0.0 0.7933533404011772
  outer loop
    vertex 0.9558058262628989 1.0624999999999996 0.2058058263485742
    vertex 0.9687500000888519 0.43749999999999944 0.1958734124385437
    vertex 0.9687500000888519 1.0624999999999996 0.1958734124385437
  endloop
endfacet
facet normal 0.3826834321982387 0.0 0.9238795325803987
  outer loop
    vertex 0.983823809771072 0.43749999999999944 0.18962963603472666
    vertex 0.9687500000888519 1.0624999999999996 0.1958734124385437
    vertex 0.9687500000888519 0.43749999999999944 0.1958734124385437
  endloop
endfacet
facet normal 0.3826834321982387 0.0 0.9238795325803987
  outer loop
    vertex 0.9687500000888519 1.0624999999999996 0.1958734124385437
    vertex 0.983823809771072 0.43749999999999944 0.18962963603472666
    vertex 0.983823809771072 1.0624999999999996 0.18962963603472666
  endloop
endfacet
endsolid gun_rig_3dp5
