solid gun_rig_3dp5
facet normal -0.3768312833874523 0.0 -0.9262819138148849
  outer loop
    vertex 0.6197501321874535 1.0624999999999996 0.05923972283442753
    vertex 0.44098300572549254 0.43749999999999944 0.1319660113297969
    vertex 0.44098300572549254 1.0624999999999996 0.1319660113297969
  endloop
endfacet
facet normal -0.3768312833874523 0.0 -0.9262819138148849
  outer loop
    vertex 0.44098300572549254 0.43749999999999944 0.1319660113297969
    vertex 0.6197501321874535 1.0624999999999996 0.05923972283442753
    vertex 0.6197501321874535 0.43749999999999944 0.05923972283442753
  endloop
endfacet
facet normal 0.07719771884260797 0.0 -0.9970158033880394
  outer loop
    vertex 1.1924183638541765 1.0624999999999996 0.014898719632197415
    vertex 1.000000000124241 0.43749999999999944 1.8071483198767164e-10
    vertex 1.000000000124241 1.0624999999999996 1.8071483198767164e-10
  endloop
endfacet
facet normal 0.07719771884260797 0.0 -0.9970158033880394
  outer loop
    vertex 1.000000000124241 0.43749999999999944 1.8071483198767164e-10
    vertex 1.1924183638541765 1.0624999999999996 0.014898719632197415
    vertex 1.1924183638541765 0.43749999999999944 0.014898719632197415
  endloop
endfacet
facet normal 0.5149267610194407 0.0 -0.8572341749988902
  outer loop
    vertex 1.7244583011487828 1.0624999999999996 0.23134393960418417
    vertex 1.5590169944753929 0.43749999999999944 0.1319660115318423
    vertex 1.5590169944753929 1.0624999999999996 0.1319660115318423
  endloop
endfacet
facet normal 0.5149267610194407 0.0 -0.8572341749988902
  outer loop
    vertex 1.5590169944753929 0.43749999999999944 0.1319660115318423
    vertex 1.7244583011487828 1.0624999999999996 0.23134393960418417
    vertex 1.7244583011487828 0.43749999999999944 0.23134393960418417
  endloop
endfacet
facet normal -0.5149267607096112 0.0 -0.857234175185
  outer loop
    vertex 0.44098300572549254 1.0624999999999996 0.1319660113297969
    vertex 0.2755416990160707 0.43749999999999944 0.23134393934234423
    vertex 0.2755416990160707 1.0624999999999996 0.23134393934234423
  endloop
endfacet
facet normal -0.5149267607096112 0.0 -0.857234175185
  outer loop
    vertex 0.2755416990160707 0.43749999999999944 0.23134393934234423
    vertex 0.44098300572549254 1.0624999999999996 0.1319660113297969
    vertex 0.44098300572549254 0.43749999999999944 0.1319660113297969
  endloop
endfacet
facet normal 0.7512940116433979 0.0 -0.659967656835371
  outer loop
    vertex 1.8726300062872272 1.0624999999999996 0.3550045410023839
    vertex 2.0000000000339266 0.43749999999999944 0.5000000003614282
    vertex 1.8726300062872272 0.43749999999999944 0.3550045410023839
  endloop
endfacet
facet normal 0.7512940116433979 0.0 -0.659967656835371
  outer loop
    vertex 2.0000000000339266 0.43749999999999944 0.5000000003614282
    vertex 1.8726300062872272 1.0624999999999996 0.3550045410023839
    vertex 2.0000000000339266 1.0624999999999996 0.5000000003614282
  endloop
endfacet
facet normal 0.6407474393845087 0.0 -0.7677517300027368
  outer loop
    vertex 1.8726300062872272 1.0624999999999996 0.3550045410023839
    vertex 1.7244583011487828 0.43749999999999944 0.23134393960418417
    vertex 1.7244583011487828 1.0624999999999996 0.23134393960418417
  endloop
endfacet
facet normal 0.6407474393845087 0.0 -0.7677517300027368
  outer loop
    vertex 1.7244583011487828 0.43749999999999944 0.23134393960418417
    vertex 1.8726300062872272 1.0624999999999996 0.3550045410023839
    vertex 1.8726300062872272 0.43749999999999944 0.3550045410023839
  endloop
endfacet
facet normal -0.2297529203714809 0.0 -0.9732489895092499
  outer loop
    vertex 0.8075816363890201 1.0624999999999996 0.014898719562651925
    vertex 0.6197501321874535 0.43749999999999944 0.05923972283442753
    vertex 0.6197501321874535 1.0624999999999996 0.05923972283442753
  endloop
endfacet
facet normal -0.2297529203714809 0.0 -0.9732489895092499
  outer loop
    vertex 0.6197501321874535 0.43749999999999944 0.05923972283442753
    vertex 0.8075816363890201 1.0624999999999996 0.014898719562651925
    vertex 0.8075816363890201 0.43749999999999944 0.014898719562651925
  endloop
endfacet
facet normal 0.22975292072324202 0.0 -0.9732489894262105
  outer loop
    vertex 1.3802498680397173 1.0624999999999996 0.05923972297186069
    vertex 1.1924183638541765 0.43749999999999944 0.014898719632197415
    vertex 1.1924183638541765 1.0624999999999996 0.014898719632197415
  endloop
endfacet
facet normal 0.22975292072324202 0.0 -0.9732489894262105
  outer loop
    vertex 1.1924183638541765 0.43749999999999944 0.014898719632197415
    vertex 1.3802498680397173 1.0624999999999996 0.05923972297186069
    vertex 1.3802498680397173 0.43749999999999944 0.05923972297186069
  endloop
endfacet
facet normal -0.640747439107022 0.0 -0.7677517302343208
  outer loop
    vertex 0.2755416990160707 1.0624999999999996 0.23134393934234423
    vertex 0.12736999383304556 0.43749999999999944 0.3550045406869914
    vertex 0.12736999383304556 1.0624999999999996 0.3550045406869914
  endloop
endfacet
facet normal -0.640747439107022 0.0 -0.7677517302343208
  outer loop
    vertex 0.12736999383304556 0.43749999999999944 0.3550045406869914
    vertex 0.2755416990160707 1.0624999999999996 0.23134393934234423
    vertex 0.2755416990160707 0.43749999999999944 0.23134393934234423
  endloop
endfacet
facet normal -0.07719771848225915 0.0 -0.9970158034159409
  outer loop
    vertex 1.000000000124241 1.0624999999999996 1.8071483198767164e-10
    vertex 0.8075816363890201 0.43749999999999944 0.014898719562651925
    vertex 0.8075816363890201 1.0624999999999996 0.014898719562651925
  endloop
endfacet
facet normal -0.07719771848225915 0.0 -0.9970158034159409
  outer loop
    vertex 0.8075816363890201 0.43749999999999944 0.014898719562651925
    vertex 1.000000000124241 1.0624999999999996 1.8071483198767164e-10
    vertex 1.000000000124241 0.43749999999999944 1.8071483198767164e-10
  endloop
endfacet
facet normal 0.37683128372223595 0.0 -0.9262819136786876
  outer loop
    vertex 1.5590169944753929 1.0624999999999996 0.1319660115318423
    vertex 1.3802498680397173 0.43749999999999944 0.05923972297186069
    vertex 1.3802498680397173 1.0624999999999996 0.05923972297186069
  endloop
endfacet
facet normal 0.37683128372223595 0.0 -0.9262819136786876
  outer loop
    vertex 1.3802498680397173 0.43749999999999944 0.05923972297186069
    vertex 1.5590169944753929 1.0624999999999996 0.1319660115318423
    vertex 1.5590169944753929 0.43749999999999944 0.1319660115318423
  endloop
endfacet
facet normal -0.7512940114048456 0.0 -0.6599676571069342
  outer loop
    vertex 3.3912345154263606e-11 1.0624999999999996 0.4999999999999992
    vertex 0.12736999383304556 0.43749999999999944 0.3550045406869914
    vertex 3.3912345154263606e-11 0.43749999999999944 0.4999999999999992
  endloop
endfacet
facet normal -0.7512940114048456 0.0 -0.6599676571069342
  outer loop
    vertex 0.12736999383304556 0.43749999999999944 0.3550045406869914
    vertex 3.3912345154263606e-11 1.0624999999999996 0.4999999999999992
    vertex 0.12736999383304556 1.0624999999999996 0.3550045406869914
  endloop
endfacet
facet normal 0.0 -1.0 0.0
  outer loop
    vertex 1.1924183638541765 0.43749999999999944 0.014898719632197415
    vertex 0.8075816363890201 0.43749999999999944 0.014898719562651925
    vertex 1.000000000124241 0.43749999999999944 1.8071483198767164e-10
  endloop
endfacet
facet normal 0.0 -1.0 0.0
  outer loop
    vertex 0.8075816363890201 0.43749999999999944 0.014898719562651925
    vertex 1.1924183638541765 0.43749999999999944 0.014898719632197415
    vertex 1.3802498680397173 0.43749999999999944 0.05923972297186069
  endloop
endfacet
facet normal 0.0 -1.0 0.0
  outer loop
    vertex 0.8075816363890201 0.43749999999999944 0.014898719562651925
    vertex 1.3802498680397173 0.43749999999999944 0.05923972297186069
    vertex 0.6197501321874535 0.43749999999999944 0.05923972283442753
  endloop
endfacet
facet normal 0.0 -1.0 0.0
  outer loop
    vertex 0.6197501321874535 0.43749999999999944 0.05923972283442753
    vertex 1.3802498680397173 0.43749999999999944 0.05923972297186069
    vertex 1.5590169944753929 0.43749999999999944 0.1319660115318423
  endloop
endfacet
facet normal 0.0 -1.0 0.0
  outer loop
    vertex 0.6197501321874535 0.43749999999999944 0.05923972283442753
    vertex 1.5590169944753929 0.43749999999999944 0.1319660115318423
    vertex 1.0000000001016518 0.43749999999999944 0.12500000018071483
  endloop
endfacet
facet normal 0.0 -1.0 0.0
  outer loop
    vertex 1.0000000001016518 0.43749999999999944 0.12500000018071483
    vertex 1.5590169944753929 0.43749999999999944 0.1319660115318423
    vertex 1.0323523807386854 0.43749999999999944 0.12925927190042724
  endloop
endfacet
facet normal 0.0 -1.0 0.0
  outer loop
    vertex 1.0323523807386854 0.43749999999999944 0.12925927190042724
    vertex 1.5590169944753929 0.43749999999999944 0.1319660115318423
    vertex 1.0625000000986253 0.43749999999999944 0.14174682471895345
  endloop
endfacet
facet normal 0.0 -1.0 0.0
  outer loop
    vertex 1.0625000000986253 0.43749999999999944 0.14174682471895345
    vertex 1.5590169944753929 0.43749999999999944 0.1319660115318423
    vertex 1.7244583011487828 0.43749999999999944 0.23134393960418417
  endloop
endfacet
facet normal 0.0 -1.0 0.0
  outer loop
    vertex 1.0625000000986253 0.43749999999999944 0.14174682471895345
    vertex 1.7244583011487828 0.43749999999999944 0.23134393960418417
    vertex 1.0883883477433831 0.43749999999999944 0.16161165254836915
  endloop
endfacet
facet normal 0.0 -1.0 0.0
  outer loop
    vertex 1.0883883477433831 0.43749999999999944 0.16161165254836915
    vertex 1.7244583011487828 0.43749999999999944 0.23134393960418417
    vertex 1.1082531755634664 0.43749999999999944 0.18750000020027685
  endloop
endfacet
facet normal 0.0 -1.0 0.0
  outer loop
    vertex 1.1082531755634664 0.43749999999999944 0.18750000020027685
    vertex 1.7244583011487828 0.43749999999999944 0.23134393960418417
    vertex 1.1207407283710458 0.43749999999999944 0.2176476195647181
  endloop
endfacet
facet normal 0.0 -1.0 0.0
  outer loop
    vertex 1.1207407283710458 0.43749999999999944 0.2176476195647181
    vertex 1.7244583011487828 0.43749999999999944 0.23134393960418417
    vertex 1.1250000000791194 0.43749999999999944 0.2500000002033041
  endloop
endfacet
facet normal 0.0 -1.0 0.0
  outer loop
    vertex 1.1250000000791194 0.43749999999999944 0.2500000002033041
    vertex 1.7244583011487828 0.43749999999999944 0.23134393960418417
    vertex 1.8726300062872272 0.43749999999999944 0.3550045410023839
  endloop
endfacet
facet normal 0.0 -1.0 0.0
  outer loop
    vertex 1.1250000000791194 0.43749999999999944 0.2500000002033041
    vertex 1.8726300062872272 0.43749999999999944 0.3550045410023839
    vertex 1.1207407283593527 0.43749999999999944 0.282352380840348
  endloop
endfacet
facet normal 0.0 -1.0 0.0
  outer loop
    vertex 1.1207407283593527 0.43749999999999944 0.282352380840348
    vertex 1.8726300062872272 0.43749999999999944 0.3550045410023839
    vertex 1.108253175540806 0.43749999999999944 0.31250000020027685
  endloop
endfacet
facet normal 0.0 -1.0 0.0
  outer loop
    vertex 1.108253175540806 0.43749999999999944 0.31250000020027685
    vertex 1.8726300062872272 0.43749999999999944 0.3550045410023839
    vertex 1.0883883477114655 0.43749999999999944 0.33838834784500527
  endloop
endfacet
facet normal 0.0 -1.0 0.0
  outer loop
    vertex 1.0883883477114655 0.43749999999999944 0.33838834784500527
    vertex 1.8726300062872272 0.43749999999999944 0.3550045410023839
    vertex 1.0625000000594853 0.43749999999999944 0.3582531756650637
  endloop
endfacet
facet normal 0.0 -1.0 0.0
  outer loop
    vertex 1.0625000000594853 0.43749999999999944 0.3582531756650637
    vertex 1.8726300062872272 0.43749999999999944 0.3550045410023839
    vertex 2.0000000000339266 0.43749999999999944 0.5000000003614282
  endloop
endfacet
facet normal 0.0 -1.0 0.0
  outer loop
    vertex 1.0625000000594853 0.43749999999999944 0.3582531756650637
    vertex 2.0000000000339266 0.43749999999999944 0.5000000003614282
    vertex 1.0323523806950605 0.43749999999999944 0.37074072847269374
  endloop
endfacet
facet normal 0.0 -1.0 0.0
  outer loop
    vertex 1.0323523806950605 0.43749999999999944 0.37074072847269374
    vertex 2.0000000000339266 0.43749999999999944 0.5000000003614282
    vertex 1.0000000000564873 0.43749999999999944 0.37500000018071483
  endloop
endfacet
facet normal 0.0 -1.0 0.0
  outer loop
    vertex 1.0000000000564873 0.43749999999999944 0.37500000018071483
    vertex 2.0000000000339266 0.43749999999999944 0.5000000003614282
    vertex 3.3912345154263606e-11 0.43749999999999944 0.4999999999999992
  endloop
endfacet
facet normal 0.0 -1.0 0.0
  outer loop
    vertex 3.3912345154263606e-11 0.43749999999999944 0.4999999999999992
    vertex 2.0000000000339266 0.43749999999999944 0.5000000003614282
    vertex -3.4694468485560376e-18 0.43749999999999944 0.6875000000000001
  endloop
endfacet
facet normal 0.0 -1.0 0.0
  outer loop
    vertex -3.4694468485560376e-18 0.43749999999999944 0.6875000000000001
    vertex 2.0000000000339266 0.43749999999999944 0.5000000003614282
    vertex 1.9999999999999858 0.43749999999999944 0.6875000003614282
  endloop
endfacet
facet normal 0.0 -1.0 0.0
  outer loop
    vertex 1.0000000001016518 0.43749999999999944 0.12500000018071483
    vertex 0.44098300572549254 0.43749999999999944 0.1319660113297969
    vertex 0.6197501321874535 0.43749999999999944 0.05923972283442753
  endloop
endfacet
facet normal 0.0 -1.0 0.0
  outer loop
    vertex 0.44098300572549254 0.43749999999999944 0.1319660113297969
    vertex 1.0000000001016518 0.43749999999999944 0.12500000018071483
    vertex 0.9676476194630644 0.43749999999999944 0.12925927188873415
  endloop
endfacet
facet normal 0.0 -1.0 0.0
  outer loop
    vertex 0.44098300572549254 0.43749999999999944 0.1319660113297969
    vertex 0.9676476194630644 0.43749999999999944 0.12925927188873415
    vertex 0.9375000000986254 0.43749999999999944 0.14174682469636418
  endloop
endfacet
facet normal 0.0 -1.0 0.0
  outer loop
    vertex 0.44098300572549254 0.43749999999999944 0.1319660113297969
    vertex 0.9375000000986254 0.43749999999999944 0.14174682469636418
    vertex 0.2755416990160707 0.43749999999999944 0.23134393934234423
  endloop
endfacet
facet normal 0.0 -1.0 0.0
  outer loop
    vertex 0.2755416990160707 0.43749999999999944 0.23134393934234423
    vertex 0.9375000000986254 0.43749999999999944 0.14174682469636418
    vertex 0.9116116524467448 0.43749999999999944 0.16161165251642354
  endloop
endfacet
facet normal 0.0 -1.0 0.0
  outer loop
    vertex 0.2755416990160707 0.43749999999999944 0.23134393934234423
    vertex 0.9116116524467448 0.43749999999999944 0.16161165251642354
    vertex 0.8917468246173473 0.43749999999999944 0.18750000016115104
  endloop
endfacet
facet normal 0.0 -1.0 0.0
  outer loop
    vertex 0.2755416990160707 0.43749999999999944 0.23134393934234423
    vertex 0.8917468246173473 0.43749999999999944 0.18750000016115104
    vertex 0.8792592717987865 0.43749999999999944 0.2176476195210794
  endloop
endfacet
facet normal 0.0 -1.0 0.0
  outer loop
    vertex 0.2755416990160707 0.43749999999999944 0.23134393934234423
    vertex 0.8792592717987865 0.43749999999999944 0.2176476195210794
    vertex 0.8750000000791194 0.43749999999999944 0.250000000158126
  endloop
endfacet
facet normal 0.0 -1.0 0.0
  outer loop
    vertex 0.2755416990160707 0.43749999999999944 0.23134393934234423
    vertex 0.8750000000791194 0.43749999999999944 0.250000000158126
    vertex 0.12736999383304556 0.43749999999999944 0.3550045406869914
  endloop
endfacet
facet normal 0.0 -1.0 0.0
  outer loop
    vertex 0.12736999383304556 0.43749999999999944 0.3550045406869914
    vertex 0.8750000000791194 0.43749999999999944 0.250000000158126
    vertex 0.8792592717870792 0.43749999999999944 0.2823523807967094
  endloop
endfacet
facet normal 0.0 -1.0 0.0
  outer loop
    vertex 0.12736999383304556 0.43749999999999944 0.3550045406869914
    vertex 0.8792592717870792 0.43749999999999944 0.2823523807967094
    vertex 0.8917468245947012 0.43749999999999944 0.31250000016115104
  endloop
endfacet
facet normal 0.0 -1.0 0.0
  outer loop
    vertex 0.12736999383304556 0.43749999999999944 0.3550045406869914
    vertex 0.8917468245947012 0.43749999999999944 0.31250000016115104
    vertex 0.9116116524148271 0.43749999999999944 0.3383883478130594
  endloop
endfacet
facet normal 0.0 -1.0 0.0
  outer loop
    vertex 0.12736999383304556 0.43749999999999944 0.3550045406869914
    vertex 0.9116116524148271 0.43749999999999944 0.3383883478130594
    vertex 0.9375000000594854 0.43749999999999944 0.35825317564247444
  endloop
endfacet
facet normal 0.0 -1.0 0.0
  outer loop
    vertex 0.12736999383304556 0.43749999999999944 0.3550045406869914
    vertex 0.9375000000594854 0.43749999999999944 0.35825317564247444
    vertex 3.3912345154263606e-11 0.43749999999999944 0.4999999999999992
  endloop
endfacet
facet normal 0.0 -1.0 0.0
  outer loop
    vertex 3.3912345154263606e-11 0.43749999999999944 0.4999999999999992
    vertex 0.9375000000594854 0.43749999999999944 0.35825317564247444
    vertex 0.9676476194194252 0.43749999999999944 0.37074072846100065
  endloop
endfacet
facet normal 0.0 -1.0 0.0
  outer loop
    vertex 3.3912345154263606e-11 0.43749999999999944 0.4999999999999992
    vertex 0.9676476194194252 0.43749999999999944 0.37074072846100065
    vertex 1.0000000000564873 0.43749999999999944 0.37500000018071483
  endloop
endfacet
facet normal 1.807142560594785e-10 -1.4673516050260684e-24 -1.0
  outer loop
    vertex 1.9999999999999858 0.43749999999999944 0.6875000003614282
    vertex -3.4694468485560376e-18 -5.551115123125783e-16 0.6875000000000001
    vertex -3.4694468485560376e-18 0.43749999999999944 0.6875000000000001
  endloop
endfacet
facet normal 1.807142560594785e-10 -1.4673516050260684e-24 -1.0
  outer loop
    vertex -3.4694468485560376e-18 -5.551115123125783e-16 0.6875000000000001
    vertex 1.9999999999999858 0.43749999999999944 0.6875000003614282
    vertex 1.9999999999999858 -5.551115123125783e-16 0.6875000003614282
  endloop
endfacet
facet normal 1.807142560594788e-10 0.0 -1.0
  outer loop
    vertex 1.9999999999999858 1.500000000000003 0.6875000003614282
    vertex -3.4694468485560376e-18 1.0624999999999996 0.6875000000000001
    vertex -3.4694468485560376e-18 1.500000000000003 0.6875000000000001
  endloop
endfacet
facet normal 1.807142560594788e-10 0.0 -1.0
  outer loop
    vertex -3.4694468485560376e-18 1.0624999999999996 0.6875000000000001
    vertex 1.9999999999999858 1.500000000000003 0.6875000003614282
    vertex 1.9999999999999858 1.0624999999999996 0.6875000003614282
  endloop
endfacet
facet normal -2.651711398622289e-34 -1.0 1.4673516050260684e-24
  outer loop
    vertex 1.99999999992098 -5.551115123125783e-16 1.1250000003614278
    vertex -3.4694468485560376e-18 -5.551115123125783e-16 0.6875000000000001
    vertex 1.9999999999999858 -5.551115123125783e-16 0.6875000003614282
  endloop
endfacet
facet normal -2.651711398622289e-34 -1.0 1.4673516050260684e-24
  outer loop
    vertex -3.4694468485560376e-18 -5.551115123125783e-16 0.6875000000000001
    vertex 1.99999999992098 -5.551115123125783e-16 1.1250000003614278
    vertex -7.900565618390574e-11 -5.551115123125783e-16 1.125
  endloop
endfacet
facet normal -1.8071411034270664e-10 2.522636930173062e-16 1.0
  outer loop
    vertex -7.900565618390574e-11 -5.551115123125783e-16 1.125
    vertex 0.3359259943472562 0.5720619064920184 1.125000000060706
    vertex -7.900565618390556e-11 1.500000000000003 1.1249999999999991
  endloop
endfacet
facet normal -1.8071411034270664e-10 2.522636930173062e-16 1.0
  outer loop
    vertex 0.3359259943472562 0.5720619064920184 1.125000000060706
    vertex -7.900565618390574e-11 -5.551115123125783e-16 1.125
    vertex 0.4046075348191845 0.4062500000000012 1.1250000000731193
  endloop
endfacet
facet normal -1.8071411034270664e-10 2.522636930173062e-16 1.0
  outer loop
    vertex 0.4046075348191845 0.4062500000000012 1.1250000000731193
    vertex -7.900565618390574e-11 -5.551115123125783e-16 1.125
    vertex 0.5138640878552319 0.2638640879342494 1.1250000000928635
  endloop
endfacet
facet normal -1.8071411034270664e-10 2.522636930173062e-16 1.0
  outer loop
    vertex 0.5138640878552319 0.2638640879342494 1.1250000000928635
    vertex -7.900565618390574e-11 -5.551115123125783e-16 1.125
    vertex 0.6562499999209943 0.15460753489819934 1.1250000001185936
  endloop
endfacet
facet normal -1.8071411034270664e-10 2.522636930173062e-16 1.0
  outer loop
    vertex 0.6562499999209943 0.15460753489819934 1.1250000001185936
    vertex -7.900565618390574e-11 -5.551115123125783e-16 1.125
    vertex 0.8220619064130044 0.08592599442626658 1.125000000148558
  endloop
endfacet
facet normal -1.8071411034270664e-10 2.522636930173062e-16 1.0
  outer loop
    vertex 0.8220619064130044 0.08592599442626658 1.125000000148558
    vertex -7.900565618390574e-11 -5.551115123125783e-16 1.125
    vertex 0.9999999999209943 0.06250000000000122 1.1250000001807146
  endloop
endfacet
facet normal -1.8071411034270664e-10 2.522636930173062e-16 1.0
  outer loop
    vertex 0.9999999999209943 0.06250000000000122 1.1250000001807146
    vertex -7.900565618390574e-11 -5.551115123125783e-16 1.125
    vertex 1.99999999992098 -5.551115123125783e-16 1.1250000003614278
  endloop
endfacet
facet normal -1.8071411034270664e-10 2.522636930173062e-16 1.0
  outer loop
    vertex -7.900565618390556e-11 1.500000000000003 1.1249999999999991
    vertex 0.3359259943472562 0.5720619064920184 1.125000000060706
    vertex 0.31249999992099436 0.7500000000000012 1.1250000000564726
  endloop
endfacet
facet normal -1.8071411034270664e-10 2.522636930173062e-16 1.0
  outer loop
    vertex 0.9999999999209943 0.06250000000000122 1.1250000001807146
    vertex 1.99999999992098 -5.551115123125783e-16 1.1250000003614278
    vertex 1.17793809342897 0.08592599442626658 1.1250000002128706
  endloop
endfacet
facet normal -1.8071411034270664e-10 2.522636930173062e-16 1.0
  outer loop
    vertex 1.17793809342897 0.08592599442626658 1.1250000002128706
    vertex 1.99999999992098 -5.551115123125783e-16 1.1250000003614278
    vertex 1.3437499999209943 0.15460753489820023 1.1250000002428346
  endloop
endfacet
facet normal -1.8071411034270664e-10 2.522636930173062e-16 1.0
  outer loop
    vertex 1.3437499999209943 0.15460753489820023 1.1250000002428346
    vertex 1.99999999992098 -5.551115123125783e-16 1.1250000003614278
    vertex 1.4861359119867426 0.2638640879342503 1.1250000002685674
  endloop
endfacet
facet normal -1.8071411034270664e-10 2.522636930173062e-16 1.0
  outer loop
    vertex 1.4861359119867426 0.2638640879342503 1.1250000002685674
    vertex 1.99999999992098 -5.551115123125783e-16 1.1250000003614278
    vertex 1.59539246502279 0.4062500000000012 1.1250000002883116
  endloop
endfacet
facet normal -1.8071411034270664e-10 2.522636930173062e-16 1.0
  outer loop
    vertex 1.59539246502279 0.4062500000000012 1.1250000002883116
    vertex 1.99999999992098 -5.551115123125783e-16 1.1250000003614278
    vertex 1.6640740054947183 0.5720619064920184 1.1250000003007217
  endloop
endfacet
facet normal -1.8071411034270664e-10 2.522636930173062e-16 1.0
  outer loop
    vertex 1.6640740054947183 0.5720619064920184 1.1250000003007217
    vertex 1.99999999992098 -5.551115123125783e-16 1.1250000003614278
    vertex 1.6874999999209943 0.7500000000000012 1.1250000003049547
  endloop
endfacet
facet normal -1.8071411034270664e-10 2.522636930173062e-16 1.0
  outer loop
    vertex -7.900565618390556e-11 1.500000000000003 1.1249999999999991
    vertex 0.9999999999209943 1.4375000000000013 1.1250000001807137
    vertex 1.99999999992098 1.500000000000003 1.1250000003614278
  endloop
endfacet
facet normal -1.8071411034270664e-10 2.522636930173062e-16 1.0
  outer loop
    vertex 0.9999999999209943 1.4375000000000013 1.1250000001807137
    vertex -7.900565618390556e-11 1.500000000000003 1.1249999999999991
    vertex 0.8220619064130044 1.414074005573736 1.1250000001485572
  endloop
endfacet
facet normal -1.8071411034270664e-10 2.522636930173062e-16 1.0
  outer loop
    vertex 0.8220619064130044 1.414074005573736 1.1250000001485572
    vertex -7.900565618390556e-11 1.500000000000003 1.1249999999999991
    vertex 0.6562499999209943 1.3453924651018023 1.1250000001185927
  endloop
endfacet
facet normal -1.8071411034270664e-10 2.522636930173062e-16 1.0
  outer loop
    vertex 0.6562499999209943 1.3453924651018023 1.1250000001185927
    vertex -7.900565618390556e-11 1.500000000000003 1.1249999999999991
    vertex 0.5138640878552319 1.2361359120657531 1.1250000000928635
  endloop
endfacet
facet normal -1.8071411034270664e-10 2.522636930173062e-16 1.0
  outer loop
    vertex 0.5138640878552319 1.2361359120657531 1.1250000000928635
    vertex -7.900565618390556e-11 1.500000000000003 1.1249999999999991
    vertex 0.4046075348191845 1.0937500000000013 1.1250000000731193
  endloop
endfacet
facet normal -1.8071411034270664e-10 2.522636930173062e-16 1.0
  outer loop
    vertex 0.4046075348191845 1.0937500000000013 1.1250000000731193
    vertex -7.900565618390556e-11 1.500000000000003 1.1249999999999991
    vertex 0.3359259943472562 0.9279380935079841 1.125000000060706
  endloop
endfacet
facet normal -1.8071411034270664e-10 2.522636930173062e-16 1.0
  outer loop
    vertex 0.3359259943472562 0.9279380935079841 1.125000000060706
    vertex -7.900565618390556e-11 1.500000000000003 1.1249999999999991
    vertex 0.31249999992099436 0.7500000000000012 1.1250000000564726
  endloop
endfacet
facet normal -1.8071411034270664e-10 2.522636930173062e-16 1.0
  outer loop
    vertex 1.99999999992098 1.500000000000003 1.1250000003614278
    vertex 0.9999999999209943 1.4375000000000013 1.1250000001807137
    vertex 1.17793809342897 1.414074005573736 1.1250000002128697
  endloop
endfacet
facet normal -1.8071411034270664e-10 2.522636930173062e-16 1.0
  outer loop
    vertex 1.99999999992098 1.500000000000003 1.1250000003614278
    vertex 1.17793809342897 1.414074005573736 1.1250000002128697
    vertex 1.3437499999209943 1.3453924651018023 1.1250000002428338
  endloop
endfacet
facet normal -1.8071411034270664e-10 2.522636930173062e-16 1.0
  outer loop
    vertex 1.99999999992098 1.500000000000003 1.1250000003614278
    vertex 1.3437499999209943 1.3453924651018023 1.1250000002428338
    vertex 1.4861359119867426 1.2361359120657531 1.1250000002685665
  endloop
endfacet
facet normal -1.8071411034270664e-10 2.522636930173062e-16 1.0
  outer loop
    vertex 1.99999999992098 1.500000000000003 1.1250000003614278
    vertex 1.4861359119867426 1.2361359120657531 1.1250000002685665
    vertex 1.59539246502279 1.0937500000000013 1.1250000002883107
  endloop
endfacet
facet normal -1.8071411034270664e-10 2.522636930173062e-16 1.0
  outer loop
    vertex 1.99999999992098 1.500000000000003 1.1250000003614278
    vertex 1.59539246502279 1.0937500000000013 1.1250000002883107
    vertex 1.6640740054947183 0.9279380935079841 1.1250000003007217
  endloop
endfacet
facet normal -1.8071411034270664e-10 2.522636930173062e-16 1.0
  outer loop
    vertex 1.99999999992098 1.500000000000003 1.1250000003614278
    vertex 1.6640740054947183 0.9279380935079841 1.1250000003007217
    vertex 1.6874999999209943 0.7500000000000012 1.1250000003049547
  endloop
endfacet
facet normal -1.8071411034270664e-10 2.522636930173062e-16 1.0
  outer loop
    vertex 1.99999999992098 1.500000000000003 1.1250000003614278
    vertex 1.6874999999209943 0.7500000000000012 1.1250000003049547
    vertex 1.99999999992098 -5.551115123125783e-16 1.1250000003614278
  endloop
endfacet
facet normal 0.0 1.0 0.0
  outer loop
    vertex -3.4694468485560376e-18 1.500000000000003 0.6875000000000001
    vertex 1.99999999992098 1.500000000000003 1.1250000003614278
    vertex 1.9999999999999858 1.500000000000003 0.6875000003614282
  endloop
endfacet
facet normal 0.0 1.0 0.0
  outer loop
    vertex 1.99999999992098 1.500000000000003 1.1250000003614278
    vertex -3.4694468485560376e-18 1.500000000000003 0.6875000000000001
    vertex -7.900565618390556e-11 1.500000000000003 1.1249999999999991
  endloop
endfacet
facet normal -1.0 -1.7597997946902737e-16 -1.8069376419609754e-10
  outer loop
    vertex -7.900565618390556e-11 1.500000000000003 1.1249999999999991
    vertex -3.4694468485560376e-18 -5.551115123125783e-16 0.6875000000000001
    vertex -7.900565618390574e-11 -5.551115123125783e-16 1.125
  endloop
endfacet
facet normal -1.0 -1.7597997946902737e-16 -1.8069376419609754e-10
  outer loop
    vertex -3.4694468485560376e-18 -5.551115123125783e-16 0.6875000000000001
    vertex -7.900565618390556e-11 1.500000000000003 1.1249999999999991
    vertex -3.4694468485560376e-18 0.43749999999999944 0.6875000000000001
  endloop
endfacet
facet normal -1.0 -1.7597997946902737e-16 -1.8069376419609754e-10
  outer loop
    vertex -3.4694468485560376e-18 0.43749999999999944 0.6875000000000001
    vertex -7.900565618390556e-11 1.500000000000003 1.1249999999999991
    vertex 3.3912345154263606e-11 0.43749999999999944 0.4999999999999992
  endloop
endfacet
facet normal -1.0 -1.7597997946902737e-16 -1.8069376419609754e-10
  outer loop
    vertex 3.3912345154263606e-11 0.43749999999999944 0.4999999999999992
    vertex -7.900565618390556e-11 1.500000000000003 1.1249999999999991
    vertex -3.4694468485560376e-18 1.0624999999999996 0.6875000000000001
  endloop
endfacet
facet normal -1.0 -1.7597997946902737e-16 -1.8069376419609754e-10
  outer loop
    vertex -3.4694468485560376e-18 1.0624999999999996 0.6875000000000001
    vertex -7.900565618390556e-11 1.500000000000003 1.1249999999999991
    vertex -3.4694468485560376e-18 1.500000000000003 0.6875000000000001
  endloop
endfacet
facet normal -1.0 -1.7597997946902737e-16 -1.8069376419609754e-10
  outer loop
    vertex 3.3912345154263606e-11 1.0624999999999996 0.4999999999999992
    vertex 3.3912345154263606e-11 0.43749999999999944 0.4999999999999992
    vertex -3.4694468485560376e-18 1.0624999999999996 0.6875000000000001
  endloop
endfacet
facet normal 1.0 6.033599295507738e-16 1.8072276559196042e-10
  outer loop
    vertex 2.0000000000339266 1.0624999999999996 0.5000000003614282
    vertex 1.9999999999999858 0.43749999999999944 0.6875000003614282
    vertex 2.0000000000339266 0.43749999999999944 0.5000000003614282
  endloop
endfacet
facet normal 1.0 6.033599295507738e-16 1.8072276559196042e-10
  outer loop
    vertex 1.9999999999999858 0.43749999999999944 0.6875000003614282
    vertex 1.99999999992098 -5.551115123125783e-16 1.1250000003614278
    vertex 1.9999999999999858 -5.551115123125783e-16 0.6875000003614282
  endloop
endfacet
facet normal 1.0 6.033599295507738e-16 1.8072276559196042e-10
  outer loop
    vertex 1.99999999992098 -5.551115123125783e-16 1.1250000003614278
    vertex 1.9999999999999858 0.43749999999999944 0.6875000003614282
    vertex 1.99999999992098 1.500000000000003 1.1250000003614278
  endloop
endfacet
facet normal 1.0 6.033599295507738e-16 1.8072276559196042e-10
  outer loop
    vertex 1.99999999992098 1.500000000000003 1.1250000003614278
    vertex 1.9999999999999858 0.43749999999999944 0.6875000003614282
    vertex 1.9999999999999858 1.0624999999999996 0.6875000003614282
  endloop
endfacet
facet normal 1.0 6.033599295507738e-16 1.8072276559196042e-10
  outer loop
    vertex 1.9999999999999858 1.0624999999999996 0.6875000003614282
    vertex 1.9999999999999858 0.43749999999999944 0.6875000003614282
    vertex 2.0000000000339266 1.0624999999999996 0.5000000003614282
  endloop
endfacet
facet normal 1.0 6.033599295507738e-16 1.8072276559196042e-10
  outer loop
    vertex 1.99999999992098 1.500000000000003 1.1250000003614278
    vertex 1.9999999999999858 1.0624999999999996 0.6875000003614282
    vertex 1.9999999999999858 1.500000000000003 0.6875000003614282
  endloop
endfacet
facet normal -1.807142587880992e-10 6.320610557572961e-16 1.0
  outer loop
    vertex 0.33592599439236365 0.5720619064920184 0.8750000000607072
    vertex 0.33592599439236365 0.9279380935079841 0.8750000000607072
    vertex 0.31249999996610184 0.7500000000000012 0.875000000056471
  endloop
endfacet
facet normal -1.807142587880992e-10 6.320610557572961e-16 1.0
  outer loop
    vertex 0.33592599439236365 0.9279380935079841 0.8750000000607072
    vertex 0.33592599439236365 0.5720619064920184 0.8750000000607072
    vertex 0.4046075348643062 0.4062500000000012 0.8750000000731194
  endloop
endfacet
facet normal -1.807142587880992e-10 6.320610557572961e-16 1.0
  outer loop
    vertex 0.33592599439236365 0.9279380935079841 0.8750000000607072
    vertex 0.4046075348643062 0.4062500000000012 0.8750000000731194
    vertex 0.4046075348643062 1.0937500000000013 0.8750000000731194
  endloop
endfacet
facet normal -1.807142587880992e-10 6.320610557572961e-16 1.0
  outer loop
    vertex 0.4046075348643062 1.0937500000000013 0.8750000000731194
    vertex 0.4046075348643062 0.4062500000000012 0.8750000000731194
    vertex 0.5138640879003536 0.2638640879342494 0.8750000000928636
  endloop
endfacet
facet normal -1.807142587880992e-10 6.320610557572961e-16 1.0
  outer loop
    vertex 0.4046075348643062 1.0937500000000013 0.8750000000731194
    vertex 0.5138640879003536 0.2638640879342494 0.8750000000928636
    vertex 0.5138640879003536 1.2361359120657531 0.8750000000928636
  endloop
endfacet
facet normal -1.807142587880992e-10 6.320610557572961e-16 1.0
  outer loop
    vertex 0.5138640879003536 1.2361359120657531 0.8750000000928636
    vertex 0.5138640879003536 0.2638640879342494 0.8750000000928636
    vertex 0.6562499999661019 0.15460753489819934 0.875000000118592
  endloop
endfacet
facet normal -1.807142587880992e-10 6.320610557572961e-16 1.0
  outer loop
    vertex 0.5138640879003536 1.2361359120657531 0.8750000000928636
    vertex 0.6562499999661019 0.15460753489819934 0.875000000118592
    vertex 0.6562499999661019 1.3453924651018023 0.8750000001185911
  endloop
endfacet
facet normal -1.807142587880992e-10 6.320610557572961e-16 1.0
  outer loop
    vertex 0.6562499999661019 1.3453924651018023 0.8750000001185911
    vertex 0.6562499999661019 0.15460753489819934 0.875000000118592
    vertex 0.8220619064581262 0.08592599442626658 0.8750000001485579
  endloop
endfacet
facet normal -1.807142587880992e-10 6.320610557572961e-16 1.0
  outer loop
    vertex 0.6562499999661019 1.3453924651018023 0.8750000001185911
    vertex 0.8220619064581262 0.08592599442626658 0.8750000001485579
    vertex 0.8220619064581262 1.414074005573736 0.8750000001485571
  endloop
endfacet
facet normal -1.807142587880992e-10 6.320610557572961e-16 1.0
  outer loop
    vertex 0.8220619064581262 1.414074005573736 0.8750000001485571
    vertex 0.8220619064581262 0.08592599442626658 0.8750000001485579
    vertex 0.9999999999661019 0.06250000000000122 0.8750000001807126
  endloop
endfacet
facet normal -1.807142587880992e-10 6.320610557572961e-16 1.0
  outer loop
    vertex 0.8220619064581262 1.414074005573736 0.8750000001485571
    vertex 0.9999999999661019 0.06250000000000122 0.8750000001807126
    vertex 0.9999999999661019 1.4375000000000013 0.8750000001807117
  endloop
endfacet
facet normal -1.807142587880992e-10 6.320610557572961e-16 1.0
  outer loop
    vertex 0.9999999999661019 1.4375000000000013 0.8750000001807117
    vertex 0.9999999999661019 0.06250000000000122 0.8750000001807126
    vertex 1.1779380934740917 0.08592599442626658 0.8750000002128713
  endloop
endfacet
facet normal -1.807142587880992e-10 6.320610557572961e-16 1.0
  outer loop
    vertex 0.9999999999661019 1.4375000000000013 0.8750000001807117
    vertex 1.1779380934740917 0.08592599442626658 0.8750000002128713
    vertex 1.1779380934740917 1.414074005573736 0.8750000002128704
  endloop
endfacet
facet normal -1.807142587880992e-10 6.320610557572961e-16 1.0
  outer loop
    vertex 1.1779380934740917 1.414074005573736 0.8750000002128704
    vertex 1.1779380934740917 0.08592599442626658 0.8750000002128713
    vertex 1.3437499999661018 0.15460753489820023 0.8750000002428345
  endloop
endfacet
facet normal -1.807142587880992e-10 6.320610557572961e-16 1.0
  outer loop
    vertex 1.1779380934740917 1.414074005573736 0.8750000002128704
    vertex 1.3437499999661018 0.15460753489820023 0.8750000002428345
    vertex 1.3437499999661018 1.3453924651018023 0.8750000002428336
  endloop
endfacet
facet normal -1.807142587880992e-10 6.320610557572961e-16 1.0
  outer loop
    vertex 1.3437499999661018 1.3453924651018023 0.8750000002428336
    vertex 1.3437499999661018 0.15460753489820023 0.8750000002428345
    vertex 1.48613591203185 0.2638640879342503 0.8750000002685661
  endloop
endfacet
facet normal -1.807142587880992e-10 6.320610557572961e-16 1.0
  outer loop
    vertex 1.3437499999661018 1.3453924651018023 0.8750000002428336
    vertex 1.48613591203185 0.2638640879342503 0.8750000002685661
    vertex 1.48613591203185 1.2361359120657531 0.8750000002685656
  endloop
endfacet
facet normal -1.807142587880992e-10 6.320610557572961e-16 1.0
  outer loop
    vertex 1.48613591203185 1.2361359120657531 0.8750000002685656
    vertex 1.48613591203185 0.2638640879342503 0.8750000002685661
    vertex 1.5953924650679117 0.4062500000000012 0.8750000002883103
  endloop
endfacet
facet normal -1.807142587880992e-10 6.320610557572961e-16 1.0
  outer loop
    vertex 1.48613591203185 1.2361359120657531 0.8750000002685656
    vertex 1.5953924650679117 0.4062500000000012 0.8750000002883103
    vertex 1.5953924650679117 1.0937500000000013 0.8750000002883098
  endloop
endfacet
facet normal -1.807142587880992e-10 6.320610557572961e-16 1.0
  outer loop
    vertex 1.5953924650679117 1.0937500000000013 0.8750000002883098
    vertex 1.5953924650679117 0.4062500000000012 0.8750000002883103
    vertex 1.66407400553984 0.5720619064920184 0.8750000003007216
  endloop
endfacet
facet normal -1.807142587880992e-10 6.320610557572961e-16 1.0
  outer loop
    vertex 1.5953924650679117 1.0937500000000013 0.8750000002883098
    vertex 1.66407400553984 0.5720619064920184 0.8750000003007216
    vertex 1.66407400553984 0.9279380935079841 0.8750000003007216
  endloop
endfacet
facet normal -1.807142587880992e-10 6.320610557572961e-16 1.0
  outer loop
    vertex 1.66407400553984 0.9279380935079841 0.8750000003007216
    vertex 1.66407400553984 0.5720619064920184 0.8750000003007216
    vertex 1.6874999999661018 0.7500000000000012 0.8750000003049546
  endloop
endfacet
facet normal 0.13052619222005069 0.9914448613738106 2.3587317425793613e-11
  outer loop
    vertex 0.8220619064581262 0.08592599442626658 0.8750000001485579
    vertex 0.9999999999209943 0.06250000000000122 1.1250000001807146
    vertex 0.9999999999661019 0.06250000000000122 0.8750000001807126
  endloop
endfacet
facet normal 0.13052619222005069 0.9914448613738106 2.3587317425793613e-11
  outer loop
    vertex 0.9999999999209943 0.06250000000000122 1.1250000001807146
    vertex 0.8220619064581262 0.08592599442626658 0.8750000001485579
    vertex 0.8220619064130044 0.08592599442626658 1.125000000148558
  endloop
endfacet
facet normal -0.13052619222005069 0.9914448613738106 -2.3588570733165227e-11
  outer loop
    vertex 0.9999999999209943 0.06250000000000122 1.1250000001807146
    vertex 1.1779380934740917 0.08592599442626658 0.8750000002128713
    vertex 0.9999999999661019 0.06250000000000122 0.8750000001807126
  endloop
endfacet
facet normal -0.13052619222005069 0.9914448613738106 -2.3588570733165227e-11
  outer loop
    vertex 1.1779380934740917 0.08592599442626658 0.8750000002128713
    vertex 0.9999999999209943 0.06250000000000122 1.1250000001807146
    vertex 1.17793809342897 0.08592599442626658 1.1250000002128706
  endloop
endfacet
facet normal -0.38268343236509306 0.9238795325112854 -6.91569367786162e-11
  outer loop
    vertex 1.1779380934740917 0.08592599442626658 0.8750000002128713
    vertex 1.3437499999209943 0.15460753489820023 1.1250000002428346
    vertex 1.3437499999661018 0.15460753489820023 0.8750000002428345
  endloop
endfacet
facet normal -0.38268343236509306 0.9238795325112854 -6.91569367786162e-11
  outer loop
    vertex 1.3437499999209943 0.15460753489820023 1.1250000002428346
    vertex 1.1779380934740917 0.08592599442626658 0.8750000002128713
    vertex 1.17793809342897 0.08592599442626658 1.1250000002128706
  endloop
endfacet
facet normal -0.6087614290087194 0.7933533402912362 -1.1001237186984466e-10
  outer loop
    vertex 1.3437499999209943 0.15460753489820023 1.1250000002428346
    vertex 1.48613591203185 0.2638640879342503 0.8750000002685661
    vertex 1.3437499999661018 0.15460753489820023 0.8750000002428345
  endloop
endfacet
facet normal -0.6087614290087194 0.7933533402912362 -1.1001237186984466e-10
  outer loop
    vertex 1.48613591203185 0.2638640879342503 0.8750000002685661
    vertex 1.3437499999209943 0.15460753489820023 1.1250000002428346
    vertex 1.4861359119867426 0.2638640879342503 1.1250000002685674
  endloop
endfacet
facet normal -0.793353340291232 0.608761429008725 -1.4337064562218413e-10
  outer loop
    vertex 1.59539246502279 0.4062500000000012 1.1250000002883116
    vertex 1.48613591203185 0.2638640879342503 0.8750000002685661
    vertex 1.4861359119867426 0.2638640879342503 1.1250000002685674
  endloop
endfacet
facet normal -0.793353340291232 0.608761429008725 -1.4337064562218413e-10
  outer loop
    vertex 1.48613591203185 0.2638640879342503 0.8750000002685661
    vertex 1.59539246502279 0.4062500000000012 1.1250000002883116
    vertex 1.5953924650679117 0.4062500000000012 0.8750000002883103
  endloop
endfacet
facet normal -0.923879532511289 0.3826834323650846 -1.6695844680656748e-10
  outer loop
    vertex 1.6640740054947183 0.5720619064920184 1.1250000003007217
    vertex 1.5953924650679117 0.4062500000000012 0.8750000002883103
    vertex 1.59539246502279 0.4062500000000012 1.1250000002883116
  endloop
endfacet
facet normal -0.923879532511289 0.3826834323650846 -1.6695844680656748e-10
  outer loop
    vertex 1.5953924650679117 0.4062500000000012 0.8750000002883103
    vertex 1.6640740054947183 0.5720619064920184 1.1250000003007217
    vertex 1.66407400553984 0.5720619064920184 0.8750000003007216
  endloop
endfacet
facet normal -0.9914448613738106 0.13052619222005069 -1.791683057529608e-10
  outer loop
    vertex 1.6874999999209943 0.7500000000000012 1.1250000003049547
    vertex 1.66407400553984 0.5720619064920184 0.8750000003007216
    vertex 1.6640740054947183 0.5720619064920184 1.1250000003007217
  endloop
endfacet
facet normal -0.9914448613738106 0.13052619222005069 -1.791683057529608e-10
  outer loop
    vertex 1.66407400553984 0.5720619064920184 0.8750000003007216
    vertex 1.6874999999209943 0.7500000000000012 1.1250000003049547
    vertex 1.6874999999661018 0.7500000000000012 0.8750000003049546
  endloop
endfacet
facet normal -0.9914448613738106 -0.13052619222005069 -1.791681407519151e-10
  outer loop
    vertex 1.6640740054947183 0.9279380935079841 1.1250000003007217
    vertex 1.6874999999661018 0.7500000000000012 0.8750000003049546
    vertex 1.6874999999209943 0.7500000000000012 1.1250000003049547
  endloop
endfacet
facet normal -0.9914448613738106 -0.13052619222005069 -1.791681407519151e-10
  outer loop
    vertex 1.6874999999661018 0.7500000000000012 0.8750000003049546
    vertex 1.6640740054947183 0.9279380935079841 1.1250000003007217
    vertex 1.66407400553984 0.9279380935079841 0.8750000003007216
  endloop
endfacet
facet normal -0.923879532511289 -0.3826834323650846 -1.6695796304797888e-10
  outer loop
    vertex 1.59539246502279 1.0937500000000013 1.1250000002883107
    vertex 1.66407400553984 0.9279380935079841 0.8750000003007216
    vertex 1.6640740054947183 0.9279380935079841 1.1250000003007217
  endloop
endfacet
facet normal -0.923879532511289 -0.3826834323650846 -1.6695796304797888e-10
  outer loop
    vertex 1.66407400553984 0.9279380935079841 0.8750000003007216
    vertex 1.59539246502279 1.0937500000000013 1.1250000002883107
    vertex 1.5953924650679117 1.0937500000000013 0.8750000002883098
  endloop
endfacet
facet normal -0.7933533402912337 -0.6087614290087225 -1.433698760734014e-10
  outer loop
    vertex 1.4861359119867426 1.2361359120657531 1.1250000002685665
    vertex 1.5953924650679117 1.0937500000000013 0.8750000002883098
    vertex 1.59539246502279 1.0937500000000013 1.1250000002883107
  endloop
endfacet
facet normal -0.7933533402912337 -0.6087614290087225 -1.433698760734014e-10
  outer loop
    vertex 1.5953924650679117 1.0937500000000013 0.8750000002883098
    vertex 1.4861359119867426 1.2361359120657531 1.1250000002685665
    vertex 1.48613591203185 1.2361359120657531 0.8750000002685656
  endloop
endfacet
facet normal -0.6087614290087163 -0.7933533402912385 -1.1001136897434437e-10
  outer loop
    vertex 1.48613591203185 1.2361359120657531 0.8750000002685656
    vertex 1.3437499999209943 1.3453924651018023 1.1250000002428338
    vertex 1.3437499999661018 1.3453924651018023 0.8750000002428336
  endloop
endfacet
facet normal -0.6087614290087163 -0.7933533402912385 -1.1001136897434437e-10
  outer loop
    vertex 1.3437499999209943 1.3453924651018023 1.1250000002428338
    vertex 1.48613591203185 1.2361359120657531 0.8750000002685656
    vertex 1.4861359119867426 1.2361359120657531 1.1250000002685665
  endloop
endfacet
facet normal -0.38268343236509306 -0.9238795325112854 -6.915576888207078e-11
  outer loop
    vertex 1.3437499999209943 1.3453924651018023 1.1250000002428338
    vertex 1.1779380934740917 1.414074005573736 0.8750000002128704
    vertex 1.3437499999661018 1.3453924651018023 0.8750000002428336
  endloop
endfacet
facet normal -0.38268343236509306 -0.9238795325112854 -6.915576888207078e-11
  outer loop
    vertex 1.1779380934740917 1.414074005573736 0.8750000002128704
    vertex 1.3437499999209943 1.3453924651018023 1.1250000002428338
    vertex 1.17793809342897 1.414074005573736 1.1250000002128697
  endloop
endfacet
facet normal -0.13052619222005069 -0.9914448613738106 -2.3587317425793613e-11
  outer loop
    vertex 1.1779380934740917 1.414074005573736 0.8750000002128704
    vertex 0.9999999999209943 1.4375000000000013 1.1250000001807137
    vertex 0.9999999999661019 1.4375000000000013 0.8750000001807117
  endloop
endfacet
facet normal -0.13052619222005069 -0.9914448613738106 -2.3587317425793613e-11
  outer loop
    vertex 0.9999999999209943 1.4375000000000013 1.1250000001807137
    vertex 1.1779380934740917 1.414074005573736 0.8750000002128704
    vertex 1.17793809342897 1.414074005573736 1.1250000002128697
  endloop
endfacet
facet normal 0.13052619222005069 -0.9914448613738106 2.3588570733165227e-11
  outer loop
    vertex 0.9999999999209943 1.4375000000000013 1.1250000001807137
    vertex 0.8220619064581262 1.414074005573736 0.8750000001485571
    vertex 0.9999999999661019 1.4375000000000013 0.8750000001807117
  endloop
endfacet
facet normal 0.13052619222005069 -0.9914448613738106 2.3588570733165227e-11
  outer loop
    vertex 0.8220619064581262 1.414074005573736 0.8750000001485571
    vertex 0.9999999999209943 1.4375000000000013 1.1250000001807137
    vertex 0.8220619064130044 1.414074005573736 1.1250000001485572
  endloop
endfacet
facet normal 0.38268343236509306 -0.9238795325112854 6.91569367786162e-11
  outer loop
    vertex 0.8220619064581262 1.414074005573736 0.8750000001485571
    vertex 0.6562499999209943 1.3453924651018023 1.1250000001185927
    vertex 0.6562499999661019 1.3453924651018023 0.8750000001185911
  endloop
endfacet
facet normal 0.38268343236509306 -0.9238795325112854 6.91569367786162e-11
  outer loop
    vertex 0.6562499999209943 1.3453924651018023 1.1250000001185927
    vertex 0.8220619064581262 1.414074005573736 0.8750000001485571
    vertex 0.8220619064130044 1.414074005573736 1.1250000001485572
  endloop
endfacet
facet normal 0.6087614290087163 -0.7933533402912385 1.1001237186984409e-10
  outer loop
    vertex 0.6562499999209943 1.3453924651018023 1.1250000001185927
    vertex 0.5138640879003536 1.2361359120657531 0.8750000000928636
    vertex 0.6562499999661019 1.3453924651018023 0.8750000001185911
  endloop
endfacet
facet normal 0.6087614290087163 -0.7933533402912385 1.1001237186984409e-10
  outer loop
    vertex 0.5138640879003536 1.2361359120657531 0.8750000000928636
    vertex 0.6562499999209943 1.3453924651018023 1.1250000001185927
    vertex 0.5138640878552319 1.2361359120657531 1.1250000000928635
  endloop
endfacet
facet normal 0.7933533402912385 -0.6087614290087163 1.4337064562218532e-10
  outer loop
    vertex 0.5138640879003536 1.2361359120657531 0.8750000000928636
    vertex 0.4046075348191845 1.0937500000000013 1.1250000000731193
    vertex 0.4046075348643062 1.0937500000000013 0.8750000000731194
  endloop
endfacet
facet normal 0.7933533402912385 -0.6087614290087163 1.4337064562218532e-10
  outer loop
    vertex 0.4046075348191845 1.0937500000000013 1.1250000000731193
    vertex 0.5138640879003536 1.2361359120657531 0.8750000000928636
    vertex 0.5138640878552319 1.2361359120657531 1.1250000000928635
  endloop
endfacet
facet normal 0.9238795325112854 -0.38268343236509306 1.6695844680656684e-10
  outer loop
    vertex 0.4046075348643062 1.0937500000000013 0.8750000000731194
    vertex 0.3359259943472562 0.9279380935079841 1.125000000060706
    vertex 0.33592599439236365 0.9279380935079841 0.8750000000607072
  endloop
endfacet
facet normal 0.9238795325112854 -0.38268343236509306 1.6695844680656684e-10
  outer loop
    vertex 0.3359259943472562 0.9279380935079841 1.125000000060706
    vertex 0.4046075348643062 1.0937500000000013 0.8750000000731194
    vertex 0.4046075348191845 1.0937500000000013 1.1250000000731193
  endloop
endfacet
facet normal 0.9914448613738106 -0.13052619222005069 1.791683057529608e-10
  outer loop
    vertex 0.33592599439236365 0.9279380935079841 0.8750000000607072
    vertex 0.31249999992099436 0.7500000000000012 1.1250000000564726
    vertex 0.31249999996610184 0.7500000000000012 0.875000000056471
  endloop
endfacet
facet normal 0.9914448613738106 -0.13052619222005069 1.791683057529608e-10
  outer loop
    vertex 0.31249999992099436 0.7500000000000012 1.1250000000564726
    vertex 0.33592599439236365 0.9279380935079841 0.8750000000607072
    vertex 0.3359259943472562 0.9279380935079841 1.125000000060706
  endloop
endfacet
facet normal 0.9914448613738106 0.13052619222005069 1.791681407519151e-10
  outer loop
    vertex 0.31249999996610184 0.7500000000000012 0.875000000056471
    vertex 0.3359259943472562 0.5720619064920184 1.125000000060706
    vertex 0.33592599439236365 0.5720619064920184 0.8750000000607072
  endloop
endfacet
facet normal 0.9914448613738106 0.13052619222005069 1.791681407519151e-10
  outer loop
    vertex 0.3359259943472562 0.5720619064920184 1.125000000060706
    vertex 0.31249999996610184 0.7500000000000012 0.875000000056471
    vertex 0.31249999992099436 0.7500000000000012 1.1250000000564726
  endloop
endfacet
facet normal 0.9238795325112854 0.38268343236509306 1.6695796304797826e-10
  outer loop
    vertex 0.33592599439236365 0.5720619064920184 0.8750000000607072
    vertex 0.4046075348191845 0.4062500000000012 1.1250000000731193
    vertex 0.4046075348643062 0.4062500000000012 0.8750000000731194
  endloop
endfacet
facet normal 0.9238795325112854 0.38268343236509306 1.6695796304797826e-10
  outer loop
    vertex 0.4046075348191845 0.4062500000000012 1.1250000000731193
    vertex 0.33592599439236365 0.5720619064920184 0.8750000000607072
    vertex 0.3359259943472562 0.5720619064920184 1.125000000060706
  endloop
endfacet
facet normal 0.7933533402912385 0.6087614290087163 1.4336987607340227e-10
  outer loop
    vertex 0.4046075348643062 0.4062500000000012 0.8750000000731194
    vertex 0.5138640878552319 0.2638640879342494 1.1250000000928635
    vertex 0.5138640879003536 0.2638640879342494 0.8750000000928636
  endloop
endfacet
facet normal 0.7933533402912385 0.6087614290087163 1.4336987607340227e-10
  outer loop
    vertex 0.5138640878552319 0.2638640879342494 1.1250000000928635
    vertex 0.4046075348643062 0.4062500000000012 0.8750000000731194
    vertex 0.4046075348191845 0.4062500000000012 1.1250000000731193
  endloop
endfacet
facet normal 0.6087614290087194 0.7933533402912362 1.1001136897434494e-10
  outer loop
    vertex 0.5138640879003536 0.2638640879342494 0.8750000000928636
    vertex 0.6562499999209943 0.15460753489819934 1.1250000001185936
    vertex 0.6562499999661019 0.15460753489819934 0.875000000118592
  endloop
endfacet
facet normal 0.6087614290087194 0.7933533402912362 1.1001136897434494e-10
  outer loop
    vertex 0.6562499999209943 0.15460753489819934 1.1250000001185936
    vertex 0.5138640879003536 0.2638640879342494 0.8750000000928636
    vertex 0.5138640878552319 0.2638640879342494 1.1250000000928635
  endloop
endfacet
facet normal 0.38268343236508884 0.9238795325112872 6.915576888207001e-11
  outer loop
    vertex 0.6562499999209943 0.15460753489819934 1.1250000001185936
    vertex 0.8220619064581262 0.08592599442626658 0.8750000001485579
    vertex 0.6562499999661019 0.15460753489819934 0.875000000118592
  endloop
endfacet
facet normal 0.38268343236508884 0.9238795325112872 6.915576888207001e-11
  outer loop
    vertex 0.8220619064581262 0.08592599442626658 0.8750000001485579
    vertex 0.6562499999209943 0.15460753489819934 1.1250000001185936
    vertex 0.8220619064130044 0.08592599442626658 1.125000000148558
  endloop
endfacet
facet normal 0.0 1.0 0.0
  outer loop
    vertex 0.8075816363890201 1.0624999999999996 0.014898719562651925
    vertex 1.1924183638541765 1.0624999999999996 0.014898719632197415
    vertex 1.000000000124241 1.0624999999999996 1.8071483198767164e-10
  endloop
endfacet
facet normal 0.0 1.0 0.0
  outer loop
    vertex 1.1924183638541765 1.0624999999999996 0.014898719632197415
    vertex 0.8075816363890201 1.0624999999999996 0.014898719562651925
    vertex 0.6197501321874535 1.0624999999999996 0.05923972283442753
  endloop
endfacet
facet normal 0.0 1.0 0.0
  outer loop
    vertex 1.1924183638541765 1.0624999999999996 0.014898719632197415
    vertex 0.6197501321874535 1.0624999999999996 0.05923972283442753
    vertex 1.3802498680397173 1.0624999999999996 0.05923972297186069
  endloop
endfacet
facet normal 0.0 1.0 0.0
  outer loop
    vertex 1.3802498680397173 1.0624999999999996 0.05923972297186069
    vertex 0.6197501321874535 1.0624999999999996 0.05923972283442753
    vertex 0.44098300572549254 1.0624999999999996 0.1319660113297969
  endloop
endfacet
facet normal 0.0 1.0 0.0
  outer loop
    vertex 1.3802498680397173 1.0624999999999996 0.05923972297186069
    vertex 0.44098300572549254 1.0624999999999996 0.1319660113297969
    vertex 1.0000000001016518 1.0624999999999996 0.12500000018071483
  endloop
endfacet
facet normal 0.0 1.0 0.0
  outer loop
    vertex 1.0000000001016518 1.0624999999999996 0.12500000018071483
    vertex 0.44098300572549254 1.0624999999999996 0.1319660113297969
    vertex 0.9676476194630644 1.0624999999999996 0.12925927188873415
  endloop
endfacet
facet normal 0.0 1.0 0.0
  outer loop
    vertex 0.9676476194630644 1.0624999999999996 0.12925927188873415
    vertex 0.44098300572549254 1.0624999999999996 0.1319660113297969
    vertex 0.9375000000986254 1.0624999999999996 0.14174682469636418
  endloop
endfacet
facet normal 0.0 1.0 0.0
  outer loop
    vertex 0.9375000000986254 1.0624999999999996 0.14174682469636418
    vertex 0.44098300572549254 1.0624999999999996 0.1319660113297969
    vertex 0.2755416990160707 1.0624999999999996 0.23134393934234423
  endloop
endfacet
facet normal 0.0 1.0 0.0
  outer loop
    vertex 0.9375000000986254 1.0624999999999996 0.14174682469636418
    vertex 0.2755416990160707 1.0624999999999996 0.23134393934234423
    vertex 0.9116116524467448 1.0624999999999996 0.16161165251642354
  endloop
endfacet
facet normal 0.0 1.0 0.0
  outer loop
    vertex 0.9116116524467448 1.0624999999999996 0.16161165251642354
    vertex 0.2755416990160707 1.0624999999999996 0.23134393934234423
    vertex 0.8917468246173473 1.0624999999999996 0.18750000016115104
  endloop
endfacet
facet normal 0.0 1.0 0.0
  outer loop
    vertex 0.8917468246173473 1.0624999999999996 0.18750000016115104
    vertex 0.2755416990160707 1.0624999999999996 0.23134393934234423
    vertex 0.8792592717987865 1.0624999999999996 0.2176476195210794
  endloop
endfacet
facet normal 0.0 1.0 0.0
  outer loop
    vertex 0.8792592717987865 1.0624999999999996 0.2176476195210794
    vertex 0.2755416990160707 1.0624999999999996 0.23134393934234423
    vertex 0.8750000000791194 1.0624999999999996 0.250000000158126
  endloop
endfacet
facet normal 0.0 1.0 0.0
  outer loop
    vertex 0.8750000000791194 1.0624999999999996 0.250000000158126
    vertex 0.2755416990160707 1.0624999999999996 0.23134393934234423
    vertex 0.12736999383304556 1.0624999999999996 0.3550045406869914
  endloop
endfacet
facet normal 0.0 1.0 0.0
  outer loop
    vertex 0.8750000000791194 1.0624999999999996 0.250000000158126
    vertex 0.12736999383304556 1.0624999999999996 0.3550045406869914
    vertex 0.8792592717870792 1.0624999999999996 0.2823523807967094
  endloop
endfacet
facet normal 0.0 1.0 0.0
  outer loop
    vertex 0.8792592717870792 1.0624999999999996 0.2823523807967094
    vertex 0.12736999383304556 1.0624999999999996 0.3550045406869914
    vertex 0.8917468245947012 1.0624999999999996 0.31250000016115104
  endloop
endfacet
facet normal 0.0 1.0 0.0
  outer loop
    vertex 0.8917468245947012 1.0624999999999996 0.31250000016115104
    vertex 0.12736999383304556 1.0624999999999996 0.3550045406869914
    vertex 0.9116116524148271 1.0624999999999996 0.3383883478130594
  endloop
endfacet
facet normal 0.0 1.0 0.0
  outer loop
    vertex 0.9116116524148271 1.0624999999999996 0.3383883478130594
    vertex 0.12736999383304556 1.0624999999999996 0.3550045406869914
    vertex 0.9375000000594854 1.0624999999999996 0.35825317564247444
  endloop
endfacet
facet normal 0.0 1.0 0.0
  outer loop
    vertex 0.9375000000594854 1.0624999999999996 0.35825317564247444
    vertex 0.12736999383304556 1.0624999999999996 0.3550045406869914
    vertex 3.3912345154263606e-11 1.0624999999999996 0.4999999999999992
  endloop
endfacet
facet normal 0.0 1.0 0.0
  outer loop
    vertex 0.9375000000594854 1.0624999999999996 0.35825317564247444
    vertex 3.3912345154263606e-11 1.0624999999999996 0.4999999999999992
    vertex 0.9676476194194252 1.0624999999999996 0.37074072846100065
  endloop
endfacet
facet normal 0.0 1.0 0.0
  outer loop
    vertex 0.9676476194194252 1.0624999999999996 0.37074072846100065
    vertex 3.3912345154263606e-11 1.0624999999999996 0.4999999999999992
    vertex 1.0000000000564873 1.0624999999999996 0.37500000018071483
  endloop
endfacet
facet normal 0.0 1.0 0.0
  outer loop
    vertex 1.0000000001016518 1.0624999999999996 0.12500000018071483
    vertex 1.5590169944753929 1.0624999999999996 0.1319660115318423
    vertex 1.3802498680397173 1.0624999999999996 0.05923972297186069
  endloop
endfacet
facet normal 0.0 1.0 0.0
  outer loop
    vertex 1.5590169944753929 1.0624999999999996 0.1319660115318423
    vertex 1.0000000001016518 1.0624999999999996 0.12500000018071483
    vertex 1.0323523807386854 1.0624999999999996 0.12925927190042724
  endloop
endfacet
facet normal 0.0 1.0 0.0
  outer loop
    vertex 1.5590169944753929 1.0624999999999996 0.1319660115318423
    vertex 1.0323523807386854 1.0624999999999996 0.12925927190042724
    vertex 1.0625000000986253 1.0624999999999996 0.14174682471895345
  endloop
endfacet
facet normal 0.0 1.0 0.0
  outer loop
    vertex 1.5590169944753929 1.0624999999999996 0.1319660115318423
    vertex 1.0625000000986253 1.0624999999999996 0.14174682471895345
    vertex 1.7244583011487828 1.0624999999999996 0.23134393960418417
  endloop
endfacet
facet normal 0.0 1.0 0.0
  outer loop
    vertex 1.7244583011487828 1.0624999999999996 0.23134393960418417
    vertex 1.0625000000986253 1.0624999999999996 0.14174682471895345
    vertex 1.0883883477433831 1.0624999999999996 0.16161165254836915
  endloop
endfacet
facet normal 0.0 1.0 0.0
  outer loop
    vertex 1.7244583011487828 1.0624999999999996 0.23134393960418417
    vertex 1.0883883477433831 1.0624999999999996 0.16161165254836915
    vertex 1.1082531755634664 1.0624999999999996 0.18750000020027685
  endloop
endfacet
facet normal 0.0 1.0 0.0
  outer loop
    vertex 1.7244583011487828 1.0624999999999996 0.23134393960418417
    vertex 1.1082531755634664 1.0624999999999996 0.18750000020027685
    vertex 1.1207407283710458 1.0624999999999996 0.2176476195647181
  endloop
endfacet
facet normal 0.0 1.0 0.0
  outer loop
    vertex 1.7244583011487828 1.0624999999999996 0.23134393960418417
    vertex 1.1207407283710458 1.0624999999999996 0.2176476195647181
    vertex 1.1250000000791194 1.0624999999999996 0.2500000002033041
  endloop
endfacet
facet normal 0.0 1.0 0.0
  outer loop
    vertex 1.7244583011487828 1.0624999999999996 0.23134393960418417
    vertex 1.1250000000791194 1.0624999999999996 0.2500000002033041
    vertex 1.8726300062872272 1.0624999999999996 0.3550045410023839
  endloop
endfacet
facet normal 0.0 1.0 0.0
  outer loop
    vertex 1.8726300062872272 1.0624999999999996 0.3550045410023839
    vertex 1.1250000000791194 1.0624999999999996 0.2500000002033041
    vertex 1.1207407283593527 1.0624999999999996 0.282352380840348
  endloop
endfacet
facet normal 0.0 1.0 0.0
  outer loop
    vertex 1.8726300062872272 1.0624999999999996 0.3550045410023839
    vertex 1.1207407283593527 1.0624999999999996 0.282352380840348
    vertex 1.108253175540806 1.0624999999999996 0.31250000020027685
  endloop
endfacet
facet normal 0.0 1.0 0.0
  outer loop
    vertex 1.8726300062872272 1.0624999999999996 0.3550045410023839
    vertex 1.108253175540806 1.0624999999999996 0.31250000020027685
    vertex 1.0883883477114655 1.0624999999999996 0.33838834784500527
  endloop
endfacet
facet normal 0.0 1.0 0.0
  outer loop
    vertex 1.8726300062872272 1.0624999999999996 0.3550045410023839
    vertex 1.0883883477114655 1.0624999999999996 0.33838834784500527
    vertex 1.0625000000594853 1.0624999999999996 0.3582531756650637
  endloop
endfacet
facet normal 0.0 1.0 0.0
  outer loop
    vertex 1.8726300062872272 1.0624999999999996 0.3550045410023839
    vertex 1.0625000000594853 1.0624999999999996 0.3582531756650637
    vertex 2.0000000000339266 1.0624999999999996 0.5000000003614282
  endloop
endfacet
facet normal 0.0 1.0 0.0
  outer loop
    vertex 2.0000000000339266 1.0624999999999996 0.5000000003614282
    vertex 1.0625000000594853 1.0624999999999996 0.3582531756650637
    vertex 1.0323523806950605 1.0624999999999996 0.37074072847269374
  endloop
endfacet
facet normal 0.0 1.0 0.0
  outer loop
    vertex 2.0000000000339266 1.0624999999999996 0.5000000003614282
    vertex 1.0323523806950605 1.0624999999999996 0.37074072847269374
    vertex 1.0000000000564873 1.0624999999999996 0.37500000018071483
  endloop
endfacet
facet normal 0.0 1.0 0.0
  outer loop
    vertex 2.0000000000339266 1.0624999999999996 0.5000000003614282
    vertex 1.0000000000564873 1.0624999999999996 0.37500000018071483
    vertex 3.3912345154263606e-11 1.0624999999999996 0.4999999999999992
  endloop
endfacet
facet normal 0.0 1.0 0.0
  outer loop
    vertex 2.0000000000339266 1.0624999999999996 0.5000000003614282
    vertex 3.3912345154263606e-11 1.0624999999999996 0.4999999999999992
    vertex -3.4694468485560376e-18 1.0624999999999996 0.6875000000000001
  endloop
endfacet
facet normal 0.0 1.0 0.0
  outer loop
    vertex 2.0000000000339266 1.0624999999999996 0.5000000003614282
    vertex -3.4694468485560376e-18 1.0624999999999996 0.6875000000000001
    vertex 1.9999999999999858 1.0624999999999996 0.6875000003614282
  endloop
endfacet
facet normal 0.9914448613502308 -6.849856280540563e-18 0.1305261923991574
  outer loop
    vertex 0.8792592717987865 1.0624999999999996 0.2176476195210794
    vertex 0.8750000000791194 0.43749999999999944 0.250000000158126
    vertex 0.8792592717987865 0.43749999999999944 0.2176476195210794
  endloop
endfacet
facet normal 0.9914448613502308 -6.849856280540563e-18 0.1305261923991574
  outer loop
    vertex 0.8750000000791194 0.43749999999999944 0.250000000158126
    vertex 0.8792592717987865 1.0624999999999996 0.2176476195210794
    vertex 0.8750000000791194 1.0624999999999996 0.250000000158126
  endloop
endfacet
facet normal 0.6087614291523419 -1.747809157284366e-15 -0.7933533401810308
  outer loop
    vertex 0.9375000000594854 1.0624999999999996 0.35825317564247444
    vertex 0.9116116524148271 0.43749999999999944 0.3383883478130594
    vertex 0.9116116524148271 1.0624999999999996 0.3383883478130594
  endloop
endfacet
facet normal 0.6087614291523419 -1.747809157284366e-15 -0.7933533401810308
  outer loop
    vertex 0.9116116524148271 0.43749999999999944 0.3383883478130594
    vertex 0.9375000000594854 1.0624999999999996 0.35825317564247444
    vertex 0.9375000000594854 0.43749999999999944 0.35825317564247444
  endloop
endfacet
facet normal 0.9238795325805815 -2.7115337289319054e-15 -0.38268343219779755
  outer loop
    vertex 0.8792592717870792 1.0624999999999996 0.2823523807967094
    vertex 0.8917468245947012 0.43749999999999944 0.31250000016115104
    vertex 0.8792592717870792 0.43749999999999944 0.2823523807967094
  endloop
endfacet
facet normal 0.9238795325805815 -2.7115337289319054e-15 -0.38268343219779755
  outer loop
    vertex 0.8917468245947012 0.43749999999999944 0.31250000016115104
    vertex 0.8792592717870792 1.0624999999999996 0.2823523807967094
    vertex 0.8917468245947012 1.0624999999999996 0.31250000016115104
  endloop
endfacet
facet normal 0.7933533404010341 -1.6934355840725745e-15 -0.608761428865628
  outer loop
    vertex 0.8917468245947012 1.0624999999999996 0.31250000016115104
    vertex 0.9116116524148271 0.43749999999999944 0.3383883478130594
    vertex 0.8917468245947012 0.43749999999999944 0.31250000016115104
  endloop
endfacet
facet normal 0.7933533404010341 -1.6934355840725745e-15 -0.608761428865628
  outer loop
    vertex 0.9116116524148271 0.43749999999999944 0.3383883478130594
    vertex 0.8917468245947012 1.0624999999999996 0.31250000016115104
    vertex 0.9116116524148271 1.0624999999999996 0.3383883478130594
  endloop
endfacet
facet normal 0.13052619239921998 -4.94273476930648e-18 -0.9914448613502226
  outer loop
    vertex 1.0000000000564873 1.0624999999999996 0.37500000018071483
    vertex 0.9676476194194252 0.43749999999999944 0.37074072846100065
    vertex 0.9676476194194252 1.0624999999999996 0.37074072846100065
  endloop
endfacet
facet normal 0.13052619239921998 -4.94273476930648e-18 -0.9914448613502226
  outer loop
    vertex 0.9676476194194252 0.43749999999999944 0.37074072846100065
    vertex 1.0000000000564873 1.0624999999999996 0.37500000018071483
    vertex 1.0000000000564873 0.43749999999999944 0.37500000018071483
  endloop
endfacet
facet normal 0.38268343253186743 -1.345188177667157e-15 -0.9238795324422053
  outer loop
    vertex 0.9676476194194252 1.0624999999999996 0.37074072846100065
    vertex 0.9375000000594854 0.43749999999999944 0.35825317564247444
    vertex 0.9375000000594854 1.0624999999999996 0.35825317564247444
  endloop
endfacet
facet normal 0.38268343253186743 -1.345188177667157e-15 -0.9238795324422053
  outer loop
    vertex 0.9375000000594854 0.43749999999999944 0.35825317564247444
    vertex 0.9676476194194252 1.0624999999999996 0.37074072846100065
    vertex 0.9676476194194252 0.43749999999999944 0.37074072846100065
  endloop
endfacet
facet normal -0.1305261920409086 1.445392441313881e-16 -0.9914448613973952
  outer loop
    vertex 1.0323523806950605 1.0624999999999996 0.37074072847269374
    vertex 1.0000000000564873 0.43749999999999944 0.37500000018071483
    vertex 1.0000000000564873 1.0624999999999996 0.37500000018071483
  endloop
endfacet
facet normal -0.1305261920409086 1.445392441313881e-16 -0.9914448613973952
  outer loop
    vertex 1.0000000000564873 0.43749999999999944 0.37500000018071483
    vertex 1.0323523806950605 1.0624999999999996 0.37074072847269374
    vertex 1.0323523806950605 0.43749999999999944 0.37074072847269374
  endloop
endfacet
facet normal -0.38268343219827533 1.4322387622263755e-15 -0.9238795325803837
  outer loop
    vertex 1.0625000000594853 1.0624999999999996 0.3582531756650637
    vertex 1.0323523806950605 0.43749999999999944 0.37074072847269374
    vertex 1.0323523806950605 1.0624999999999996 0.37074072847269374
  endloop
endfacet
facet normal -0.38268343219827533 1.4322387622263755e-15 -0.9238795325803837
  outer loop
    vertex 1.0323523806950605 0.43749999999999944 0.37074072847269374
    vertex 1.0625000000594853 1.0624999999999996 0.3582531756650637
    vertex 1.0625000000594853 0.43749999999999944 0.3582531756650637
  endloop
endfacet
facet normal -0.6087614288650994 1.8604019318907636e-15 -0.7933533404014397
  outer loop
    vertex 1.0883883477114655 1.0624999999999996 0.33838834784500527
    vertex 1.0625000000594853 0.43749999999999944 0.3582531756650637
    vertex 1.0625000000594853 1.0624999999999996 0.3582531756650637
  endloop
endfacet
facet normal -0.6087614288650994 1.8604019318907636e-15 -0.7933533404014397
  outer loop
    vertex 1.0625000000594853 0.43749999999999944 0.3582531756650637
    vertex 1.0883883477114655 1.0624999999999996 0.33838834784500527
    vertex 1.0883883477114655 0.43749999999999944 0.33838834784500527
  endloop
endfacet
facet normal 0.9914448613974066 -7.296045213372558e-16 -0.13052619204082075
  outer loop
    vertex 0.8750000000791194 1.0624999999999996 0.250000000158126
    vertex 0.8792592717870792 0.43749999999999944 0.2823523807967094
    vertex 0.8750000000791194 0.43749999999999944 0.250000000158126
  endloop
endfacet
facet normal 0.9914448613974066 -7.296045213372558e-16 -0.13052619204082075
  outer loop
    vertex 0.8792592717870792 0.43749999999999944 0.2823523807967094
    vertex 0.8750000000791194 1.0624999999999996 0.250000000158126
    vertex 0.8792592717870792 1.0624999999999996 0.2823523807967094
  endloop
endfacet
facet normal -0.7933533404011075 2.372942433880341e-15 0.6087614288655323
  outer loop
    vertex 1.1082531755634664 1.0624999999999996 0.18750000020027685
    vertex 1.0883883477433831 0.43749999999999944 0.16161165254836915
    vertex 1.1082531755634664 0.43749999999999944 0.18750000020027685
  endloop
endfacet
facet normal -0.7933533404011075 2.372942433880341e-15 0.6087614288655323
  outer loop
    vertex 1.0883883477433831 0.43749999999999944 0.16161165254836915
    vertex 1.1082531755634664 1.0624999999999996 0.18750000020027685
    vertex 1.0883883477433831 1.0624999999999996 0.16161165254836915
  endloop
endfacet
facet normal -0.1305261923992862 3.387564310821801e-16 0.9914448613502138
  outer loop
    vertex 1.0323523807386854 0.43749999999999944 0.12925927190042724
    vertex 1.0000000001016518 1.0624999999999996 0.12500000018071483
    vertex 1.0000000001016518 0.43749999999999944 0.12500000018071483
  endloop
endfacet
facet normal -0.1305261923992862 3.387564310821801e-16 0.9914448613502138
  outer loop
    vertex 1.0000000001016518 1.0624999999999996 0.12500000018071483
    vertex 1.0323523807386854 0.43749999999999944 0.12925927190042724
    vertex 1.0323523807386854 1.0624999999999996 0.12925927190042724
  endloop
endfacet
facet normal 0.9238795324421784 -7.258828149930192e-16 0.38268343253193216
  outer loop
    vertex 0.8917468246173473 1.0624999999999996 0.18750000016115104
    vertex 0.8792592717987865 0.43749999999999944 0.2176476195210794
    vertex 0.8917468246173473 0.43749999999999944 0.18750000016115104
  endloop
endfacet
facet normal 0.9238795324421784 -7.258828149930192e-16 0.38268343253193216
  outer loop
    vertex 0.8792592717987865 0.43749999999999944 0.2176476195210794
    vertex 0.8917468246173473 1.0624999999999996 0.18750000016115104
    vertex 0.8792592717987865 1.0624999999999996 0.2176476195210794
  endloop
endfacet
facet normal -0.9238795325804775 1.3820074351035384e-15 0.38268343219804857
  outer loop
    vertex 1.1207407283710458 1.0624999999999996 0.2176476195647181
    vertex 1.1082531755634664 0.43749999999999944 0.18750000020027685
    vertex 1.1207407283710458 0.43749999999999944 0.2176476195647181
  endloop
endfacet
facet normal -0.9238795325804775 1.3820074351035384e-15 0.38268343219804857
  outer loop
    vertex 1.1082531755634664 0.43749999999999944 0.18750000020027685
    vertex 1.1207407283710458 1.0624999999999996 0.2176476195647181
    vertex 1.1082531755634664 1.0624999999999996 0.18750000020027685
  endloop
endfacet
facet normal -0.9914448613502116 7.479093445252125e-16 -0.1305261923993024
  outer loop
    vertex 1.1207407283593527 1.0624999999999996 0.282352380840348
    vertex 1.1250000000791194 0.43749999999999944 0.2500000002033041
    vertex 1.1207407283593527 0.43749999999999944 0.282352380840348
  endloop
endfacet
facet normal -0.9914448613502116 7.479093445252125e-16 -0.1305261923993024
  outer loop
    vertex 1.1250000000791194 0.43749999999999944 0.2500000002033041
    vertex 1.1207407283593527 1.0624999999999996 0.282352380840348
    vertex 1.1250000000791194 1.0624999999999996 0.2500000002033041
  endloop
endfacet
facet normal 0.7933533401813465 -2.404027446693152e-15 0.6087614291519304
  outer loop
    vertex 0.9116116524467448 1.0624999999999996 0.16161165251642354
    vertex 0.8917468246173473 0.43749999999999944 0.18750000016115104
    vertex 0.9116116524467448 0.43749999999999944 0.16161165251642354
  endloop
endfacet
facet normal 0.7933533401813465 -2.404027446693152e-15 0.6087614291519304
  outer loop
    vertex 0.8917468246173473 0.43749999999999944 0.18750000016115104
    vertex 0.9116116524467448 1.0624999999999996 0.16161165251642354
    vertex 0.8917468246173473 1.0624999999999996 0.18750000016115104
  endloop
endfacet
facet normal -0.6087614291522663 1.329443755319501e-15 0.7933533401810888
  outer loop
    vertex 1.0883883477433831 0.43749999999999944 0.16161165254836915
    vertex 1.0625000000986253 1.0624999999999996 0.14174682471895345
    vertex 1.0625000000986253 0.43749999999999944 0.14174682471895345
  endloop
endfacet
facet normal -0.6087614291522663 1.329443755319501e-15 0.7933533401810888
  outer loop
    vertex 1.0625000000986253 1.0624999999999996 0.14174682471895345
    vertex 1.0883883477433831 0.43749999999999944 0.16161165254836915
    vertex 1.0883883477433831 1.0624999999999996 0.16161165254836915
  endloop
endfacet
facet normal 0.6087614288651637 -1.4420365301509851e-15 0.7933533404013903
  outer loop
    vertex 0.9375000000986254 0.43749999999999944 0.14174682469636418
    vertex 0.9116116524467448 1.0624999999999996 0.16161165251642354
    vertex 0.9116116524467448 0.43749999999999944 0.16161165251642354
  endloop
endfacet
facet normal 0.6087614288651637 -1.4420365301509851e-15 0.7933533404013903
  outer loop
    vertex 0.9116116524467448 1.0624999999999996 0.16161165251642354
    vertex 0.9375000000986254 0.43749999999999944 0.14174682469636418
    vertex 0.9375000000986254 1.0624999999999996 0.14174682469636418
  endloop
endfacet
facet normal -0.38268343253186743 8.591785283136263e-16 0.9238795324422053
  outer loop
    vertex 1.0625000000986253 0.43749999999999944 0.14174682471895345
    vertex 1.0323523807386854 1.0624999999999996 0.12925927190042724
    vertex 1.0323523807386854 0.43749999999999944 0.12925927190042724
  endloop
endfacet
facet normal -0.38268343253186743 8.591785283136263e-16 0.9238795324422053
  outer loop
    vertex 1.0323523807386854 1.0624999999999996 0.12925927190042724
    vertex 1.0625000000986253 0.43749999999999944 0.14174682471895345
    vertex 1.0625000000986253 1.0624999999999996 0.14174682471895345
  endloop
endfacet
facet normal 0.13052619204084331 -1.9477475943470616e-16 0.9914448613974037
  outer loop
    vertex 1.0000000001016518 0.43749999999999944 0.12500000018071483
    vertex 0.9676476194630644 1.0624999999999996 0.12925927188873415
    vertex 0.9676476194630644 0.43749999999999944 0.12925927188873415
  endloop
endfacet
facet normal 0.13052619204084331 -1.9477475943470616e-16 0.9914448613974037
  outer loop
    vertex 0.9676476194630644 1.0624999999999996 0.12925927188873415
    vertex 1.0000000001016518 0.43749999999999944 0.12500000018071483
    vertex 1.0000000001016518 1.0624999999999996 0.12500000018071483
  endloop
endfacet
facet normal -0.9914448613973694 7.413455011441165e-16 0.1305261920411038
  outer loop
    vertex 1.1250000000791194 1.0624999999999996 0.2500000002033041
    vertex 1.1207407283710458 0.43749999999999944 0.2176476195647181
    vertex 1.1250000000791194 0.43749999999999944 0.2500000002033041
  endloop
endfacet
facet normal -0.9914448613973694 7.413455011441165e-16 0.1305261920411038
  outer loop
    vertex 1.1207407283710458 0.43749999999999944 0.2176476195647181
    vertex 1.1250000000791194 1.0624999999999996 0.2500000002033041
    vertex 1.1207407283710458 1.0624999999999996 0.2176476195647181
  endloop
endfacet
facet normal 0.3826834321982239 -6.589398339696114e-16 0.9238795325804049
  outer loop
    vertex 0.9676476194630644 0.43749999999999944 0.12925927188873415
    vertex 0.9375000000986254 1.0624999999999996 0.14174682469636418
    vertex 0.9375000000986254 0.43749999999999944 0.14174682469636418
  endloop
endfacet
facet normal 0.3826834321982239 -6.589398339696114e-16 0.9238795325804049
  outer loop
    vertex 0.9375000000986254 1.0624999999999996 0.14174682469636418
    vertex 0.9676476194630644 0.43749999999999944 0.12925927188873415
    vertex 0.9676476194630644 1.0624999999999996 0.12925927188873415
  endloop
endfacet
facet normal -0.9238795324420258 2.7846610111302724e-15 -0.3826834325323007
  outer loop
    vertex 1.108253175540806 1.0624999999999996 0.31250000020027685
    vertex 1.1207407283593527 0.43749999999999944 0.282352380840348
    vertex 1.108253175540806 0.43749999999999944 0.31250000020027685
  endloop
endfacet
facet normal -0.9238795324420258 2.7846610111302724e-15 -0.3826834325323007
  outer loop
    vertex 1.1207407283593527 0.43749999999999944 0.282352380840348
    vertex 1.108253175540806 1.0624999999999996 0.31250000020027685
    vertex 1.1207407283593527 1.0624999999999996 0.282352380840348
  endloop
endfacet
facet normal -0.7933533401814132 1.836166745777529e-15 -0.6087614291518433
  outer loop
    vertex 1.0883883477114655 1.0624999999999996 0.33838834784500527
    vertex 1.108253175540806 0.43749999999999944 0.31250000020027685
    vertex 1.0883883477114655 0.43749999999999944 0.33838834784500527
  endloop
endfacet
facet normal -0.7933533401814132 1.836166745777529e-15 -0.6087614291518433
  outer loop
    vertex 1.108253175540806 0.43749999999999944 0.31250000020027685
    vertex 1.0883883477114655 1.0624999999999996 0.33838834784500527
    vertex 1.108253175540806 1.0624999999999996 0.31250000020027685
  endloop
endfacet
endsolid gun_rig_3dp5
