solid gun_rig_3dp2
facet normal 0.0 -1.0 0.0
  outer loop
    vertex 1.0 0.8125000000000107 0.8114695885188488
    vertex 0.0 0.8125000000000107 0.0625
    vertex 1.0 0.8125000000000107 0.0625
  endloop
endfacet
facet normal 0.0 -1.0 0.0
  outer loop
    vertex 0.0 0.8125000000000107 0.0625
    vertex 1.0 0.8125000000000107 0.8114695885188488
    vertex 0.0 0.8125000000000107 0.8114695885188488
  endloop
endfacet
facet normal -1.0 0.0 0.0
  outer loop
    vertex 0.0 0.0 0.8739695885188488
    vertex 0.0 0.0625 0.8114695885188488
    vertex 0.0 0.0 0.0
  endloop
endfacet
facet normal -1.0 0.0 0.0
  outer loop
    vertex 0.0 0.0625 0.8114695885188488
    vertex 0.0 0.0 0.8739695885188488
    vertex 0.0 0.8750000000000107 0.8739695885188488
  endloop
endfacet
facet normal -1.0 0.0 0.0
  outer loop
    vertex 0.0 0.0625 0.8114695885188488
    vertex 0.0 0.8750000000000107 0.8739695885188488
    vertex 0.0 0.8125000000000107 0.8114695885188488
  endloop
endfacet
facet normal -1.0 0.0 0.0
  outer loop
    vertex 0.0 0.8125000000000107 0.8114695885188488
    vertex 0.0 0.8750000000000107 0.8739695885188488
    vertex 0.0 0.8125000000000107 0.0625
  endloop
endfacet
facet normal -1.0 0.0 0.0
  outer loop
    vertex 0.0 0.0 0.0
    vertex 0.0 0.0625 0.0625
    vertex 0.0 0.8750000000000107 0.0
  endloop
endfacet
facet normal -1.0 0.0 0.0
  outer loop
    vertex 0.0 0.0625 0.0625
    vertex 0.0 0.0 0.0
    vertex 0.0 0.0625 0.8114695885188488
  endloop
endfacet
facet normal -1.0 0.0 0.0
  outer loop
    vertex 0.0 0.8750000000000107 0.0
    vertex 0.0 0.0625 0.0625
    vertex 0.0 0.8125000000000107 0.0625
  endloop
endfacet
facet normal -1.0 0.0 0.0
  outer loop
    vertex 0.0 0.8750000000000107 0.0
    vertex 0.0 0.8125000000000107 0.0625
    vertex 0.0 0.8750000000000107 0.8739695885188488
  endloop
endfacet
facet normal 0.0 0.0 -1.0
  outer loop
    vertex 0.0 0.8125000000000107 0.8114695885188488
    vertex 0.41161165235168085 0.5258883476483263 0.8114695885188488
    vertex 0.0 0.0625 0.8114695885188488
  endloop
endfacet
facet normal 0.0 0.0 -1.0
  outer loop
    vertex 0.41161165235168085 0.5258883476483263 0.8114695885188488
    vertex 0.0 0.8125000000000107 0.8114695885188488
    vertex 0.4375 0.5457531754730631 0.8114695885188488
  endloop
endfacet
facet normal 0.0 0.0 -1.0
  outer loop
    vertex 0.4375 0.5457531754730631 0.8114695885188488
    vertex 0.0 0.8125000000000107 0.8114695885188488
    vertex 1.0 0.8125000000000107 0.8114695885188488
  endloop
endfacet
facet normal 0.0 0.0 -1.0
  outer loop
    vertex 0.0 0.0625 0.8114695885188488
    vertex 0.41161165235168085 0.5258883476483263 0.8114695885188488
    vertex 0.40653938407595547 0.5192780389335425 0.8114695885188488
  endloop
endfacet
facet normal 0.0 0.0 -1.0
  outer loop
    vertex 0.0 0.0625 0.8114695885188488
    vertex 0.40653938407595547 0.5192780389335425 0.8114695885188488
    vertex 0.39174682452694753 0.5000000000000071 0.8114695885188488
  endloop
endfacet
facet normal 0.0 0.0 -1.0
  outer loop
    vertex 0.0 0.0625 0.8114695885188488
    vertex 0.39174682452694753 0.5000000000000071 0.8114695885188488
    vertex 0.3792592717138632 0.4698523806378212 0.8114695885188488
  endloop
endfacet
facet normal 0.0 0.0 -1.0
  outer loop
    vertex 0.0 0.0625 0.8114695885188488
    vertex 0.3792592717138632 0.4698523806378212 0.8114695885188488
    vertex 0.375 0.43750000000000533 0.8114695885188488
  endloop
endfacet
facet normal 0.0 0.0 -1.0
  outer loop
    vertex 0.4375 0.5457531754730631 0.8114695885188488
    vertex 1.0 0.8125000000000107 0.8114695885188488
    vertex 0.46764761936218235 0.5582407282861421 0.8114695885188488
  endloop
endfacet
facet normal 0.0 0.0 -1.0
  outer loop
    vertex 0.46764761936218235 0.5582407282861421 0.8114695885188488
    vertex 1.0 0.8125000000000107 0.8114695885188488
    vertex 0.5 0.5625000000000089 0.8114695885188488
  endloop
endfacet
facet normal 0.0 0.0 -1.0
  outer loop
    vertex 0.5 0.5625000000000089 0.8114695885188488
    vertex 1.0 0.8125000000000107 0.8114695885188488
    vertex 0.5323523806378176 0.5582407282861421 0.8114695885188488
  endloop
endfacet
facet normal 0.0 0.0 -1.0
  outer loop
    vertex 0.5323523806378176 0.5582407282861421 0.8114695885188488
    vertex 1.0 0.8125000000000107 0.8114695885188488
    vertex 0.5625 0.5457531754730631 0.8114695885188488
  endloop
endfacet
facet normal 0.0 0.0 -1.0
  outer loop
    vertex 0.5625 0.5457531754730631 0.8114695885188488
    vertex 1.0 0.8125000000000107 0.8114695885188488
    vertex 0.5883883476483192 0.5258883476483263 0.8114695885188488
  endloop
endfacet
facet normal 0.0 0.0 -1.0
  outer loop
    vertex 0.5883883476483192 0.5258883476483263 0.8114695885188488
    vertex 1.0 0.8125000000000107 0.8114695885188488
    vertex 0.5934606159240445 0.5192780389335425 0.8114695885188488
  endloop
endfacet
facet normal 0.0 0.0 -1.0
  outer loop
    vertex 0.5934606159240445 0.5192780389335425 0.8114695885188488
    vertex 1.0 0.8125000000000107 0.8114695885188488
    vertex 0.6082531754730525 0.5000000000000071 0.8114695885188488
  endloop
endfacet
facet normal 0.0 0.0 -1.0
  outer loop
    vertex 0.6082531754730525 0.5000000000000071 0.8114695885188488
    vertex 1.0 0.8125000000000107 0.8114695885188488
    vertex 0.6207407282861368 0.4698523806378212 0.8114695885188488
  endloop
endfacet
facet normal 0.0 0.0 -1.0
  outer loop
    vertex 0.6207407282861368 0.4698523806378212 0.8114695885188488
    vertex 1.0 0.8125000000000107 0.8114695885188488
    vertex 0.625 0.43750000000000533 0.8114695885188488
  endloop
endfacet
facet normal 0.0 0.0 -1.0
  outer loop
    vertex 0.0 0.0625 0.8114695885188488
    vertex 0.4375 0.32924682452694753 0.8114695885188488
    vertex 1.0 0.0625 0.8114695885188488
  endloop
endfacet
facet normal 0.0 0.0 -1.0
  outer loop
    vertex 0.4375 0.32924682452694753 0.8114695885188488
    vertex 0.0 0.0625 0.8114695885188488
    vertex 0.41161165235168085 0.3491116523516844 0.8114695885188488
  endloop
endfacet
facet normal 0.0 0.0 -1.0
  outer loop
    vertex 0.41161165235168085 0.3491116523516844 0.8114695885188488
    vertex 0.0 0.0625 0.8114695885188488
    vertex 0.40653938407595547 0.35572196106646814 0.8114695885188488
  endloop
endfacet
facet normal 0.0 0.0 -1.0
  outer loop
    vertex 0.40653938407595547 0.35572196106646814 0.8114695885188488
    vertex 0.0 0.0625 0.8114695885188488
    vertex 0.39174682452694753 0.37500000000000355 0.8114695885188488
  endloop
endfacet
facet normal 0.0 0.0 -1.0
  outer loop
    vertex 0.39174682452694753 0.37500000000000355 0.8114695885188488
    vertex 0.0 0.0625 0.8114695885188488
    vertex 0.3792592717138632 0.40514761936218946 0.8114695885188488
  endloop
endfacet
facet normal 0.0 0.0 -1.0
  outer loop
    vertex 0.3792592717138632 0.40514761936218946 0.8114695885188488
    vertex 0.0 0.0625 0.8114695885188488
    vertex 0.375 0.43750000000000533 0.8114695885188488
  endloop
endfacet
facet normal 0.0 0.0 -1.0
  outer loop
    vertex 1.0 0.0625 0.8114695885188488
    vertex 0.4375 0.32924682452694753 0.8114695885188488
    vertex 0.46764761936218235 0.31675927171386853 0.8114695885188488
  endloop
endfacet
facet normal 0.0 0.0 -1.0
  outer loop
    vertex 1.0 0.0625 0.8114695885188488
    vertex 0.46764761936218235 0.31675927171386853 0.8114695885188488
    vertex 0.5 0.3125000000000018 0.8114695885188488
  endloop
endfacet
facet normal 0.0 0.0 -1.0
  outer loop
    vertex 1.0 0.0625 0.8114695885188488
    vertex 0.5 0.3125000000000018 0.8114695885188488
    vertex 0.5323523806378176 0.31675927171386853 0.8114695885188488
  endloop
endfacet
facet normal 0.0 0.0 -1.0
  outer loop
    vertex 1.0 0.0625 0.8114695885188488
    vertex 0.5323523806378176 0.31675927171386853 0.8114695885188488
    vertex 0.5625 0.32924682452694753 0.8114695885188488
  endloop
endfacet
facet normal 0.0 0.0 -1.0
  outer loop
    vertex 1.0 0.0625 0.8114695885188488
    vertex 0.5625 0.32924682452694753 0.8114695885188488
    vertex 0.5883883476483192 0.3491116523516844 0.8114695885188488
  endloop
endfacet
facet normal 0.0 0.0 -1.0
  outer loop
    vertex 1.0 0.0625 0.8114695885188488
    vertex 0.5883883476483192 0.3491116523516844 0.8114695885188488
    vertex 0.5934606159240445 0.35572196106646814 0.8114695885188488
  endloop
endfacet
facet normal 0.0 0.0 -1.0
  outer loop
    vertex 1.0 0.0625 0.8114695885188488
    vertex 0.5934606159240445 0.35572196106646814 0.8114695885188488
    vertex 0.6082531754730525 0.37500000000000355 0.8114695885188488
  endloop
endfacet
facet normal 0.0 0.0 -1.0
  outer loop
    vertex 1.0 0.0625 0.8114695885188488
    vertex 0.6082531754730525 0.37500000000000355 0.8114695885188488
    vertex 0.6207407282861368 0.40514761936218946 0.8114695885188488
  endloop
endfacet
facet normal 0.0 0.0 -1.0
  outer loop
    vertex 1.0 0.0625 0.8114695885188488
    vertex 0.6207407282861368 0.40514761936218946 0.8114695885188488
    vertex 0.625 0.43750000000000533 0.8114695885188488
  endloop
endfacet
facet normal 0.0 0.0 -1.0
  outer loop
    vertex 1.0 0.0625 0.8114695885188488
    vertex 0.625 0.43750000000000533 0.8114695885188488
    vertex 1.0 0.8125000000000107 0.8114695885188488
  endloop
endfacet
facet normal 0.0 1.0 0.0
  outer loop
    vertex 0.0 0.8750000000000107 0.8739695885188488
    vertex 1.0 0.8750000000000107 0.0
    vertex 0.0 0.8750000000000107 0.0
  endloop
endfacet
facet normal 0.0 1.0 0.0
  outer loop
    vertex 1.0 0.8750000000000107 0.0
    vertex 0.0 0.8750000000000107 0.8739695885188488
    vertex 1.0 0.8750000000000107 0.8739695885188488
  endloop
endfacet
facet normal 0.0 0.0 -1.0
  outer loop
    vertex 0.0 0.8750000000000107 0.0
    vertex 0.41161165235168085 0.5258883476483245 2.220446049250313e-16
    vertex 0.0 0.0 0.0
  endloop
endfacet
facet normal 0.0 0.0 -1.0
  outer loop
    vertex 0.41161165235168085 0.5258883476483245 2.220446049250313e-16
    vertex 0.0 0.8750000000000107 0.0
    vertex 0.4375 0.5457531754730596 2.220446049250313e-16
  endloop
endfacet
facet normal 0.0 0.0 -1.0
  outer loop
    vertex 0.4375 0.5457531754730596 2.220446049250313e-16
    vertex 0.0 0.8750000000000107 0.0
    vertex 1.0 0.8750000000000107 0.0
  endloop
endfacet
facet normal 0.0 0.0 -1.0
  outer loop
    vertex 0.0 0.0 0.0
    vertex 0.41161165235168085 0.5258883476483245 2.220446049250313e-16
    vertex 0.40653938407595547 0.5192780389335425 2.220446049250313e-16
  endloop
endfacet
facet normal 0.0 0.0 -1.0
  outer loop
    vertex 0.0 0.0 0.0
    vertex 0.40653938407595547 0.5192780389335425 2.220446049250313e-16
    vertex 0.39174682452694753 0.5000000000000053 2.220446049250313e-16
  endloop
endfacet
facet normal 0.0 0.0 -1.0
  outer loop
    vertex 0.0 0.0 0.0
    vertex 0.39174682452694753 0.5000000000000053 2.220446049250313e-16
    vertex 0.3792592717138632 0.4698523806378212 2.220446049250313e-16
  endloop
endfacet
facet normal 0.0 0.0 -1.0
  outer loop
    vertex 0.0 0.0 0.0
    vertex 0.3792592717138632 0.4698523806378212 2.220446049250313e-16
    vertex 0.375 0.43750000000000533 2.220446049250313e-16
  endloop
endfacet
facet normal 0.0 0.0 -1.0
  outer loop
    vertex 0.4375 0.5457531754730596 2.220446049250313e-16
    vertex 1.0 0.8750000000000107 0.0
    vertex 0.46764761936218235 0.5582407282861386 2.220446049250313e-16
  endloop
endfacet
facet normal 0.0 0.0 -1.0
  outer loop
    vertex 0.46764761936218235 0.5582407282861386 2.220446049250313e-16
    vertex 1.0 0.8750000000000107 0.0
    vertex 0.5 0.5625000000000053 2.220446049250313e-16
  endloop
endfacet
facet normal 0.0 0.0 -1.0
  outer loop
    vertex 0.5 0.5625000000000053 2.220446049250313e-16
    vertex 1.0 0.8750000000000107 0.0
    vertex 0.5323523806378176 0.5582407282861386 2.220446049250313e-16
  endloop
endfacet
facet normal 0.0 0.0 -1.0
  outer loop
    vertex 0.5323523806378176 0.5582407282861386 2.220446049250313e-16
    vertex 1.0 0.8750000000000107 0.0
    vertex 0.5625 0.5457531754730596 2.220446049250313e-16
  endloop
endfacet
facet normal 0.0 0.0 -1.0
  outer loop
    vertex 0.5625 0.5457531754730596 2.220446049250313e-16
    vertex 1.0 0.8750000000000107 0.0
    vertex 0.5883883476483192 0.5258883476483245 2.220446049250313e-16
  endloop
endfacet
facet normal 0.0 0.0 -1.0
  outer loop
    vertex 0.5883883476483192 0.5258883476483245 2.220446049250313e-16
    vertex 1.0 0.8750000000000107 0.0
    vertex 0.5934606159240445 0.5192780389335425 2.220446049250313e-16
  endloop
endfacet
facet normal 0.0 0.0 -1.0
  outer loop
    vertex 0.5934606159240445 0.5192780389335425 2.220446049250313e-16
    vertex 1.0 0.8750000000000107 0.0
    vertex 0.6082531754730525 0.5000000000000053 2.220446049250313e-16
  endloop
endfacet
facet normal 0.0 0.0 -1.0
  outer loop
    vertex 0.6082531754730525 0.5000000000000053 2.220446049250313e-16
    vertex 1.0 0.8750000000000107 0.0
    vertex 0.6207407282861368 0.4698523806378212 2.220446049250313e-16
  endloop
endfacet
facet normal 0.0 0.0 -1.0
  outer loop
    vertex 0.6207407282861368 0.4698523806378212 2.220446049250313e-16
    vertex 1.0 0.8750000000000107 0.0
    vertex 0.625 0.43750000000000533 2.220446049250313e-16
  endloop
endfacet
facet normal 0.0 0.0 -1.0
  outer loop
    vertex 0.0 0.0 0.0
    vertex 0.4375 0.3292468245269511 2.220446049250313e-16
    vertex 1.0 0.0 0.0
  endloop
endfacet
facet normal 0.0 0.0 -1.0
  outer loop
    vertex 0.4375 0.3292468245269511 2.220446049250313e-16
    vertex 0.0 0.0 0.0
    vertex 0.41161165235168085 0.3491116523516862 2.220446049250313e-16
  endloop
endfacet
facet normal 0.0 0.0 -1.0
  outer loop
    vertex 0.41161165235168085 0.3491116523516862 2.220446049250313e-16
    vertex 0.0 0.0 0.0
    vertex 0.40653938407595547 0.35572196106646814 2.220446049250313e-16
  endloop
endfacet
facet normal 0.0 0.0 -1.0
  outer loop
    vertex 0.40653938407595547 0.35572196106646814 2.220446049250313e-16
    vertex 0.0 0.0 0.0
    vertex 0.39174682452694753 0.37500000000000533 2.220446049250313e-16
  endloop
endfacet
facet normal 0.0 0.0 -1.0
  outer loop
    vertex 0.39174682452694753 0.37500000000000533 2.220446049250313e-16
    vertex 0.0 0.0 0.0
    vertex 0.3792592717138632 0.40514761936218946 2.220446049250313e-16
  endloop
endfacet
facet normal 0.0 0.0 -1.0
  outer loop
    vertex 0.3792592717138632 0.40514761936218946 2.220446049250313e-16
    vertex 0.0 0.0 0.0
    vertex 0.375 0.43750000000000533 2.220446049250313e-16
  endloop
endfacet
facet normal 0.0 0.0 -1.0
  outer loop
    vertex 1.0 0.0 0.0
    vertex 0.4375 0.3292468245269511 2.220446049250313e-16
    vertex 0.46764761936218235 0.3167592717138721 2.220446049250313e-16
  endloop
endfacet
facet normal 0.0 0.0 -1.0
  outer loop
    vertex 1.0 0.0 0.0
    vertex 0.46764761936218235 0.3167592717138721 2.220446049250313e-16
    vertex 0.5 0.31250000000000533 2.220446049250313e-16
  endloop
endfacet
facet normal 0.0 0.0 -1.0
  outer loop
    vertex 1.0 0.0 0.0
    vertex 0.5 0.31250000000000533 2.220446049250313e-16
    vertex 0.5323523806378176 0.3167592717138721 2.220446049250313e-16
  endloop
endfacet
facet normal 0.0 0.0 -1.0
  outer loop
    vertex 1.0 0.0 0.0
    vertex 0.5323523806378176 0.3167592717138721 2.220446049250313e-16
    vertex 0.5625 0.3292468245269511 2.220446049250313e-16
  endloop
endfacet
facet normal 0.0 0.0 -1.0
  outer loop
    vertex 1.0 0.0 0.0
    vertex 0.5625 0.3292468245269511 2.220446049250313e-16
    vertex 0.5883883476483192 0.3491116523516862 2.220446049250313e-16
  endloop
endfacet
facet normal 0.0 0.0 -1.0
  outer loop
    vertex 1.0 0.0 0.0
    vertex 0.5883883476483192 0.3491116523516862 2.220446049250313e-16
    vertex 0.5934606159240445 0.35572196106646814 2.220446049250313e-16
  endloop
endfacet
facet normal 0.0 0.0 -1.0
  outer loop
    vertex 1.0 0.0 0.0
    vertex 0.5934606159240445 0.35572196106646814 2.220446049250313e-16
    vertex 0.6082531754730525 0.37500000000000533 2.220446049250313e-16
  endloop
endfacet
facet normal 0.0 0.0 -1.0
  outer loop
    vertex 1.0 0.0 0.0
    vertex 0.6082531754730525 0.37500000000000533 2.220446049250313e-16
    vertex 0.6207407282861368 0.40514761936218946 2.220446049250313e-16
  endloop
endfacet
facet normal 0.0 0.0 -1.0
  outer loop
    vertex 1.0 0.0 0.0
    vertex 0.6207407282861368 0.40514761936218946 2.220446049250313e-16
    vertex 0.625 0.43750000000000533 2.220446049250313e-16
  endloop
endfacet
facet normal 0.0 0.0 -1.0
  outer loop
    vertex 1.0 0.0 0.0
    vertex 0.625 0.43750000000000533 2.220446049250313e-16
    vertex 1.0 0.8750000000000107 0.0
  endloop
endfacet
facet normal 0.0 -1.0 0.0
  outer loop
    vertex 1.0 0.0 0.8739695885188488
    vertex 0.0 0.0 0.0
    vertex 1.0 0.0 0.0
  endloop
endfacet
facet normal 0.0 -1.0 0.0
  outer loop
    vertex 0.0 0.0 0.0
    vertex 1.0 0.0 0.8739695885188488
    vertex 0.0 0.0 0.8739695885188488
  endloop
endfacet
facet normal 0.0 0.0 1.0
  outer loop
    vertex 0.0 0.0 0.8739695885188488
    vertex 0.41161165235168085 0.3491116523516862 0.8739695885188488
    vertex 0.0 0.8750000000000107 0.8739695885188488
  endloop
endfacet
facet normal 0.0 0.0 1.0
  outer loop
    vertex 0.41161165235168085 0.3491116523516862 0.8739695885188488
    vertex 0.0 0.0 0.8739695885188488
    vertex 0.4375 0.3292468245269511 0.8739695885188488
  endloop
endfacet
facet normal 0.0 0.0 1.0
  outer loop
    vertex 0.4375 0.3292468245269511 0.8739695885188488
    vertex 0.0 0.0 0.8739695885188488
    vertex 1.0 0.0 0.8739695885188488
  endloop
endfacet
facet normal 0.0 0.0 1.0
  outer loop
    vertex 0.0 0.8750000000000107 0.8739695885188488
    vertex 0.41161165235168085 0.3491116523516862 0.8739695885188488
    vertex 0.40653938407595547 0.35572196106646814 0.8739695885188488
  endloop
endfacet
facet normal 0.0 0.0 1.0
  outer loop
    vertex 0.0 0.8750000000000107 0.8739695885188488
    vertex 0.40653938407595547 0.35572196106646814 0.8739695885188488
    vertex 0.39174682452694753 0.37500000000000533 0.8739695885188488
  endloop
endfacet
facet normal 0.0 0.0 1.0
  outer loop
    vertex 0.0 0.8750000000000107 0.8739695885188488
    vertex 0.39174682452694753 0.37500000000000533 0.8739695885188488
    vertex 0.3792592717138632 0.40514761936218946 0.8739695885188488
  endloop
endfacet
facet normal 0.0 0.0 1.0
  outer loop
    vertex 0.0 0.8750000000000107 0.8739695885188488
    vertex 0.3792592717138632 0.40514761936218946 0.8739695885188488
    vertex 0.375 0.43750000000000533 0.8739695885188488
  endloop
endfacet
facet normal 0.0 0.0 1.0
  outer loop
    vertex 0.4375 0.3292468245269511 0.8739695885188488
    vertex 1.0 0.0 0.8739695885188488
    vertex 0.46764761936218235 0.3167592717138721 0.8739695885188488
  endloop
endfacet
facet normal 0.0 0.0 1.0
  outer loop
    vertex 0.46764761936218235 0.3167592717138721 0.8739695885188488
    vertex 1.0 0.0 0.8739695885188488
    vertex 0.5 0.31250000000000533 0.8739695885188488
  endloop
endfacet
facet normal 0.0 0.0 1.0
  outer loop
    vertex 0.5 0.31250000000000533 0.8739695885188488
    vertex 1.0 0.0 0.8739695885188488
    vertex 0.5323523806378176 0.3167592717138721 0.8739695885188488
  endloop
endfacet
facet normal 0.0 0.0 1.0
  outer loop
    vertex 0.5323523806378176 0.3167592717138721 0.8739695885188488
    vertex 1.0 0.0 0.8739695885188488
    vertex 0.5625 0.3292468245269511 0.8739695885188488
  endloop
endfacet
facet normal 0.0 0.0 1.0
  outer loop
    vertex 0.5625 0.3292468245269511 0.8739695885188488
    vertex 1.0 0.0 0.8739695885188488
    vertex 0.5883883476483192 0.3491116523516862 0.8739695885188488
  endloop
endfacet
facet normal 0.0 0.0 1.0
  outer loop
    vertex 0.5883883476483192 0.3491116523516862 0.8739695885188488
    vertex 1.0 0.0 0.8739695885188488
    vertex 0.5934606159240445 0.35572196106646814 0.8739695885188488
  endloop
endfacet
facet normal 0.0 0.0 1.0
  outer loop
    vertex 0.5934606159240445 0.35572196106646814 0.8739695885188488
    vertex 1.0 0.0 0.8739695885188488
    vertex 0.6082531754730525 0.37500000000000533 0.8739695885188488
  endloop
endfacet
facet normal 0.0 0.0 1.0
  outer loop
    vertex 0.6082531754730525 0.37500000000000533 0.8739695885188488
    vertex 1.0 0.0 0.8739695885188488
    vertex 0.6207407282861368 0.40514761936218946 0.8739695885188488
  endloop
endfacet
facet normal 0.0 0.0 1.0
  outer loop
    vertex 0.6207407282861368 0.40514761936218946 0.8739695885188488
    vertex 1.0 0.0 0.8739695885188488
    vertex 0.625 0.43750000000000533 0.8739695885188488
  endloop
endfacet
facet normal 0.0 0.0 1.0
  outer loop
    vertex 0.0 0.8750000000000107 0.8739695885188488
    vertex 0.4375 0.5457531754730596 0.8739695885188488
    vertex 1.0 0.8750000000000107 0.8739695885188488
  endloop
endfacet
facet normal 0.0 0.0 1.0
  outer loop
    vertex 0.4375 0.5457531754730596 0.8739695885188488
    vertex 0.0 0.8750000000000107 0.8739695885188488
    vertex 0.41161165235168085 0.5258883476483245 0.8739695885188488
  endloop
endfacet
facet normal 0.0 0.0 1.0
  outer loop
    vertex 0.41161165235168085 0.5258883476483245 0.8739695885188488
    vertex 0.0 0.8750000000000107 0.8739695885188488
    vertex 0.40653938407595547 0.5192780389335425 0.8739695885188488
  endloop
endfacet
facet normal 0.0 0.0 1.0
  outer loop
    vertex 0.40653938407595547 0.5192780389335425 0.8739695885188488
    vertex 0.0 0.8750000000000107 0.8739695885188488
    vertex 0.39174682452694753 0.5000000000000053 0.8739695885188488
  endloop
endfacet
facet normal 0.0 0.0 1.0
  outer loop
    vertex 0.39174682452694753 0.5000000000000053 0.8739695885188488
    vertex 0.0 0.8750000000000107 0.8739695885188488
    vertex 0.3792592717138632 0.4698523806378212 0.8739695885188488
  endloop
endfacet
facet normal 0.0 0.0 1.0
  outer loop
    vertex 0.3792592717138632 0.4698523806378212 0.8739695885188488
    vertex 0.0 0.8750000000000107 0.8739695885188488
    vertex 0.375 0.43750000000000533 0.8739695885188488
  endloop
endfacet
facet normal 0.0 0.0 1.0
  outer loop
    vertex 1.0 0.8750000000000107 0.8739695885188488
    vertex 0.4375 0.5457531754730596 0.8739695885188488
    vertex 0.46764761936218235 0.5582407282861386 0.8739695885188488
  endloop
endfacet
facet normal 0.0 0.0 1.0
  outer loop
    vertex 1.0 0.8750000000000107 0.8739695885188488
    vertex 0.46764761936218235 0.5582407282861386 0.8739695885188488
    vertex 0.5 0.5625000000000053 0.8739695885188488
  endloop
endfacet
facet normal 0.0 0.0 1.0
  outer loop
    vertex 1.0 0.8750000000000107 0.8739695885188488
    vertex 0.5 0.5625000000000053 0.8739695885188488
    vertex 0.5323523806378176 0.5582407282861386 0.8739695885188488
  endloop
endfacet
facet normal 0.0 0.0 1.0
  outer loop
    vertex 1.0 0.8750000000000107 0.8739695885188488
    vertex 0.5323523806378176 0.5582407282861386 0.8739695885188488
    vertex 0.5625 0.5457531754730596 0.8739695885188488
  endloop
endfacet
facet normal 0.0 0.0 1.0
  outer loop
    vertex 1.0 0.8750000000000107 0.8739695885188488
    vertex 0.5625 0.5457531754730596 0.8739695885188488
    vertex 0.5883883476483192 0.5258883476483245 0.8739695885188488
  endloop
endfacet
facet normal 0.0 0.0 1.0
  outer loop
    vertex 1.0 0.8750000000000107 0.8739695885188488
    vertex 0.5883883476483192 0.5258883476483245 0.8739695885188488
    vertex 0.5934606159240445 0.5192780389335425 0.8739695885188488
  endloop
endfacet
facet normal 0.0 0.0 1.0
  outer loop
    vertex 1.0 0.8750000000000107 0.8739695885188488
    vertex 0.5934606159240445 0.5192780389335425 0.8739695885188488
    vertex 0.6082531754730525 0.5000000000000053 0.8739695885188488
  endloop
endfacet
facet normal 0.0 0.0 1.0
  outer loop
    vertex 1.0 0.8750000000000107 0.8739695885188488
    vertex 0.6082531754730525 0.5000000000000053 0.8739695885188488
    vertex 0.6207407282861368 0.4698523806378212 0.8739695885188488
  endloop
endfacet
facet normal 0.0 0.0 1.0
  outer loop
    vertex 1.0 0.8750000000000107 0.8739695885188488
    vertex 0.6207407282861368 0.4698523806378212 0.8739695885188488
    vertex 0.625 0.43750000000000533 0.8739695885188488
  endloop
endfacet
facet normal 0.0 0.0 1.0
  outer loop
    vertex 1.0 0.8750000000000107 0.8739695885188488
    vertex 0.625 0.43750000000000533 0.8739695885188488
    vertex 1.0 0.0 0.8739695885188488
  endloop
endfacet
facet normal 0.9238795325112262 -0.38268343236523583 -5.438258659257199e-15
  outer loop
    vertex 0.39174682452694753 0.5000000000000071 0.8114695885188488
    vertex 0.3792592717138632 0.4698523806378212 0.8739695885188488
    vertex 0.3792592717138632 0.4698523806378212 0.8114695885188488
  endloop
endfacet
facet normal 0.9238795325112262 -0.38268343236523583 -5.438258659257199e-15
  outer loop
    vertex 0.3792592717138632 0.4698523806378212 0.8739695885188488
    vertex 0.39174682452694753 0.5000000000000071 0.8114695885188488
    vertex 0.39174682452694753 0.5000000000000053 0.8739695885188488
  endloop
endfacet
facet normal 0.13052619222005016 0.9914448613738107 -5.635711553246726e-14
  outer loop
    vertex 0.46764761936218235 0.3167592717138721 0.8739695885188488
    vertex 0.5 0.3125000000000018 0.8114695885188488
    vertex 0.46764761936218235 0.31675927171386853 0.8114695885188488
  endloop
endfacet
facet normal 0.13052619222005016 0.9914448613738107 -5.635711553246726e-14
  outer loop
    vertex 0.5 0.3125000000000018 0.8114695885188488
    vertex 0.46764761936218235 0.3167592717138721 0.8739695885188488
    vertex 0.5 0.31250000000000533 0.8739695885188488
  endloop
endfacet
facet normal -0.7933533402912364 0.608761429008719 -8.651020223861664e-15
  outer loop
    vertex 0.5883883476483192 0.3491116523516862 0.8739695885188488
    vertex 0.5934606159240445 0.35572196106646814 0.8114695885188488
    vertex 0.5883883476483192 0.3491116523516844 0.8114695885188488
  endloop
endfacet
facet normal -0.7933533402912364 0.608761429008719 -8.651020223861664e-15
  outer loop
    vertex 0.5934606159240445 0.35572196106646814 0.8114695885188488
    vertex 0.5883883476483192 0.3491116523516862 0.8739695885188488
    vertex 0.5934606159240445 0.35572196106646814 0.8739695885188488
  endloop
endfacet
facet normal -0.9238795325112262 0.3826834323652359 -5.4382586592571995e-15
  outer loop
    vertex 0.6082531754730525 0.37500000000000533 0.8739695885188488
    vertex 0.6207407282861368 0.40514761936218946 0.8114695885188488
    vertex 0.6082531754730525 0.37500000000000355 0.8114695885188488
  endloop
endfacet
facet normal -0.9238795325112262 0.3826834323652359 -5.4382586592571995e-15
  outer loop
    vertex 0.6207407282861368 0.40514761936218946 0.8114695885188488
    vertex 0.6082531754730525 0.37500000000000533 0.8739695885188488
    vertex 0.6207407282861368 0.40514761936218946 0.8739695885188488
  endloop
endfacet
facet normal -0.9914448613738238 -0.13052619221995024 0.0
  outer loop
    vertex 0.6207407282861368 0.4698523806378212 0.8739695885188488
    vertex 0.625 0.43750000000000533 0.8114695885188488
    vertex 0.625 0.43750000000000533 0.8739695885188488
  endloop
endfacet
facet normal -0.9914448613738238 -0.13052619221995024 0.0
  outer loop
    vertex 0.625 0.43750000000000533 0.8114695885188488
    vertex 0.6207407282861368 0.4698523806378212 0.8739695885188488
    vertex 0.6207407282861368 0.4698523806378212 0.8114695885188488
  endloop
endfacet
facet normal -0.3826834323651253 -0.9238795325112721 -5.2516471243465735e-14
  outer loop
    vertex 0.5625 0.5457531754730596 0.8739695885188488
    vertex 0.5323523806378176 0.5582407282861421 0.8114695885188488
    vertex 0.5625 0.5457531754730631 0.8114695885188488
  endloop
endfacet
facet normal -0.3826834323651253 -0.9238795325112721 -5.2516471243465735e-14
  outer loop
    vertex 0.5323523806378176 0.5582407282861421 0.8114695885188488
    vertex 0.5625 0.5457531754730596 0.8739695885188488
    vertex 0.5323523806378176 0.5582407282861386 0.8739695885188488
  endloop
endfacet
facet normal -0.13052619222005016 -0.9914448613738107 -5.635711553246726e-14
  outer loop
    vertex 0.5323523806378176 0.5582407282861386 0.8739695885188488
    vertex 0.5 0.5625000000000089 0.8114695885188488
    vertex 0.5323523806378176 0.5582407282861421 0.8114695885188488
  endloop
endfacet
facet normal -0.13052619222005016 -0.9914448613738107 -5.635711553246726e-14
  outer loop
    vertex 0.5 0.5625000000000089 0.8114695885188488
    vertex 0.5323523806378176 0.5582407282861386 0.8739695885188488
    vertex 0.5 0.5625000000000053 0.8739695885188488
  endloop
endfacet
facet normal 0.3826834323651253 0.9238795325112721 -5.2516471243465735e-14
  outer loop
    vertex 0.4375 0.3292468245269511 0.8739695885188488
    vertex 0.46764761936218235 0.31675927171386853 0.8114695885188488
    vertex 0.4375 0.32924682452694753 0.8114695885188488
  endloop
endfacet
facet normal 0.3826834323651253 0.9238795325112721 -5.2516471243465735e-14
  outer loop
    vertex 0.46764761936218235 0.31675927171386853 0.8114695885188488
    vertex 0.4375 0.3292468245269511 0.8739695885188488
    vertex 0.46764761936218235 0.3167592717138721 0.8739695885188488
  endloop
endfacet
facet normal 0.9914448613738238 0.1305261922199502 0.0
  outer loop
    vertex 0.375 0.43750000000000533 0.8114695885188488
    vertex 0.3792592717138632 0.40514761936218946 0.8739695885188488
    vertex 0.3792592717138632 0.40514761936218946 0.8114695885188488
  endloop
endfacet
facet normal 0.9914448613738238 0.1305261922199502 0.0
  outer loop
    vertex 0.3792592717138632 0.40514761936218946 0.8739695885188488
    vertex 0.375 0.43750000000000533 0.8114695885188488
    vertex 0.375 0.43750000000000533 0.8739695885188488
  endloop
endfacet
facet normal -0.9238795325112262 -0.38268343236523583 -5.438258659257199e-15
  outer loop
    vertex 0.6082531754730525 0.5000000000000053 0.8739695885188488
    vertex 0.6207407282861368 0.4698523806378212 0.8114695885188488
    vertex 0.6207407282861368 0.4698523806378212 0.8739695885188488
  endloop
endfacet
facet normal -0.9238795325112262 -0.38268343236523583 -5.438258659257199e-15
  outer loop
    vertex 0.6207407282861368 0.4698523806378212 0.8114695885188488
    vertex 0.6082531754730525 0.5000000000000053 0.8739695885188488
    vertex 0.6082531754730525 0.5000000000000071 0.8114695885188488
  endloop
endfacet
facet normal -0.6087614290087021 -0.7933533402912495 -3.3822687170097486e-14
  outer loop
    vertex 0.5883883476483192 0.5258883476483245 0.8739695885188488
    vertex 0.5625 0.5457531754730631 0.8114695885188488
    vertex 0.5883883476483192 0.5258883476483263 0.8114695885188488
  endloop
endfacet
facet normal -0.6087614290087021 -0.7933533402912495 -3.3822687170097486e-14
  outer loop
    vertex 0.5625 0.5457531754730631 0.8114695885188488
    vertex 0.5883883476483192 0.5258883476483245 0.8739695885188488
    vertex 0.5625 0.5457531754730596 0.8739695885188488
  endloop
endfacet
facet normal 0.3826834323651253 -0.9238795325112721 -5.2516471243465735e-14
  outer loop
    vertex 0.46764761936218235 0.5582407282861386 0.8739695885188488
    vertex 0.4375 0.5457531754730631 0.8114695885188488
    vertex 0.46764761936218235 0.5582407282861421 0.8114695885188488
  endloop
endfacet
facet normal 0.3826834323651253 -0.9238795325112721 -5.2516471243465735e-14
  outer loop
    vertex 0.4375 0.5457531754730631 0.8114695885188488
    vertex 0.46764761936218235 0.5582407282861386 0.8739695885188488
    vertex 0.4375 0.5457531754730596 0.8739695885188488
  endloop
endfacet
facet normal 0.7933533402912364 -0.608761429008719 -8.651020223861664e-15
  outer loop
    vertex 0.41161165235168085 0.5258883476483263 0.8114695885188488
    vertex 0.40653938407595547 0.5192780389335425 0.8739695885188488
    vertex 0.40653938407595547 0.5192780389335425 0.8114695885188488
  endloop
endfacet
facet normal 0.7933533402912364 -0.608761429008719 -8.651020223861664e-15
  outer loop
    vertex 0.40653938407595547 0.5192780389335425 0.8739695885188488
    vertex 0.41161165235168085 0.5258883476483263 0.8114695885188488
    vertex 0.41161165235168085 0.5258883476483245 0.8739695885188488
  endloop
endfacet
facet normal 0.793353340291307 0.6087614290086273 -8.651020223860361e-15
  outer loop
    vertex 0.39174682452694753 0.37500000000000355 0.8114695885188488
    vertex 0.40653938407595547 0.35572196106646814 0.8739695885188488
    vertex 0.40653938407595547 0.35572196106646814 0.8114695885188488
  endloop
endfacet
facet normal 0.793353340291307 0.6087614290086273 -8.651020223860361e-15
  outer loop
    vertex 0.40653938407595547 0.35572196106646814 0.8739695885188488
    vertex 0.39174682452694753 0.37500000000000355 0.8114695885188488
    vertex 0.39174682452694753 0.37500000000000533 0.8739695885188488
  endloop
endfacet
facet normal 0.6087614290087021 -0.7933533402912496 -3.3822687170097486e-14
  outer loop
    vertex 0.4375 0.5457531754730596 0.8739695885188488
    vertex 0.41161165235168085 0.5258883476483263 0.8114695885188488
    vertex 0.4375 0.5457531754730631 0.8114695885188488
  endloop
endfacet
facet normal 0.6087614290087021 -0.7933533402912496 -3.3822687170097486e-14
  outer loop
    vertex 0.41161165235168085 0.5258883476483263 0.8114695885188488
    vertex 0.4375 0.5457531754730596 0.8739695885188488
    vertex 0.41161165235168085 0.5258883476483245 0.8739695885188488
  endloop
endfacet
facet normal -0.3826834323651253 0.9238795325112721 -5.2516471243465735e-14
  outer loop
    vertex 0.5323523806378176 0.3167592717138721 0.8739695885188488
    vertex 0.5625 0.32924682452694753 0.8114695885188488
    vertex 0.5323523806378176 0.31675927171386853 0.8114695885188488
  endloop
endfacet
facet normal -0.3826834323651253 0.9238795325112721 -5.2516471243465735e-14
  outer loop
    vertex 0.5625 0.32924682452694753 0.8114695885188488
    vertex 0.5323523806378176 0.3167592717138721 0.8739695885188488
    vertex 0.5625 0.3292468245269511 0.8739695885188488
  endloop
endfacet
facet normal -0.13052619222005016 0.9914448613738107 -5.635711553246726e-14
  outer loop
    vertex 0.5 0.31250000000000533 0.8739695885188488
    vertex 0.5323523806378176 0.31675927171386853 0.8114695885188488
    vertex 0.5 0.3125000000000018 0.8114695885188488
  endloop
endfacet
facet normal -0.13052619222005016 0.9914448613738107 -5.635711553246726e-14
  outer loop
    vertex 0.5323523806378176 0.31675927171386853 0.8114695885188488
    vertex 0.5 0.31250000000000533 0.8739695885188488
    vertex 0.5323523806378176 0.3167592717138721 0.8739695885188488
  endloop
endfacet
facet normal -0.6087614290087021 0.7933533402912496 -3.3822687170097486e-14
  outer loop
    vertex 0.5625 0.3292468245269511 0.8739695885188488
    vertex 0.5883883476483192 0.3491116523516844 0.8114695885188488
    vertex 0.5625 0.32924682452694753 0.8114695885188488
  endloop
endfacet
facet normal -0.6087614290087021 0.7933533402912496 -3.3822687170097486e-14
  outer loop
    vertex 0.5883883476483192 0.3491116523516844 0.8114695885188488
    vertex 0.5625 0.3292468245269511 0.8739695885188488
    vertex 0.5883883476483192 0.3491116523516862 0.8739695885188488
  endloop
endfacet
facet normal 0.6087614290087021 0.7933533402912495 -3.3822687170097486e-14
  outer loop
    vertex 0.41161165235168085 0.3491116523516862 0.8739695885188488
    vertex 0.4375 0.32924682452694753 0.8114695885188488
    vertex 0.41161165235168085 0.3491116523516844 0.8114695885188488
  endloop
endfacet
facet normal 0.6087614290087021 0.7933533402912495 -3.3822687170097486e-14
  outer loop
    vertex 0.4375 0.32924682452694753 0.8114695885188488
    vertex 0.41161165235168085 0.3491116523516862 0.8739695885188488
    vertex 0.4375 0.3292468245269511 0.8739695885188488
  endloop
endfacet
facet normal -0.9914448613738238 0.1305261922199502 0.0
  outer loop
    vertex 0.625 0.43750000000000533 0.8739695885188488
    vertex 0.6207407282861368 0.40514761936218946 0.8114695885188488
    vertex 0.6207407282861368 0.40514761936218946 0.8739695885188488
  endloop
endfacet
facet normal -0.9914448613738238 0.1305261922199502 0.0
  outer loop
    vertex 0.6207407282861368 0.40514761936218946 0.8114695885188488
    vertex 0.625 0.43750000000000533 0.8739695885188488
    vertex 0.625 0.43750000000000533 0.8114695885188488
  endloop
endfacet
facet normal 0.9914448613738238 -0.1305261922199502 0.0
  outer loop
    vertex 0.3792592717138632 0.4698523806378212 0.8114695885188488
    vertex 0.375 0.43750000000000533 0.8739695885188488
    vertex 0.375 0.43750000000000533 0.8114695885188488
  endloop
endfacet
facet normal 0.9914448613738238 -0.1305261922199502 0.0
  outer loop
    vertex 0.375 0.43750000000000533 0.8739695885188488
    vertex 0.3792592717138632 0.4698523806378212 0.8114695885188488
    vertex 0.3792592717138632 0.4698523806378212 0.8739695885188488
  endloop
endfacet
facet normal 0.9238795325112262 0.38268343236523583 -5.438258659257199e-15
  outer loop
    vertex 0.3792592717138632 0.40514761936218946 0.8114695885188488
    vertex 0.39174682452694753 0.37500000000000533 0.8739695885188488
    vertex 0.39174682452694753 0.37500000000000355 0.8114695885188488
  endloop
endfacet
facet normal 0.9238795325112262 0.38268343236523583 -5.438258659257199e-15
  outer loop
    vertex 0.39174682452694753 0.37500000000000533 0.8739695885188488
    vertex 0.3792592717138632 0.40514761936218946 0.8114695885188488
    vertex 0.3792592717138632 0.40514761936218946 0.8739695885188488
  endloop
endfacet
facet normal -0.793353340291307 -0.6087614290086273 -8.651020223860361e-15
  outer loop
    vertex 0.5934606159240445 0.5192780389335425 0.8739695885188488
    vertex 0.6082531754730525 0.5000000000000071 0.8114695885188488
    vertex 0.6082531754730525 0.5000000000000053 0.8739695885188488
  endloop
endfacet
facet normal -0.793353340291307 -0.6087614290086273 -8.651020223860361e-15
  outer loop
    vertex 0.6082531754730525 0.5000000000000071 0.8114695885188488
    vertex 0.5934606159240445 0.5192780389335425 0.8739695885188488
    vertex 0.5934606159240445 0.5192780389335425 0.8114695885188488
  endloop
endfacet
facet normal 0.13052619222005016 -0.9914448613738107 -5.635711553246726e-14
  outer loop
    vertex 0.5 0.5625000000000053 0.8739695885188488
    vertex 0.46764761936218235 0.5582407282861421 0.8114695885188488
    vertex 0.5 0.5625000000000089 0.8114695885188488
  endloop
endfacet
facet normal 0.13052619222005016 -0.9914448613738107 -5.635711553246726e-14
  outer loop
    vertex 0.46764761936218235 0.5582407282861421 0.8114695885188488
    vertex 0.5 0.5625000000000053 0.8739695885188488
    vertex 0.46764761936218235 0.5582407282861386 0.8739695885188488
  endloop
endfacet
facet normal -0.793353340291307 0.6087614290086273 -8.651020223860361e-15
  outer loop
    vertex 0.6082531754730525 0.37500000000000533 0.8739695885188488
    vertex 0.5934606159240445 0.35572196106646814 0.8114695885188488
    vertex 0.5934606159240445 0.35572196106646814 0.8739695885188488
  endloop
endfacet
facet normal -0.793353340291307 0.6087614290086273 -8.651020223860361e-15
  outer loop
    vertex 0.5934606159240445 0.35572196106646814 0.8114695885188488
    vertex 0.6082531754730525 0.37500000000000533 0.8739695885188488
    vertex 0.6082531754730525 0.37500000000000355 0.8114695885188488
  endloop
endfacet
facet normal 0.7933533402912364 0.608761429008719 -8.651020223861664e-15
  outer loop
    vertex 0.40653938407595547 0.35572196106646814 0.8114695885188488
    vertex 0.41161165235168085 0.3491116523516862 0.8739695885188488
    vertex 0.41161165235168085 0.3491116523516844 0.8114695885188488
  endloop
endfacet
facet normal 0.7933533402912364 0.608761429008719 -8.651020223861664e-15
  outer loop
    vertex 0.41161165235168085 0.3491116523516862 0.8739695885188488
    vertex 0.40653938407595547 0.35572196106646814 0.8114695885188488
    vertex 0.40653938407595547 0.35572196106646814 0.8739695885188488
  endloop
endfacet
facet normal -0.7933533402912364 -0.608761429008719 -8.651020223861664e-15
  outer loop
    vertex 0.5883883476483192 0.5258883476483245 0.8739695885188488
    vertex 0.5934606159240445 0.5192780389335425 0.8114695885188488
    vertex 0.5934606159240445 0.5192780389335425 0.8739695885188488
  endloop
endfacet
facet normal -0.7933533402912364 -0.608761429008719 -8.651020223861664e-15
  outer loop
    vertex 0.5934606159240445 0.5192780389335425 0.8114695885188488
    vertex 0.5883883476483192 0.5258883476483245 0.8739695885188488
    vertex 0.5883883476483192 0.5258883476483263 0.8114695885188488
  endloop
endfacet
facet normal 0.793353340291307 -0.6087614290086273 -8.651020223860361e-15
  outer loop
    vertex 0.39174682452694753 0.5000000000000071 0.8114695885188488
    vertex 0.40653938407595547 0.5192780389335425 0.8739695885188488
    vertex 0.39174682452694753 0.5000000000000053 0.8739695885188488
  endloop
endfacet
facet normal 0.793353340291307 -0.6087614290086273 -8.651020223860361e-15
  outer loop
    vertex 0.40653938407595547 0.5192780389335425 0.8739695885188488
    vertex 0.39174682452694753 0.5000000000000071 0.8114695885188488
    vertex 0.40653938407595547 0.5192780389335425 0.8114695885188488
  endloop
endfacet
facet normal 0.9238795325112262 0.3826834323652359 5.4382586592565116e-15
  outer loop
    vertex 0.39174682452694753 0.37500000000000533 2.220446049250313e-16
    vertex 0.3792592717138632 0.40514761936218946 0.0625
    vertex 0.39174682452694753 0.37500000000000355 0.0625
  endloop
endfacet
facet normal 0.9238795325112262 0.3826834323652359 5.4382586592565116e-15
  outer loop
    vertex 0.3792592717138632 0.40514761936218946 0.0625
    vertex 0.39174682452694753 0.37500000000000533 2.220446049250313e-16
    vertex 0.3792592717138632 0.40514761936218946 2.220446049250313e-16
  endloop
endfacet
facet normal -0.9238795325112262 -0.38268343236523583 5.438258659256433e-15
  outer loop
    vertex 0.6082531754730525 0.5000000000000071 0.0625
    vertex 0.6207407282861368 0.4698523806378212 2.220446049250313e-16
    vertex 0.6207407282861368 0.4698523806378212 0.0625
  endloop
endfacet
facet normal -0.9238795325112262 -0.38268343236523583 5.438258659256433e-15
  outer loop
    vertex 0.6207407282861368 0.4698523806378212 2.220446049250313e-16
    vertex 0.6082531754730525 0.5000000000000071 0.0625
    vertex 0.6082531754730525 0.5000000000000053 2.220446049250313e-16
  endloop
endfacet
facet normal -0.13052619222005016 0.9914448613738107 5.6357115532467765e-14
  outer loop
    vertex 0.5 0.3125000000000018 0.0625
    vertex 0.5323523806378176 0.3167592717138721 2.220446049250313e-16
    vertex 0.5 0.31250000000000533 2.220446049250313e-16
  endloop
endfacet
facet normal -0.13052619222005016 0.9914448613738107 5.6357115532467765e-14
  outer loop
    vertex 0.5323523806378176 0.3167592717138721 2.220446049250313e-16
    vertex 0.5 0.3125000000000018 0.0625
    vertex 0.5323523806378176 0.31675927171386853 0.0625
  endloop
endfacet
facet normal 0.9238795325112262 -0.38268343236523583 5.438258659258003e-15
  outer loop
    vertex 0.39174682452694753 0.5000000000000053 2.220446049250313e-16
    vertex 0.3792592717138632 0.4698523806378212 0.0625
    vertex 0.3792592717138632 0.4698523806378212 2.220446049250313e-16
  endloop
endfacet
facet normal 0.9238795325112262 -0.38268343236523583 5.438258659258003e-15
  outer loop
    vertex 0.3792592717138632 0.4698523806378212 0.0625
    vertex 0.39174682452694753 0.5000000000000053 2.220446049250313e-16
    vertex 0.39174682452694753 0.5000000000000071 0.0625
  endloop
endfacet
facet normal 0.7933533402913068 -0.6087614290086273 8.651020223859812e-15
  outer loop
    vertex 0.40653938407595547 0.5192780389335425 2.220446049250313e-16
    vertex 0.39174682452694753 0.5000000000000071 0.0625
    vertex 0.39174682452694753 0.5000000000000053 2.220446049250313e-16
  endloop
endfacet
facet normal 0.7933533402913068 -0.6087614290086273 8.651020223859812e-15
  outer loop
    vertex 0.39174682452694753 0.5000000000000071 0.0625
    vertex 0.40653938407595547 0.5192780389335425 2.220446049250313e-16
    vertex 0.40653938407595547 0.5192780389335425 0.0625
  endloop
endfacet
facet normal 0.13052619222005016 0.9914448613738107 5.635711553246755e-14
  outer loop
    vertex 0.46764761936218235 0.31675927171386853 0.0625
    vertex 0.5 0.31250000000000533 2.220446049250313e-16
    vertex 0.46764761936218235 0.3167592717138721 2.220446049250313e-16
  endloop
endfacet
facet normal 0.13052619222005016 0.9914448613738107 5.635711553246755e-14
  outer loop
    vertex 0.5 0.31250000000000533 2.220446049250313e-16
    vertex 0.46764761936218235 0.31675927171386853 0.0625
    vertex 0.5 0.3125000000000018 0.0625
  endloop
endfacet
facet normal -0.6087614290087021 -0.7933533402912496 3.382268717009818e-14
  outer loop
    vertex 0.5883883476483192 0.5258883476483263 0.0625
    vertex 0.5625 0.5457531754730596 2.220446049250313e-16
    vertex 0.5883883476483192 0.5258883476483245 2.220446049250313e-16
  endloop
endfacet
facet normal -0.6087614290087021 -0.7933533402912496 3.382268717009818e-14
  outer loop
    vertex 0.5625 0.5457531754730596 2.220446049250313e-16
    vertex 0.5883883476483192 0.5258883476483263 0.0625
    vertex 0.5625 0.5457531754730631 0.0625
  endloop
endfacet
facet normal 0.9914448613738238 -0.1305261922199502 -1.3179777299159352e-29
  outer loop
    vertex 0.3792592717138632 0.4698523806378212 2.220446049250313e-16
    vertex 0.375 0.43750000000000533 0.0625
    vertex 0.375 0.43750000000000533 2.220446049250313e-16
  endloop
endfacet
facet normal 0.9914448613738238 -0.1305261922199502 -1.3179777299159352e-29
  outer loop
    vertex 0.375 0.43750000000000533 0.0625
    vertex 0.3792592717138632 0.4698523806378212 2.220446049250313e-16
    vertex 0.3792592717138632 0.4698523806378212 0.0625
  endloop
endfacet
facet normal -0.9914448613738238 0.13052619221995018 1.317977729915935e-29
  outer loop
    vertex 0.625 0.43750000000000533 0.0625
    vertex 0.6207407282861368 0.40514761936218946 2.220446049250313e-16
    vertex 0.6207407282861368 0.40514761936218946 0.0625
  endloop
endfacet
facet normal -0.9914448613738238 0.13052619221995018 1.317977729915935e-29
  outer loop
    vertex 0.6207407282861368 0.40514761936218946 2.220446049250313e-16
    vertex 0.625 0.43750000000000533 0.0625
    vertex 0.625 0.43750000000000533 2.220446049250313e-16
  endloop
endfacet
facet normal -0.3826834323651253 -0.9238795325112721 5.251647124346652e-14
  outer loop
    vertex 0.5625 0.5457531754730631 0.0625
    vertex 0.5323523806378176 0.5582407282861386 2.220446049250313e-16
    vertex 0.5625 0.5457531754730596 2.220446049250313e-16
  endloop
endfacet
facet normal -0.3826834323651253 -0.9238795325112721 5.251647124346652e-14
  outer loop
    vertex 0.5323523806378176 0.5582407282861386 2.220446049250313e-16
    vertex 0.5625 0.5457531754730631 0.0625
    vertex 0.5323523806378176 0.5582407282861421 0.0625
  endloop
endfacet
facet normal -0.7933533402912364 -0.608761429008719 8.651020223861115e-15
  outer loop
    vertex 0.5883883476483192 0.5258883476483263 0.0625
    vertex 0.5934606159240445 0.5192780389335425 2.220446049250313e-16
    vertex 0.5934606159240445 0.5192780389335425 0.0625
  endloop
endfacet
facet normal -0.7933533402912364 -0.608761429008719 8.651020223861115e-15
  outer loop
    vertex 0.5934606159240445 0.5192780389335425 2.220446049250313e-16
    vertex 0.5883883476483192 0.5258883476483263 0.0625
    vertex 0.5883883476483192 0.5258883476483245 2.220446049250313e-16
  endloop
endfacet
facet normal 0.6087614290087021 0.7933533402912496 3.382268717009818e-14
  outer loop
    vertex 0.41161165235168085 0.3491116523516844 0.0625
    vertex 0.4375 0.3292468245269511 2.220446049250313e-16
    vertex 0.41161165235168085 0.3491116523516862 2.220446049250313e-16
  endloop
endfacet
facet normal 0.6087614290087021 0.7933533402912496 3.382268717009818e-14
  outer loop
    vertex 0.4375 0.3292468245269511 2.220446049250313e-16
    vertex 0.41161165235168085 0.3491116523516844 0.0625
    vertex 0.4375 0.32924682452694753 0.0625
  endloop
endfacet
facet normal 0.9914448613738238 0.13052619221995018 -1.317977729915935e-29
  outer loop
    vertex 0.375 0.43750000000000533 2.220446049250313e-16
    vertex 0.3792592717138632 0.40514761936218946 0.0625
    vertex 0.3792592717138632 0.40514761936218946 2.220446049250313e-16
  endloop
endfacet
facet normal 0.9914448613738238 0.13052619221995018 -1.317977729915935e-29
  outer loop
    vertex 0.3792592717138632 0.40514761936218946 0.0625
    vertex 0.375 0.43750000000000533 2.220446049250313e-16
    vertex 0.375 0.43750000000000533 0.0625
  endloop
endfacet
facet normal 0.3826834323651253 0.9238795325112721 5.2516471243466335e-14
  outer loop
    vertex 0.4375 0.32924682452694753 0.0625
    vertex 0.46764761936218235 0.3167592717138721 2.220446049250313e-16
    vertex 0.4375 0.3292468245269511 2.220446049250313e-16
  endloop
endfacet
facet normal 0.3826834323651253 0.9238795325112721 5.2516471243466335e-14
  outer loop
    vertex 0.46764761936218235 0.3167592717138721 2.220446049250313e-16
    vertex 0.4375 0.32924682452694753 0.0625
    vertex 0.46764761936218235 0.31675927171386853 0.0625
  endloop
endfacet
facet normal 0.13052619222005016 -0.9914448613738107 5.6357115532467765e-14
  outer loop
    vertex 0.5 0.5625000000000089 0.0625
    vertex 0.46764761936218235 0.5582407282861386 2.220446049250313e-16
    vertex 0.5 0.5625000000000053 2.220446049250313e-16
  endloop
endfacet
facet normal 0.13052619222005016 -0.9914448613738107 5.6357115532467765e-14
  outer loop
    vertex 0.46764761936218235 0.5582407282861386 2.220446049250313e-16
    vertex 0.5 0.5625000000000089 0.0625
    vertex 0.46764761936218235 0.5582407282861421 0.0625
  endloop
endfacet
facet normal 0.6087614290087021 -0.7933533402912495 3.38226871700972e-14
  outer loop
    vertex 0.4375 0.5457531754730631 0.0625
    vertex 0.41161165235168085 0.5258883476483245 2.220446049250313e-16
    vertex 0.4375 0.5457531754730596 2.220446049250313e-16
  endloop
endfacet
facet normal 0.6087614290087021 -0.7933533402912495 3.38226871700972e-14
  outer loop
    vertex 0.41161165235168085 0.5258883476483245 2.220446049250313e-16
    vertex 0.4375 0.5457531754730631 0.0625
    vertex 0.41161165235168085 0.5258883476483263 0.0625
  endloop
endfacet
facet normal 0.7933533402912364 0.608761429008719 8.651020223861115e-15
  outer loop
    vertex 0.41161165235168085 0.3491116523516862 2.220446049250313e-16
    vertex 0.40653938407595547 0.35572196106646814 0.0625
    vertex 0.41161165235168085 0.3491116523516844 0.0625
  endloop
endfacet
facet normal 0.7933533402912364 0.608761429008719 8.651020223861115e-15
  outer loop
    vertex 0.40653938407595547 0.35572196106646814 0.0625
    vertex 0.41161165235168085 0.3491116523516862 2.220446049250313e-16
    vertex 0.40653938407595547 0.35572196106646814 2.220446049250313e-16
  endloop
endfacet
facet normal -0.9914448613738238 -0.13052619221995018 -1.317977729915935e-29
  outer loop
    vertex 0.6207407282861368 0.4698523806378212 0.0625
    vertex 0.625 0.43750000000000533 2.220446049250313e-16
    vertex 0.625 0.43750000000000533 0.0625
  endloop
endfacet
facet normal -0.9914448613738238 -0.13052619221995018 -1.317977729915935e-29
  outer loop
    vertex 0.625 0.43750000000000533 2.220446049250313e-16
    vertex 0.6207407282861368 0.4698523806378212 0.0625
    vertex 0.6207407282861368 0.4698523806378212 2.220446049250313e-16
  endloop
endfacet
facet normal -0.13052619222005016 -0.9914448613738107 5.635711553246755e-14
  outer loop
    vertex 0.5323523806378176 0.5582407282861421 0.0625
    vertex 0.5 0.5625000000000053 2.220446049250313e-16
    vertex 0.5323523806378176 0.5582407282861386 2.220446049250313e-16
  endloop
endfacet
facet normal -0.13052619222005016 -0.9914448613738107 5.635711553246755e-14
  outer loop
    vertex 0.5 0.5625000000000053 2.220446049250313e-16
    vertex 0.5323523806378176 0.5582407282861421 0.0625
    vertex 0.5 0.5625000000000089 0.0625
  endloop
endfacet
facet normal -0.3826834323651253 0.9238795325112721 5.25164712434659e-14
  outer loop
    vertex 0.5323523806378176 0.31675927171386853 0.0625
    vertex 0.5625 0.3292468245269511 2.220446049250313e-16
    vertex 0.5323523806378176 0.3167592717138721 2.220446049250313e-16
  endloop
endfacet
facet normal -0.3826834323651253 0.9238795325112721 5.25164712434659e-14
  outer loop
    vertex 0.5625 0.3292468245269511 2.220446049250313e-16
    vertex 0.5323523806378176 0.31675927171386853 0.0625
    vertex 0.5625 0.32924682452694753 0.0625
  endloop
endfacet
facet normal -0.7933533402913068 0.6087614290086273 8.651020223859812e-15
  outer loop
    vertex 0.6082531754730525 0.37500000000000355 0.0625
    vertex 0.5934606159240445 0.35572196106646814 2.220446049250313e-16
    vertex 0.5934606159240445 0.35572196106646814 0.0625
  endloop
endfacet
facet normal -0.7933533402913068 0.6087614290086273 8.651020223859812e-15
  outer loop
    vertex 0.5934606159240445 0.35572196106646814 2.220446049250313e-16
    vertex 0.6082531754730525 0.37500000000000355 0.0625
    vertex 0.6082531754730525 0.37500000000000533 2.220446049250313e-16
  endloop
endfacet
facet normal -0.6087614290087021 0.7933533402912495 3.38226871700972e-14
  outer loop
    vertex 0.5625 0.32924682452694753 0.0625
    vertex 0.5883883476483192 0.3491116523516862 2.220446049250313e-16
    vertex 0.5625 0.3292468245269511 2.220446049250313e-16
  endloop
endfacet
facet normal -0.6087614290087021 0.7933533402912495 3.38226871700972e-14
  outer loop
    vertex 0.5883883476483192 0.3491116523516862 2.220446049250313e-16
    vertex 0.5625 0.32924682452694753 0.0625
    vertex 0.5883883476483192 0.3491116523516844 0.0625
  endloop
endfacet
facet normal -0.9238795325112262 0.38268343236523583 5.43825865925808e-15
  outer loop
    vertex 0.6207407282861368 0.40514761936218946 0.0625
    vertex 0.6082531754730525 0.37500000000000533 2.220446049250313e-16
    vertex 0.6082531754730525 0.37500000000000355 0.0625
  endloop
endfacet
facet normal -0.9238795325112262 0.38268343236523583 5.43825865925808e-15
  outer loop
    vertex 0.6082531754730525 0.37500000000000533 2.220446049250313e-16
    vertex 0.6207407282861368 0.40514761936218946 0.0625
    vertex 0.6207407282861368 0.40514761936218946 2.220446049250313e-16
  endloop
endfacet
facet normal 0.3826834323651253 -0.9238795325112721 5.25164712434659e-14
  outer loop
    vertex 0.46764761936218235 0.5582407282861421 0.0625
    vertex 0.4375 0.5457531754730596 2.220446049250313e-16
    vertex 0.46764761936218235 0.5582407282861386 2.220446049250313e-16
  endloop
endfacet
facet normal 0.3826834323651253 -0.9238795325112721 5.25164712434659e-14
  outer loop
    vertex 0.4375 0.5457531754730596 2.220446049250313e-16
    vertex 0.46764761936218235 0.5582407282861421 0.0625
    vertex 0.4375 0.5457531754730631 0.0625
  endloop
endfacet
facet normal -0.793353340291307 -0.6087614290086273 8.651020223859813e-15
  outer loop
    vertex 0.6082531754730525 0.5000000000000071 0.0625
    vertex 0.5934606159240445 0.5192780389335425 2.220446049250313e-16
    vertex 0.6082531754730525 0.5000000000000053 2.220446049250313e-16
  endloop
endfacet
facet normal -0.793353340291307 -0.6087614290086273 8.651020223859813e-15
  outer loop
    vertex 0.5934606159240445 0.5192780389335425 2.220446049250313e-16
    vertex 0.6082531754730525 0.5000000000000071 0.0625
    vertex 0.5934606159240445 0.5192780389335425 0.0625
  endloop
endfacet
facet normal 0.7933533402912364 -0.608761429008719 8.651020223861115e-15
  outer loop
    vertex 0.41161165235168085 0.5258883476483245 2.220446049250313e-16
    vertex 0.40653938407595547 0.5192780389335425 0.0625
    vertex 0.40653938407595547 0.5192780389335425 2.220446049250313e-16
  endloop
endfacet
facet normal 0.7933533402912364 -0.608761429008719 8.651020223861115e-15
  outer loop
    vertex 0.40653938407595547 0.5192780389335425 0.0625
    vertex 0.41161165235168085 0.5258883476483245 2.220446049250313e-16
    vertex 0.41161165235168085 0.5258883476483263 0.0625
  endloop
endfacet
facet normal -0.7933533402912364 0.608761429008719 8.651020223861115e-15
  outer loop
    vertex 0.5934606159240445 0.35572196106646814 0.0625
    vertex 0.5883883476483192 0.3491116523516862 2.220446049250313e-16
    vertex 0.5883883476483192 0.3491116523516844 0.0625
  endloop
endfacet
facet normal -0.7933533402912364 0.608761429008719 8.651020223861115e-15
  outer loop
    vertex 0.5883883476483192 0.3491116523516862 2.220446049250313e-16
    vertex 0.5934606159240445 0.35572196106646814 0.0625
    vertex 0.5934606159240445 0.35572196106646814 2.220446049250313e-16
  endloop
endfacet
facet normal 0.793353340291307 0.6087614290086273 8.651020223859813e-15
  outer loop
    vertex 0.39174682452694753 0.37500000000000533 2.220446049250313e-16
    vertex 0.40653938407595547 0.35572196106646814 0.0625
    vertex 0.40653938407595547 0.35572196106646814 2.220446049250313e-16
  endloop
endfacet
facet normal 0.793353340291307 0.6087614290086273 8.651020223859813e-15
  outer loop
    vertex 0.40653938407595547 0.35572196106646814 0.0625
    vertex 0.39174682452694753 0.37500000000000533 2.220446049250313e-16
    vertex 0.39174682452694753 0.37500000000000355 0.0625
  endloop
endfacet
facet normal 0.0 0.0 1.0
  outer loop
    vertex 0.0 0.0625 0.0625
    vertex 0.41161165235168085 0.3491116523516844 0.0625
    vertex 0.0 0.8125000000000107 0.0625
  endloop
endfacet
facet normal 0.0 0.0 1.0
  outer loop
    vertex 0.41161165235168085 0.3491116523516844 0.0625
    vertex 0.0 0.0625 0.0625
    vertex 0.4375 0.32924682452694753 0.0625
  endloop
endfacet
facet normal 0.0 0.0 1.0
  outer loop
    vertex 0.4375 0.32924682452694753 0.0625
    vertex 0.0 0.0625 0.0625
    vertex 1.0 0.0625 0.0625
  endloop
endfacet
facet normal 0.0 0.0 1.0
  outer loop
    vertex 0.0 0.8125000000000107 0.0625
    vertex 0.41161165235168085 0.3491116523516844 0.0625
    vertex 0.40653938407595547 0.35572196106646814 0.0625
  endloop
endfacet
facet normal 0.0 0.0 1.0
  outer loop
    vertex 0.0 0.8125000000000107 0.0625
    vertex 0.40653938407595547 0.35572196106646814 0.0625
    vertex 0.39174682452694753 0.37500000000000355 0.0625
  endloop
endfacet
facet normal 0.0 0.0 1.0
  outer loop
    vertex 0.0 0.8125000000000107 0.0625
    vertex 0.39174682452694753 0.37500000000000355 0.0625
    vertex 0.3792592717138632 0.40514761936218946 0.0625
  endloop
endfacet
facet normal 0.0 0.0 1.0
  outer loop
    vertex 0.0 0.8125000000000107 0.0625
    vertex 0.3792592717138632 0.40514761936218946 0.0625
    vertex 0.375 0.43750000000000533 0.0625
  endloop
endfacet
facet normal 0.0 0.0 1.0
  outer loop
    vertex 0.4375 0.32924682452694753 0.0625
    vertex 1.0 0.0625 0.0625
    vertex 0.46764761936218235 0.31675927171386853 0.0625
  endloop
endfacet
facet normal 0.0 0.0 1.0
  outer loop
    vertex 0.46764761936218235 0.31675927171386853 0.0625
    vertex 1.0 0.0625 0.0625
    vertex 0.5 0.3125000000000018 0.0625
  endloop
endfacet
facet normal 0.0 0.0 1.0
  outer loop
    vertex 0.5 0.3125000000000018 0.0625
    vertex 1.0 0.0625 0.0625
    vertex 0.5323523806378176 0.31675927171386853 0.0625
  endloop
endfacet
facet normal 0.0 0.0 1.0
  outer loop
    vertex 0.5323523806378176 0.31675927171386853 0.0625
    vertex 1.0 0.0625 0.0625
    vertex 0.5625 0.32924682452694753 0.0625
  endloop
endfacet
facet normal 0.0 0.0 1.0
  outer loop
    vertex 0.5625 0.32924682452694753 0.0625
    vertex 1.0 0.0625 0.0625
    vertex 0.5883883476483192 0.3491116523516844 0.0625
  endloop
endfacet
facet normal 0.0 0.0 1.0
  outer loop
    vertex 0.5883883476483192 0.3491116523516844 0.0625
    vertex 1.0 0.0625 0.0625
    vertex 0.5934606159240445 0.35572196106646814 0.0625
  endloop
endfacet
facet normal 0.0 0.0 1.0
  outer loop
    vertex 0.5934606159240445 0.35572196106646814 0.0625
    vertex 1.0 0.0625 0.0625
    vertex 0.6082531754730525 0.37500000000000355 0.0625
  endloop
endfacet
facet normal 0.0 0.0 1.0
  outer loop
    vertex 0.6082531754730525 0.37500000000000355 0.0625
    vertex 1.0 0.0625 0.0625
    vertex 0.6207407282861368 0.40514761936218946 0.0625
  endloop
endfacet
facet normal 0.0 0.0 1.0
  outer loop
    vertex 0.6207407282861368 0.40514761936218946 0.0625
    vertex 1.0 0.0625 0.0625
    vertex 0.625 0.43750000000000533 0.0625
  endloop
endfacet
facet normal 0.0 0.0 1.0
  outer loop
    vertex 0.0 0.8125000000000107 0.0625
    vertex 0.4375 0.5457531754730631 0.0625
    vertex 1.0 0.8125000000000107 0.0625
  endloop
endfacet
facet normal 0.0 0.0 1.0
  outer loop
    vertex 0.4375 0.5457531754730631 0.0625
    vertex 0.0 0.8125000000000107 0.0625
    vertex 0.41161165235168085 0.5258883476483263 0.0625
  endloop
endfacet
facet normal 0.0 0.0 1.0
  outer loop
    vertex 0.41161165235168085 0.5258883476483263 0.0625
    vertex 0.0 0.8125000000000107 0.0625
    vertex 0.40653938407595547 0.5192780389335425 0.0625
  endloop
endfacet
facet normal 0.0 0.0 1.0
  outer loop
    vertex 0.40653938407595547 0.5192780389335425 0.0625
    vertex 0.0 0.8125000000000107 0.0625
    vertex 0.39174682452694753 0.5000000000000071 0.0625
  endloop
endfacet
facet normal 0.0 0.0 1.0
  outer loop
    vertex 0.39174682452694753 0.5000000000000071 0.0625
    vertex 0.0 0.8125000000000107 0.0625
    vertex 0.3792592717138632 0.4698523806378212 0.0625
  endloop
endfacet
facet normal 0.0 0.0 1.0
  outer loop
    vertex 0.3792592717138632 0.4698523806378212 0.0625
    vertex 0.0 0.8125000000000107 0.0625
    vertex 0.375 0.43750000000000533 0.0625
  endloop
endfacet
facet normal 0.0 0.0 1.0
  outer loop
    vertex 1.0 0.8125000000000107 0.0625
    vertex 0.4375 0.5457531754730631 0.0625
    vertex 0.46764761936218235 0.5582407282861421 0.0625
  endloop
endfacet
facet normal 0.0 0.0 1.0
  outer loop
    vertex 1.0 0.8125000000000107 0.0625
    vertex 0.46764761936218235 0.5582407282861421 0.0625
    vertex 0.5 0.5625000000000089 0.0625
  endloop
endfacet
facet normal 0.0 0.0 1.0
  outer loop
    vertex 1.0 0.8125000000000107 0.0625
    vertex 0.5 0.5625000000000089 0.0625
    vertex 0.5323523806378176 0.5582407282861421 0.0625
  endloop
endfacet
facet normal 0.0 0.0 1.0
  outer loop
    vertex 1.0 0.8125000000000107 0.0625
    vertex 0.5323523806378176 0.5582407282861421 0.0625
    vertex 0.5625 0.5457531754730631 0.0625
  endloop
endfacet
facet normal 0.0 0.0 1.0
  outer loop
    vertex 1.0 0.8125000000000107 0.0625
    vertex 0.5625 0.5457531754730631 0.0625
    vertex 0.5883883476483192 0.5258883476483263 0.0625
  endloop
endfacet
facet normal 0.0 0.0 1.0
  outer loop
    vertex 1.0 0.8125000000000107 0.0625
    vertex 0.5883883476483192 0.5258883476483263 0.0625
    vertex 0.5934606159240445 0.5192780389335425 0.0625
  endloop
endfacet
facet normal 0.0 0.0 1.0
  outer loop
    vertex 1.0 0.8125000000000107 0.0625
    vertex 0.5934606159240445 0.5192780389335425 0.0625
    vertex 0.6082531754730525 0.5000000000000071 0.0625
  endloop
endfacet
facet normal 0.0 0.0 1.0
  outer loop
    vertex 1.0 0.8125000000000107 0.0625
    vertex 0.6082531754730525 0.5000000000000071 0.0625
    vertex 0.6207407282861368 0.4698523806378212 0.0625
  endloop
endfacet
facet normal 0.0 0.0 1.0
  outer loop
    vertex 1.0 0.8125000000000107 0.0625
    vertex 0.6207407282861368 0.4698523806378212 0.0625
    vertex 0.625 0.43750000000000533 0.0625
  endloop
endfacet
facet normal 0.0 0.0 1.0
  outer loop
    vertex 1.0 0.8125000000000107 0.0625
    vertex 0.625 0.43750000000000533 0.0625
    vertex 1.0 0.0625 0.0625
  endloop
endfacet
facet normal 0.0 1.0 0.0
  outer loop
    vertex 0.0 0.0625 0.8114695885188488
    vertex 1.0 0.0625 0.0625
    vertex 0.0 0.0625 0.0625
  endloop
endfacet
facet normal 0.0 1.0 0.0
  outer loop
    vertex 1.0 0.0625 0.0625
    vertex 0.0 0.0625 0.8114695885188488
    vertex 1.0 0.0625 0.8114695885188488
  endloop
endfacet
facet normal 1.0 0.0 0.0
  outer loop
    vertex 1.0 0.0 0.0
    vertex 1.0 0.0625 0.0625
    vertex 1.0 0.0 0.8739695885188488
  endloop
endfacet
facet normal 1.0 0.0 0.0
  outer loop
    vertex 1.0 0.0625 0.0625
    vertex 1.0 0.0 0.0
    vertex 1.0 0.8750000000000107 0.0
  endloop
endfacet
facet normal 1.0 0.0 0.0
  outer loop
    vertex 1.0 0.0625 0.0625
    vertex 1.0 0.8750000000000107 0.0
    vertex 1.0 0.8125000000000107 0.0625
  endloop
endfacet
facet normal 1.0 0.0 0.0
  outer loop
    vertex 1.0 0.8125000000000107 0.0625
    vertex 1.0 0.8750000000000107 0.0
    vertex 1.0 0.8125000000000107 0.8114695885188488
  endloop
endfacet
facet normal 1.0 0.0 0.0
  outer loop
    vertex 1.0 0.0 0.8739695885188488
    vertex 1.0 0.0625 0.8114695885188488
    vertex 1.0 0.8750000000000107 0.8739695885188488
  endloop
endfacet
facet normal 1.0 0.0 0.0
  outer loop
    vertex 1.0 0.0625 0.8114695885188488
    vertex 1.0 0.0 0.8739695885188488
    vertex 1.0 0.0625 0.0625
  endloop
endfacet
facet normal 1.0 0.0 0.0
  outer loop
    vertex 1.0 0.8750000000000107 0.8739695885188488
    vertex 1.0 0.0625 0.8114695885188488
    vertex 1.0 0.8125000000000107 0.8114695885188488
  endloop
endfacet
facet normal 1.0 0.0 0.0
  outer loop
    vertex 1.0 0.8750000000000107 0.8739695885188488
    vertex 1.0 0.8125000000000107 0.8114695885188488
    vertex 1.0 0.8750000000000107 0.0
  endloop
endfacet
endsolid gun_rig_3dp2
